<svg width="578" height="307" viewBox="0 0 578 307" fill="none" xmlns="http://www.w3.org/2000/svg">
<path d="M446.462 294.223C442.321 299.593 437.455 303.583 438.522 305.397C438.522 305.397 440.726 307 446.809 307C457.239 307 467.487 306.206 465.803 305.149C463.472 303.684 456.72 303.155 450.267 300.921C448.672 300.369 453.757 297.28 452.368 296.775C449.495 295.728 447.256 294.823 446.462 294.223Z" fill="#002E4F"/>
<path d="M553.914 305.076C553.914 305.076 555.284 306.998 560.543 306.998C569.56 306.998 578.959 305.774 577.505 304.859C575.488 303.595 559.683 300.296 559.683 300.296L556.139 295.895L550.128 299.221L553.914 305.076Z" fill="#002E4F"/>
<path d="M525.344 172.183C518.877 172.183 513.986 170.891 513.578 170.78C510.204 169.858 508.215 166.379 509.135 163.005C510.054 159.635 513.521 157.652 516.891 158.557C517.113 158.614 531.351 162.263 539.663 155.132C545.226 150.355 547.34 141.363 545.945 128.401L545.5 124.266L558.304 117.011C561.352 115.287 565.213 116.356 566.936 119.399C568.66 122.441 567.591 126.306 564.548 128.028L558.887 131.236C559.782 146.504 556.072 157.784 547.837 164.804C540.893 170.719 532.227 172.183 525.344 172.183Z" fill="#FFCFD3"/>
<path d="M547.257 137.047C547.016 146.256 544.571 152.92 539.928 156.9C530.81 164.726 515.196 160.735 514.927 160.664C511.226 159.665 507.42 161.851 506.412 165.547C505.403 169.249 507.585 173.073 511.288 174.084C511.738 174.203 517.113 176.885 524.207 176.633C551.149 175.677 567.409 152.437 567.71 138.888L547.257 137.047Z" fill="#80E0FF"/>
<path d="M510.212 104.819C507.798 103.737 505.426 102.566 503.09 101.337C480.766 114.05 452.245 130.336 451.679 130.904C451.679 130.904 465.854 153.476 466.761 154.381C467.343 154.963 502.494 129.747 527.781 111.477C521.947 109.219 515.932 107.384 510.212 104.819Z" fill="#32CDD7"/>
<path d="M510.578 104.171C516.423 106.75 522.565 108.621 528.508 110.957C542.43 100.897 553.192 93.066 553.192 93.066L529.396 86.3787C529.396 86.3787 517.946 92.8791 503.838 100.912C506.052 102.066 508.293 103.162 510.578 104.171Z" fill="#00AFE2"/>
<path d="M469.557 74.5394L483.567 112.468L510.955 122.519L476.263 59.1462L469.557 74.5394Z" fill="#80E0FF"/>
<path d="M512.446 131.835H492.154L510.216 163.386L537.748 174.994L512.446 131.835Z" fill="#80E0FF"/>
<path d="M537.747 174.994L521.593 147.437L452.486 187.951L438.896 164.769L447.43 26.9454L478.486 8.73962L534.382 104.09L553.19 93.0644L568.831 119.744L550.023 130.77L566.177 158.325L537.747 174.994ZM475.054 68.0522L473.306 69.078L468.556 142.68L505.951 120.757L475.054 68.0522Z" fill="#3D65FF"/>
<path d="M415.924 158.462L438.898 164.769L452.488 187.951L428.214 181.802L415.924 158.462Z" fill="#80E0FF"/>
<path d="M415.924 158.462L438.898 164.769L447.432 26.9452L426.354 21.9008L415.924 158.462Z" fill="#13B8C2"/>
<path d="M426.354 21.9009L447.432 26.9453L478.488 8.73958L457.142 2.53369L426.354 21.9009Z" fill="#32CDD7"/>
<path d="M472.572 213.382C472.572 213.382 475.949 249.804 475.949 262.561C475.949 262.561 449.429 283.232 442.936 294.044C445.725 296.167 451.238 298.984 454.848 298.875C472.542 281.978 491.966 269.919 491.966 269.919C491.966 269.919 500.344 245.614 502.953 225.038L472.572 213.382Z" fill="#002E4F"/>
<path d="M491.474 215.101C497.445 215.142 503.549 214.115 508.684 211.327C506.96 204.054 510.633 182.594 515.244 171.125C515.244 171.125 518.881 163.141 516.331 160.687C506.897 151.614 498.868 152.357 496.372 152.256C487.712 159.566 471.598 181.138 472.244 209.648C476.697 214.325 485.735 215.063 491.474 215.101Z" fill="#80E0FF"/>
<path d="M549.974 300.222C553.427 299.262 556.737 297.666 558.861 294.841C548.622 278.232 511.069 217.227 509.036 212.451C508.984 212.328 508.936 212.186 508.888 212.047C503.374 215.02 496.794 216.067 490.415 215.821C484.859 215.607 476.815 214.828 472.278 210.715C472.29 211.01 472.292 211.301 472.306 211.597C473.091 227.521 525.913 280.616 546.701 300.918C547.844 300.753 548.955 300.503 549.974 300.222Z" fill="#00396A"/>
<path d="M440.93 198.59C439.463 198.59 438.055 198.38 436.708 197.928C433.915 196.995 430.221 194.642 428.475 188.754C427.481 185.4 429.394 181.875 432.747 180.882C436.099 179.886 439.621 181.803 440.616 185.154C440.733 185.544 440.842 185.794 440.92 185.94C441.595 185.969 444.103 185.749 450.207 182.163C455.66 178.961 462.111 174.188 468.35 169.574C478.89 161.773 488.847 154.409 497.068 151.808C500.4 150.751 503.959 152.602 505.014 155.934C506.07 159.27 504.222 162.827 500.89 163.881C494.68 165.846 485.124 172.919 475.881 179.754C462.351 189.761 450.418 198.59 440.93 198.59Z" fill="#FFCFD3"/>
<path d="M452.778 193.854C452.002 190.125 451.189 186.009 448.828 182.945C443.724 185.772 441.544 185.963 440.922 185.938C440.844 185.792 440.736 185.544 440.617 185.152C439.623 181.802 436.102 179.884 432.749 180.88C429.395 181.873 427.482 185.397 428.477 188.752C430.222 194.64 433.917 196.991 436.709 197.926C438.056 198.378 439.464 198.588 440.932 198.588C444.611 198.588 448.658 197.256 453.024 195.046C452.94 194.65 452.859 194.253 452.778 193.854Z" fill="#FFCFD3"/>
<path d="M505.016 155.931C503.96 152.599 500.401 150.747 497.069 151.805C488.847 154.405 478.892 161.769 468.351 169.57C462.112 174.185 455.661 178.958 450.208 182.159C449.96 182.308 449.725 182.437 449.487 182.573C451.854 185.701 455.951 201.128 456.024 201.48C462.737 197.967 494.942 173.452 501.923 166.051C504.326 163.51 506.071 159.266 505.016 155.931Z" fill="white"/>
<path d="M431.976 193.474C431.6 193.474 431.223 193.361 430.895 193.128C425.927 189.578 423.336 182.743 423.227 182.455C422.868 181.492 423.356 180.42 424.32 180.058C425.282 179.702 426.355 180.187 426.714 181.15C426.739 181.211 429.027 187.218 433.059 190.097C433.896 190.694 434.09 191.858 433.493 192.691C433.13 193.203 432.558 193.474 431.976 193.474Z" fill="#FFCFD3"/>
<path d="M431.979 188.934C431.393 188.934 430.819 188.66 430.457 188.145C428.079 184.778 426.175 176.777 425.965 175.879C425.733 174.878 426.355 173.875 427.358 173.642C428.362 173.402 429.362 174.032 429.595 175.035C430.119 177.287 431.842 183.647 433.498 185.996C434.092 186.836 433.891 187.999 433.051 188.59C432.727 188.823 432.351 188.934 431.979 188.934Z" fill="#FFCFD3"/>
<path d="M434.548 187.887C433.814 187.887 433.117 187.45 432.823 186.727C431.117 182.546 430.45 173.776 430.424 173.404C430.348 172.38 431.117 171.488 432.143 171.41C433.173 171.326 434.06 172.105 434.138 173.129C434.312 175.498 435.04 182.303 436.271 185.321C436.659 186.274 436.203 187.359 435.251 187.748C435.02 187.842 434.783 187.887 434.548 187.887Z" fill="#FFCFD3"/>
<path d="M437.343 186.988C436.512 186.988 435.758 186.432 435.54 185.592C434.368 181.042 435.435 176.401 435.483 176.208C435.72 175.207 436.726 174.588 437.724 174.821C438.723 175.058 439.343 176.059 439.11 177.06C439.09 177.148 438.218 181.047 439.148 184.66C439.404 185.658 438.804 186.674 437.808 186.929C437.652 186.972 437.495 186.988 437.343 186.988Z" fill="#FFCFD3"/>
<path d="M512.213 166.053C511.359 166.053 510.494 165.869 509.672 165.48C506.695 164.074 505.425 160.52 506.831 157.547C508.302 154.435 510.955 151.249 511.255 150.893C513.379 148.378 517.137 148.062 519.651 150.185C522.166 152.304 522.485 156.06 520.369 158.576C519.623 159.461 518.214 161.349 517.606 162.638C516.587 164.792 514.445 166.053 512.213 166.053Z" fill="#FFCFD3"/>
<path d="M513.071 162.986C513.776 163.765 514.516 164.498 515.285 165.196C516.261 164.612 517.082 163.745 517.604 162.64C518.212 161.351 519.621 159.463 520.367 158.578C522.484 156.062 522.164 152.306 519.649 150.187C517.133 148.064 513.377 148.38 511.253 150.895C511.136 151.037 510.651 151.619 510.017 152.458C510.072 156.212 510.465 160.113 513.071 162.986Z" fill="#FFC1C7"/>
<path d="M532.64 156.411C530.268 162.163 523.685 164.906 517.93 162.534C512.178 160.161 509.436 153.576 511.809 147.821L514.79 140.592C517.163 134.836 523.749 132.097 529.502 134.469C535.254 136.842 537.994 143.426 535.622 149.179L532.64 156.411Z" fill="#FFCFD3"/>
<path d="M513.069 146.98C512.153 150.851 506.592 149.611 504.504 147.587C501.627 144.804 499.91 136.931 506.284 137.351C501.693 130.419 517.268 122.901 518.903 130.912C520.119 128.845 521.363 126.989 524.073 126.814C526.024 126.69 529.439 128.199 529.156 130.588C532.053 128.298 536.272 128.476 539.137 130.789C540.054 131.531 541.706 133.178 540.879 134.38C540.424 135.041 538.078 135.245 537.292 135.485C538.647 134.871 544.198 136.109 543.106 138.415C542.597 139.49 539.882 138.524 539.086 138.296C539.086 138.296 539.078 138.547 539.086 138.537C542.051 140.162 543.272 141.812 542.916 145.501C542.752 147.197 541.95 150.403 539.931 150.645C538.897 150.767 537.703 150.115 537.721 149.032C540.198 151.503 536.69 158.121 533.562 154.859C532.336 153.58 532.926 151.434 534.089 150.329C532.24 149.265 528.226 143.64 531.081 142.134C529.746 142.167 523.567 140.069 525.532 138.292C526.052 140.354 523.499 143.023 521.467 141.964C522.731 144.713 519.015 146.765 516.732 146.863C518.13 148.621 513.822 150.708 512.507 148.158L513.069 146.98Z" fill="#00396A"/>
<path d="M301.387 124.493C301.387 124.493 297.77 110.65 315.709 107.361L314.343 123.995L301.387 124.493Z" fill="#80E0FF"/>
<path d="M229.506 159.447C225.578 159.447 221.927 158.653 218.56 157.059C202.264 149.36 200.454 126.225 200.386 125.244C200.141 121.755 202.77 118.727 206.258 118.482C209.74 118.239 212.763 120.856 213.016 124.339C213.37 128.993 216.031 141.881 223.998 145.624C230.578 148.713 240.783 145.569 253.512 136.527C256.363 134.501 260.316 135.174 262.341 138.023C264.366 140.877 263.694 144.828 260.843 146.855C249.035 155.238 238.545 159.447 229.506 159.447Z" fill="#CDE5E8"/>
<path d="M263.199 171.329C264.959 166.708 266.592 162.016 268.493 157.446C267.211 157.347 265.919 157.182 264.607 156.934C258.464 155.761 253.264 153.262 249.005 149.437C244.743 145.614 241.454 140.768 239.133 134.906C236.812 129.043 235.462 122.377 235.084 114.905C234.704 107.437 235.308 99.5517 236.893 91.248C238.509 82.7821 240.863 75.1897 243.954 68.466C247.045 61.7439 250.749 56.0839 255.069 51.4895C259.385 46.895 264.229 43.606 269.6 41.6206C274.967 39.6369 280.724 39.2282 286.867 40.4013C291.73 41.3311 296.013 43.1642 299.741 45.8709C301.536 42.289 303.465 38.7733 305.302 35.2658C307.471 31.118 309.486 26.8925 311.415 22.6306C312.239 20.8074 312.953 18.9312 313.701 17.07C307.476 13.5211 300.499 11.003 292.766 9.52395C281.808 7.43105 271.494 7.82813 261.825 10.7119C252.152 13.5989 243.448 18.4283 235.7 25.2066C227.952 31.9866 221.379 40.4972 215.984 50.7317C210.583 60.9712 206.684 72.4019 204.275 85.0156C201.864 97.6325 201.275 109.695 202.523 121.202C203.764 132.709 206.738 143.039 211.442 152.197C216.146 161.354 222.456 169.057 230.386 175.301C237.766 181.119 246.462 185.132 256.473 187.348C258.844 182.062 261.137 176.747 263.199 171.329Z" fill="#32CDD7"/>
<path d="M348.951 76.1345C347.705 64.6293 344.734 54.2955 340.032 45.1381C335.328 35.9806 329.013 28.2807 321.09 22.0334C318.956 20.3525 316.707 18.8271 314.356 17.4473C313.615 19.3069 312.905 21.1814 312.067 22.9963C310.101 27.2434 308.131 31.4838 305.953 35.6299C304.099 39.1588 302.151 42.6994 300.346 46.3078C300.988 46.7975 301.615 47.3071 302.221 47.8497C306.478 51.6765 309.81 56.5274 312.214 62.4057C314.618 68.284 316.019 74.9184 316.414 82.3073C316.808 89.6961 316.198 97.621 314.583 106.087C312.998 114.389 310.65 121.943 307.545 128.745C304.438 135.551 300.682 141.241 296.28 145.821C291.877 150.4 286.993 153.686 281.626 155.666C277.667 157.13 273.546 157.738 269.262 157.501C267.156 162.499 265.381 167.648 263.46 172.707C261.559 177.712 259.421 182.621 257.223 187.503C257.717 187.607 258.21 187.71 258.708 187.808C269.663 189.902 279.975 189.503 289.645 186.618C299.314 183.736 308.023 178.905 315.771 172.125C323.52 165.345 330.089 156.838 335.487 146.597C340.884 136.362 344.789 124.933 347.199 112.316C349.61 99.7057 350.192 87.6413 348.951 76.1345Z" fill="#80E0FF"/>
<path d="M278.056 194.386C267.1 192.291 257.658 188.12 249.733 181.876C241.803 175.634 235.493 167.929 230.791 158.772C226.086 149.614 223.113 139.284 221.87 127.775C220.625 116.272 221.214 104.209 223.622 91.5905C226.031 78.9768 229.931 67.5478 235.333 57.3083C240.728 47.0721 247.301 38.5599 255.049 31.7815C262.797 25.0032 271.501 20.1721 281.175 17.2868C290.843 14.403 301.156 14.0076 312.113 16.1005C323.067 18.1934 332.506 22.3627 340.434 28.6083C348.361 34.8572 354.674 42.5554 359.378 51.7129C364.083 60.8703 367.051 71.2041 368.299 82.7093C369.54 94.2178 368.957 106.28 366.547 118.894C364.136 131.511 360.233 142.938 354.836 153.175C349.436 163.416 342.868 171.923 335.12 178.703C327.372 185.483 318.663 190.314 308.995 193.196C299.323 196.078 289.012 196.479 278.056 194.386ZM283.956 163.51C289.932 164.65 295.602 164.231 300.972 162.243C306.339 160.262 311.225 156.975 315.627 152.397C320.027 147.818 323.784 142.128 326.891 135.323C329.998 128.52 332.344 120.967 333.929 112.665C335.547 104.197 336.158 96.2743 335.762 88.8838C335.368 81.4966 333.965 74.8605 331.565 68.9839C329.159 63.1039 325.825 58.2546 321.57 54.4279C317.308 50.6044 312.193 48.1194 306.218 46.9778C300.074 45.8031 294.318 46.2134 288.952 48.1955C283.58 50.1825 278.738 53.4699 274.42 58.066C270.1 62.6605 266.395 68.3204 263.306 75.0425C260.214 81.7663 257.862 89.3569 256.244 97.8245C254.657 106.127 254.055 114.013 254.434 121.482C254.812 128.955 256.161 135.617 258.484 141.483C260.803 147.344 264.092 152.192 268.354 156.014C272.61 159.839 277.811 162.337 283.956 163.51Z" fill="#3D65FF"/>
<path d="M389.753 101.406L390.236 124.683C390.236 124.683 383.589 130.641 377.634 124.683L379.83 98.4681L389.753 101.406Z" fill="#00396A"/>
<path d="M362.337 287.09C361.958 286.789 359.362 285.581 359.003 285.28C357.61 287.368 356.635 288.518 354.961 290.25C359.064 293.827 358.01 298.174 358.01 298.174C358.01 298.174 355.107 300.672 353.972 301.234C350.35 303.018 343.671 305.496 343.671 305.496L360.492 306.815L372.968 294.034C368.546 291.566 365.156 289.32 362.337 287.09Z" fill="#002E4F"/>
<path d="M296.433 288.002C293.754 287.534 290.372 289.585 288.194 288.002C287.687 292.681 287.785 295.234 287.785 295.234L262.898 305.496H294.681C294.967 302.11 294.36 298.859 294.816 295.722C295.048 294.109 296.14 289.555 296.433 288.002Z" fill="#002E4F"/>
<path d="M325.403 175.048L297.282 228.483C297.282 228.483 308.677 238.122 319.895 241.335L340.977 178.377L325.403 175.048Z" fill="white"/>
<path d="M356.196 291.589C357.884 289.863 359.275 287.805 360.663 285.714C353.388 279.48 349.83 273.057 339.946 262.002C335.856 257.426 346.689 231.226 349.32 226.831C354.045 218.935 354.776 213.209 358.471 199.692L331.007 209.951C324.47 233.368 316.853 256.791 324.49 267.961C332.559 279.773 346.878 289.286 353.789 294.036C354.052 294.215 355.966 291.414 356.196 291.589Z" fill="#002E4F"/>
<path d="M309.952 121.745C309.574 121.745 309.197 121.632 308.868 121.396C308.032 120.797 307.842 119.632 308.441 118.798C310.653 115.716 311.139 113.179 311.144 113.153C311.33 112.147 312.291 111.472 313.305 111.651C314.313 111.831 314.988 112.786 314.814 113.795C314.789 113.929 314.213 117.144 311.469 120.967C311.103 121.475 310.531 121.745 309.952 121.745Z" fill="#FFCFD3"/>
<path d="M329.244 195.033C334.917 183.695 342.023 169.863 347.746 158.796C350.655 153.17 353.208 148.259 355.032 144.755C355.945 143.003 356.675 141.602 357.178 140.64C357.429 140.159 357.623 139.787 357.754 139.536L357.904 139.25L357.942 139.178L357.951 139.159L357.953 139.155L357.954 139.154C357.954 139.153 357.954 139.153 357.511 138.921L357.954 139.153L357.992 139.082L358.005 139.002L329.244 195.033ZM329.244 195.033C338.591 197.173 347.739 200.258 356.244 204.646M329.244 195.033L356.244 204.646M356.244 204.646C364.243 182.437 371.073 148.143 373.723 133.938C372.417 133.416 371.15 133.016 370.124 132.731C368.907 132.396 367.605 132.04 366.303 131.861C365 131.682 363.733 131.685 362.587 132.041C361.445 132.398 360.412 132.978 359.369 133.628C358.895 135.068 358.557 136.391 358.336 137.365C358.221 137.871 358.138 138.282 358.084 138.566C358.057 138.708 358.037 138.818 358.024 138.892C358.017 138.929 358.012 138.957 358.009 138.976L358.006 138.996L358.005 139.001L358.005 139.002L358.005 139.002L356.244 204.646Z" fill="#32CDD7" stroke="#32CDD7"/>
<path d="M328.182 196.068C328.177 196.065 328.174 196.065 328.169 196.062C327.156 198.092 326.193 200.032 325.3 201.852H325.292C323.042 205.84 320.616 209.527 318.267 213.068C295.672 247.137 287.14 274.29 285.631 287.14C287.788 288.824 295.946 289.777 298.666 290.249C302.836 268.947 313.682 255.349 333.117 239.283C339.621 233.906 344.485 227.075 348.76 221.403C351.308 218.023 353.836 212.605 356.263 206.041C347.457 201.427 337.917 198.241 328.182 196.068Z" fill="#00396A"/>
<path d="M306.255 205.439C303.631 205.439 301.179 203.798 300.273 201.181C299.128 197.875 300.877 194.268 304.181 193.125C311.864 190.463 323.645 179.96 331.588 168.695C347.71 145.837 359.028 133.162 359.503 132.633C361.837 130.03 365.841 129.812 368.443 132.148C371.044 134.481 371.263 138.485 368.928 141.085C368.817 141.211 357.588 153.798 341.936 175.991C334.095 187.111 320.231 200.961 308.327 205.087C307.643 205.327 306.944 205.439 306.255 205.439Z" fill="#FFCFD3"/>
<path d="M369.843 135.726C369.697 135.726 369.55 135.72 369.401 135.71C366.12 135.468 363.654 132.614 363.894 129.33C364.145 125.899 365.474 121.97 365.626 121.531C366.7 118.421 370.091 116.77 373.203 117.843C376.312 118.915 377.963 122.304 376.893 125.414C376.517 126.509 375.884 128.778 375.779 130.199C375.551 133.334 372.937 135.723 369.843 135.726Z" fill="#32CDD7"/>
<path d="M371.587 129.44C372.641 130.651 373.791 131.728 375.009 132.714C375.437 131.964 375.712 131.116 375.78 130.199C375.884 128.779 376.518 126.511 376.893 125.414C377.964 122.304 376.311 118.916 373.204 117.843C370.623 116.952 367.855 117.941 366.369 120.077C366.918 123.442 369.667 127.234 371.587 129.44Z" fill="#FFC1C7"/>
<path d="M386.943 116.538C386.804 122.757 381.648 127.687 375.426 127.548C369.205 127.408 364.276 122.253 364.417 116.032L364.591 108.213C364.73 101.99 369.887 97.0616 376.107 97.2023C382.328 97.3429 387.257 102.497 387.118 108.719L386.943 116.538Z" fill="#FFCFD3"/>
<path d="M297.315 203.692C294.718 203.692 291.744 202.994 288.417 201.594C287.471 201.197 287.024 200.105 287.421 199.157C287.82 198.208 288.91 197.761 289.86 198.16C294.762 200.221 298.663 200.516 301.147 199.013C302.029 198.481 303.172 198.765 303.705 199.644C304.236 200.522 303.954 201.667 303.074 202.2C301.43 203.194 299.506 203.692 297.315 203.692Z" fill="#FFCFD3"/>
<path d="M299.546 206.399C296.583 206.399 294.205 205.823 291.5 205.168L290.661 204.968C289.66 204.728 289.043 203.723 289.285 202.722C289.523 201.725 290.529 201.101 291.53 201.346L292.377 201.549C296.894 202.641 299.878 203.366 306.481 201.659C307.482 201.404 308.493 202.001 308.75 202.997C309.006 203.995 308.407 205.011 307.411 205.269C304.23 206.089 301.73 206.399 299.546 206.399Z" fill="#FFCFD3"/>
<path d="M297.188 200.024C291.342 200.024 287.337 196.427 287.137 196.244C286.379 195.549 286.328 194.372 287.023 193.613C287.716 192.857 288.889 192.806 289.648 193.494C289.834 193.663 294.117 197.436 299.879 195.952C300.88 195.694 301.891 196.295 302.148 197.291C302.404 198.287 301.805 199.304 300.808 199.559C299.542 199.885 298.328 200.024 297.188 200.024Z" fill="#FFCFD3"/>
<path d="M301.09 198.024C301.017 198.024 300.945 198.017 300.872 198.01C294.529 197.268 291.949 192.701 291.843 192.508C291.349 191.606 291.678 190.474 292.58 189.978C293.475 189.487 294.601 189.809 295.101 190.703C295.189 190.855 296.947 193.802 301.304 194.313C302.326 194.432 303.057 195.357 302.937 196.378C302.827 197.322 302.023 198.024 301.09 198.024Z" fill="#FFCFD3"/>
<path d="M323.345 124.432C323.244 124.432 323.143 124.423 323.039 124.405C319.956 123.894 311.524 122.569 309.563 122.569C308.534 122.569 307.7 121.735 307.7 120.706C307.7 119.678 308.534 118.843 309.563 118.843C312.184 118.843 322.481 120.537 323.646 120.732C324.66 120.901 325.348 121.859 325.18 122.873C325.031 123.783 324.24 124.432 323.345 124.432Z" fill="#FFCFD3"/>
<path d="M322.153 128.341C321.99 128.341 321.825 128.319 321.661 128.275C321.572 128.25 312.717 125.839 308.598 125.606C307.57 125.548 306.786 124.668 306.844 123.641C306.902 122.613 307.789 121.804 308.809 121.888C313.321 122.145 322.267 124.58 322.644 124.683C323.637 124.954 324.219 125.977 323.948 126.969C323.723 127.798 322.972 128.341 322.153 128.341Z" fill="#FFCFD3"/>
<path d="M321.256 132.436C321.066 132.436 320.873 132.406 320.684 132.348C312.299 129.642 310.233 129.474 309.122 129.387C308.641 129.349 308.189 129.311 307.571 129.147C306.576 128.884 305.984 127.866 306.245 126.87C306.51 125.876 307.528 125.285 308.524 125.545C308.82 125.625 309.033 125.643 309.42 125.672C310.77 125.782 313.03 125.964 321.829 128.803C322.807 129.119 323.344 130.168 323.03 131.147C322.773 131.936 322.042 132.436 321.256 132.436Z" fill="#FFCFD3"/>
<path d="M317.572 135.419C317.529 135.419 317.483 135.416 317.438 135.412C309.04 134.812 308.691 130.252 308.68 129.734L312.404 129.646C312.404 129.646 312.409 129.603 312.394 129.526C312.397 129.545 312.781 131.347 317.705 131.7C318.729 131.771 319.502 132.663 319.429 133.687C319.358 134.669 318.542 135.419 317.572 135.419Z" fill="#FFCFD3"/>
<path d="M310.54 133.184C310.54 133.184 308.924 132.438 306.406 132.438C304.288 132.438 301.409 128.844 301.409 125.115C301.409 125.115 300.375 114.119 311.983 119.093L310.54 133.184Z" fill="#FFCFD3"/>
<path d="M347.095 165.868L330.821 245.987C330.821 245.987 356.022 252.059 371.48 243.156L375.389 131.835C375.389 131.835 358.092 125.782 347.095 165.868Z" fill="#80E0FF"/>
<path d="M350.861 209.951L366.45 209.114C366.45 209.114 366.824 232.951 357.512 232.021C357.512 232.021 344.77 234.806 350.861 209.951Z" fill="#EFF6FF"/>
<path d="M370.434 129.931C368.723 128.396 366.516 127.552 364.218 127.552C361.576 127.552 359.048 128.679 357.287 130.642C356.811 131.175 345.423 143.911 329.156 166.976C328.091 168.485 326.92 170.027 325.672 171.559L324.018 173.589L325.821 175.488C327.74 177.518 329.755 179.495 331.703 181.405C332.76 182.442 333.815 183.479 334.859 184.527L337.161 186.835L339.254 184.336C341.121 182.11 342.844 179.881 344.376 177.712C359.929 155.655 371.039 143.205 371.152 143.077C374.575 139.257 374.254 133.357 370.434 129.931Z" fill="white"/>
<path d="M327.677 166.398L321.387 173.4L337.773 188.121L344.063 181.119L327.677 166.398Z" fill="#F8FDFF"/>
<path d="M353.104 121.01L367.422 126.622C367.422 126.622 373.511 96.9988 369.067 92.5566C369.067 92.5566 353.104 91.0427 353.104 121.01Z" fill="#00396A"/>
<path d="M369.896 97.7136C370.404 98.4697 381.512 105.883 390.236 103.832C390.236 103.832 388.745 90.7367 368.382 92.6245L369.896 97.7136Z" fill="#00396A"/>
<path d="M378.473 111.679C378.473 115.119 375.685 117.905 372.246 117.905C368.808 117.905 366.02 115.119 366.02 111.679C366.02 108.241 368.808 105.453 372.246 105.453C375.685 105.455 378.473 108.241 378.473 111.679Z" fill="white" fill-opacity="0.32" stroke="#32CDD7" stroke-width="0.8679" stroke-miterlimit="10"/>
<path d="M392.536 112.9C392.536 115.891 390.112 118.317 387.121 118.317C384.129 118.317 381.706 115.891 381.706 112.9C381.706 109.909 384.131 107.485 387.121 107.485C390.112 107.485 392.536 109.909 392.536 112.9Z" fill="white" fill-opacity="0.32" stroke="#32CDD7" stroke-width="0.755" stroke-miterlimit="10"/>
<path d="M378.473 111.679C378.473 111.679 380.54 110.87 381.771 112.101L378.473 111.679Z" fill="white" fill-opacity="0.32"/>
<path d="M378.473 111.679C378.473 111.679 380.54 110.87 381.771 112.101" stroke="#32CDD7" stroke-width="0.8679" stroke-miterlimit="10"/>
<path d="M197.326 122.585C197.18 122.585 197.035 122.579 196.886 122.567C193.603 122.327 191.137 119.472 191.376 116.189C191.628 112.758 192.956 108.828 193.109 108.392C194.181 105.281 197.574 103.628 200.686 104.704C203.795 105.778 205.446 109.166 204.376 112.275C204 113.372 203.366 115.64 203.262 117.061C203.034 120.193 200.42 122.584 197.326 122.585Z" fill="#FFC1C7"/>
<path d="M193.789 287.966C203.66 292.522 211.758 292.428 212.412 292.522C218.848 281.07 238.233 250.059 220.596 224.608L195.652 211.2C195.652 211.2 220.596 237.227 193.789 287.966Z" fill="#002E4F"/>
<path d="M206.7 298.103C206.7 298.103 209.005 293.427 210.803 290.285C209.453 290.12 203.411 289.875 200.929 288.922C198.6 293.679 193.524 300.649 189.938 305.429H223.458L206.7 298.103Z" fill="#002E4F"/>
<path d="M248.166 226.099C243.997 218.007 213.72 193.64 210.975 179.645C210.734 178.407 210.525 177.135 210.345 175.831C205.483 178.404 199.169 179.102 194.168 179.357C188.494 179.645 185.103 179.997 179.613 177.325C180.078 186.011 178.665 194.396 183.731 203.196C193.787 220.652 227.201 235.6 230.928 241.368C238.277 252.749 240.82 277.453 243.322 292.524C247.256 292.524 256.584 292.352 260.417 290.992C259.125 283.262 261.225 251.448 248.166 226.099Z" fill="#00396A"/>
<path d="M258.601 296.749C258.601 296.749 257.514 292.342 257.188 290.287C253.353 291.635 251.121 290.277 247.175 290.287C247.772 294.026 247.33 301.013 247.676 305.113H279.458L258.601 296.749Z" fill="#002E4F"/>
<path d="M194.401 183.928C199.242 183.705 209.408 182.358 213.488 178.28C212.653 171.635 209.683 160.946 210.729 152.344C214.274 123.179 200.033 114.437 200.033 114.437C200.033 114.437 193.476 109.853 188.162 115.327C180.151 123.58 172.335 146.913 173.118 181.408C178.64 184.259 188.597 184.193 194.401 183.928Z" fill="#80E0FF"/>
<path d="M267.436 193.135C266.962 193.135 266.481 193.084 266 192.97C243.05 187.644 223.615 173.895 209.794 153.204C199.437 137.704 195.86 123.791 195.711 123.207C194.856 119.816 196.914 116.376 200.304 115.522C203.692 114.667 207.13 116.72 207.989 120.105C208.055 120.358 211.353 132.873 220.563 146.529C232.715 164.541 248.964 176.018 268.86 180.636C272.268 181.425 274.388 184.826 273.597 188.233C272.92 191.158 270.314 193.135 267.436 193.135Z" fill="#FFCFD3"/>
<path d="M253.487 174.112C240.842 168.124 230.078 158.634 221.491 145.902C212.393 132.414 209.104 119.95 209.074 119.831C208.236 116.523 205.268 114.21 201.859 114.21C201.247 114.21 200.632 114.286 200.033 114.439C198.104 114.923 196.479 116.133 195.458 117.84C194.437 119.548 194.143 121.551 194.629 123.48L194.661 123.618C195.64 127.88 199.555 142.871 208.866 156.805C220.01 173.492 235.132 185.981 252.595 192.928C252.728 192.979 252.868 193.006 253.009 193.006C253.229 193.006 253.449 192.941 253.636 192.812C253.942 192.606 254.126 192.26 254.126 191.887V175.119C254.124 174.688 253.876 174.296 253.487 174.112Z" fill="white"/>
<path d="M272.14 193.587C270.11 193.587 267.957 193.36 265.682 192.905C264.673 192.705 264.019 191.722 264.22 190.715C264.421 189.707 265.401 189.05 266.412 189.254C271.958 190.362 276.583 189.958 280.164 188.051C281.072 187.566 282.199 187.912 282.682 188.82C283.165 189.728 282.821 190.855 281.913 191.338C279.1 192.837 275.829 193.587 272.14 193.587Z" fill="#FFCFD3"/>
<path d="M272.402 189.419C271.515 189.419 270.602 189.361 269.675 189.226C268.658 189.077 267.953 188.13 268.102 187.113C268.251 186.095 269.192 185.391 270.213 185.539C276.169 186.411 281.683 183.319 281.74 183.288C282.633 182.78 283.77 183.087 284.279 183.979C284.789 184.871 284.484 186.006 283.594 186.519C283.359 186.65 278.472 189.419 272.402 189.419Z" fill="#FFCFD3"/>
<path d="M270.75 185.754C270.46 185.754 270.164 185.745 269.863 185.725C268.836 185.66 268.056 184.778 268.121 183.751C268.185 182.724 269.071 181.944 270.096 182.009C274.502 182.28 276.815 179.605 276.835 179.578C277.484 178.778 278.658 178.657 279.454 179.307C280.251 179.954 280.376 181.127 279.725 181.924C279.595 182.09 276.547 185.754 270.75 185.754Z" fill="#FFCFD3"/>
<path d="M264.31 182.613C263.283 182.613 262.447 181.779 262.447 180.751C262.447 179.727 263.276 178.893 264.3 178.89C264.467 178.887 268.144 178.802 270.248 175.771C270.835 174.924 271.995 174.718 272.839 175.303C273.684 175.887 273.895 177.049 273.307 177.894C270.069 182.561 264.542 182.613 264.31 182.613Z" fill="#FFCFD3"/>
<path d="M258.223 140.582C257.642 140.582 257.071 140.314 256.707 139.807C253.961 135.98 253.383 132.768 253.36 132.633C253.186 131.622 253.866 130.657 254.881 130.484C255.888 130.308 256.854 130.988 257.031 132.002C257.035 132.016 257.523 134.552 259.735 137.634C260.334 138.471 260.143 139.634 259.306 140.232C258.979 140.47 258.596 140.582 258.223 140.582Z" fill="#FFCFD3"/>
<path d="M258.611 141.407C258.495 141.407 258.374 141.397 258.257 141.373C254.183 140.591 246.1 140.583 246.019 140.583C244.991 140.583 244.157 139.749 244.157 138.721C244.157 137.694 244.991 136.86 246.019 136.86C246.364 136.86 254.537 136.87 258.958 137.717C259.967 137.907 260.631 138.884 260.435 139.894C260.267 140.786 259.486 141.407 258.611 141.407Z" fill="#FFCFD3"/>
<path d="M244.997 145.285C244.071 145.285 243.268 144.593 243.151 143.653C243.025 142.632 243.748 141.701 244.771 141.575C245.954 141.426 256.413 140.154 259.796 140.755C260.809 140.932 261.484 141.898 261.304 142.914C261.125 143.925 260.156 144.603 259.145 144.419C257.012 144.044 249.478 144.742 245.231 145.27C245.151 145.278 245.073 145.285 244.997 145.285Z" fill="#FFCFD3"/>
<path d="M247.417 149.495C246.544 149.495 245.763 148.878 245.591 147.986C245.396 146.975 246.057 145.999 247.068 145.806C251.58 144.937 252.783 144.552 254.967 143.847C255.989 143.518 257.263 143.111 259.161 142.558C260.147 142.273 261.182 142.843 261.467 143.829C261.753 144.818 261.184 145.852 260.196 146.137C258.352 146.673 257.159 147.058 256.107 147.394C253.861 148.119 252.503 148.554 247.771 149.465C247.652 149.485 247.533 149.495 247.417 149.495Z" fill="#FFCFD3"/>
<path d="M251.428 152.455C250.538 152.455 249.749 151.815 249.595 150.906C249.423 149.892 250.105 148.929 251.117 148.757C257.148 147.723 258.35 145.475 258.357 145.452C258.68 144.472 259.732 143.943 260.71 144.265C261.686 144.588 262.215 145.642 261.894 146.618C261.654 147.339 260.048 151.006 251.746 152.429C251.638 152.445 251.534 152.455 251.428 152.455Z" fill="#FFCFD3"/>
<path d="M258.607 150.213L257.188 135.035C257.188 135.035 263.845 135.52 263.832 142.497C263.827 144.826 263.155 147.421 258.607 150.213Z" fill="#FFCFD3"/>
<path d="M216.7 100.766C218.38 107.119 214.592 113.635 208.237 115.314C201.88 116.995 195.367 113.208 193.684 106.853L191.572 98.8636C189.891 92.5088 193.679 85.9935 200.034 84.3126C206.391 82.63 212.904 86.4187 214.587 92.7751L216.7 100.766Z" fill="#FFCFD3"/>
<path d="M215.583 96.5439C214.68 99.0654 213.399 101.562 211.434 103.261C206.642 107.396 199.296 108.511 193.468 106.032L193.685 106.856C195.367 113.211 201.881 116.998 208.237 115.317C214.592 113.638 218.381 107.121 216.7 100.769L215.583 96.5439Z" fill="#00396A"/>
<path d="M193.65 106.414C189.179 103.544 184.352 92.6344 191.413 90.247C195.782 88.7696 194.022 102.237 194.022 106.044L193.65 106.414Z" fill="#00396A"/>
<path d="M190.061 91.1455C184.658 87.231 191.353 76.156 204.705 76.156C212.956 76.156 212.896 82.4777 207.19 85.8892C202.455 88.72 195.111 87.0622 191.553 91.8883L190.061 91.1455Z" fill="#00396A"/>
<path d="M215.58 98.9861C213.689 96.1172 209.961 90.3051 208.512 87.0342C207.592 84.9562 206.333 81.4123 210.496 83.9288C213.98 86.0349 215.873 93.4635 215.545 97.229L215.58 98.9861Z" fill="#00396A"/>
<path d="M121.24 125.467C119.185 127.37 116.923 129.142 115.07 131.261L88.1885 187.415L108.201 161.584L129.456 117.648C126.736 120.274 124.016 122.901 121.24 125.467Z" fill="#EFF6FF"/>
<path d="M105.295 116.249C107.245 113.582 109.121 110.448 111.338 107.693L64.287 84.7211L19.6445 89.1898L97.866 125.26C100.432 122.335 103.01 119.374 105.295 116.249Z" fill="#80E0FF"/>
<path d="M112.011 108.021C109.509 111.151 107.481 114.832 105.08 117.754C102.924 120.378 100.762 122.997 98.5498 125.576L134.111 141.974L147.022 125.115L112.011 108.021Z" fill="#32CDD7"/>
<path d="M58.4622 173.184L72.2555 144.373L0 109.785L11.6044 85.5483L130.59 15.4734L163.059 31.0171L115.333 130.709L134.998 140.124L121.645 168.017L101.98 158.605L88.188 187.415L58.4622 173.184ZM111.987 61.3749L110.159 60.4997L46.5087 97.7616L85.6087 116.48L111.987 61.3749Z" fill="#3D65FF"/>
<path d="M134.996 140.124L147.02 125.113L137.585 146.034L121.199 168.922L134.996 140.124Z" fill="#EFF6FF"/>
<path d="M130.392 116.811L177.312 13.9563L163.057 31.0188L115.331 130.71C116.663 129.426 129.632 117.571 130.392 116.811Z" fill="#13B8C2"/>
<path d="M11.6025 85.5482L32.8062 67.091L149.069 0.36145L130.588 15.4733L11.6025 85.5482Z" fill="#32CDD7"/>
<path d="M130.589 15.4733L163.058 31.0171L177.314 13.9562L149.069 0.36145L130.589 15.4733Z" fill="#32CDD7"/>
<path d="M90.7406 90.601C86.7468 87.7619 83.997 89.0044 82.0795 89.3022C79.9783 89.6265 78.4248 88.4799 78.4165 88.475C77.5545 87.9158 76.3997 88.1623 75.8405 89.0243C75.2796 89.8862 75.5278 91.0411 76.3898 91.6003C76.4775 91.6582 78.1022 92.6906 80.9412 93.4351C77.8441 96.2576 74.6873 99.6675 74.5103 99.8577C73.8121 100.612 73.8585 101.792 74.6146 102.488C74.9719 102.819 75.4252 102.983 75.8769 102.983C76.3799 102.983 76.8779 102.781 77.2452 102.384C77.2799 102.346 79.482 99.9719 81.9389 97.6043C79.6574 100.46 77.5165 103.428 77.126 103.976C76.5271 104.811 76.719 105.974 77.5545 106.575C77.8821 106.811 78.2627 106.922 78.6382 106.922C79.2173 106.922 79.7881 106.653 80.1521 106.146C81.3697 104.446 83.0904 102.146 84.7333 100.083C84.1228 101.29 83.3468 102.659 81.7949 105.157C81.2523 106.032 81.5186 107.179 82.3922 107.721C82.6983 107.912 83.0391 108.001 83.3733 108.001C83.997 108.001 84.6042 107.69 84.9583 107.121C85.5969 106.092 86.1114 105.241 86.5433 104.508C86.219 105.317 86.4986 106.267 87.2563 106.762C87.569 106.967 87.9214 107.063 88.2705 107.063C88.8794 107.063 89.4766 106.763 89.8323 106.216C91.5778 103.531 92.4232 101.34 92.7872 99.6145L92.8633 99.6724C93.9007 94.4377 92.64 91.9494 90.7406 90.601ZM87.0115 103.703C87.6269 102.621 88.0488 101.802 88.4426 100.986C88.1084 101.78 87.6402 102.684 87.0115 103.703Z" fill="#FFCFD3"/>
<path d="M33.7057 111.722C27.8108 111.388 19.2556 122.929 28.0077 126.069C20.0845 125.883 18.1455 137.083 25.4102 140.175C12.6907 137.7 14.1698 154.184 20.1871 160.148C16.1088 159.495 11.9875 163.393 12.6046 167.635C13.2267 171.906 14.9209 177.829 25.4896 181.003C36.0617 184.176 42.5223 178.233 47.7819 172.629C51.1487 179.509 67.7927 170.212 65.9463 161.981C72.2266 164.208 77.8534 157.079 77.9792 151.386C78.1016 145.829 74.2103 141.585 70.5076 137.977C73.1151 135.589 73.6097 131.16 72.9231 127.777C71.7832 122.155 64.7451 121.597 64.7451 117.124C64.7451 115.559 65.0462 110.695 63.7111 108.559C61.5884 105.159 57.8907 101.795 53.2416 103.456C33.7057 94.1912 33.7057 111.722 33.7057 111.722Z" fill="#00396A"/>
<path d="M45.0976 292.522C39.7256 291.585 38.8586 291.853 33.5511 290.556L21.2617 305.576H68.9335L41.2493 298.127L45.0976 292.522Z" fill="#002E4F"/>
<path d="M133.861 296.827L131.044 293.127C128.501 294.772 125.854 296.178 122.981 297.176L130.509 305.577H158.443L133.861 296.827Z" fill="#002E4F"/>
<path d="M28.501 292.57C33.8416 293.878 39.1806 295.238 44.5873 296.157L83.9537 247.725L77.2498 228.482L49.6881 196.702L57.6278 241.741L28.501 292.57Z" fill="#002E4F"/>
<path d="M82.0414 183.365C71.241 180.5 56.5974 184.125 46.0898 188.089C46.0898 188.089 52.5356 213.749 56.7661 221.405C69.0886 243.692 122.387 299.317 122.387 299.317C125.314 298.321 130.954 294.191 133.535 292.522L82.0414 183.365Z" fill="#00396A"/>
<path d="M44.6609 198.126C55.0906 194.21 76.0113 187.605 86.7472 190.287C86.7472 190.287 72.5287 156.89 66.0763 149.523C61.7201 144.553 37.9404 130.559 37.9404 148.855C37.9404 173.921 44.6609 198.126 44.6609 198.126Z" fill="#80E0FF"/>
<path d="M53.9302 147.295C53.7912 147.343 53.6523 147.386 53.5067 147.427C50.3301 148.284 47.0609 146.403 46.2022 143.226C45.3055 139.904 45.2641 135.755 45.2608 135.293C45.2459 132.001 47.9046 129.322 51.1954 129.309C54.4845 129.294 57.1614 131.948 57.1796 135.235C57.1879 136.395 57.3384 138.744 57.7074 140.118C58.528 143.155 56.8503 146.274 53.9302 147.295Z" fill="#FFC1C7"/>
<path d="M57.9062 141.403C57.8847 140.976 57.8251 140.546 57.7093 140.118C57.3387 138.744 57.1898 136.395 57.1815 135.235C57.1633 131.949 54.4864 129.296 51.1973 129.309C47.9066 129.322 45.2479 131.999 45.2628 135.293C45.2628 135.368 45.2661 135.548 45.271 135.798C48.2061 139.113 53.0454 140.673 57.9062 141.403Z" fill="#FFC1C7"/>
<path d="M63.7328 123.538C65.6553 129.456 62.4158 135.811 56.4978 137.737C50.5798 139.656 44.2233 136.418 42.3008 130.5L39.8853 123.062C37.9628 117.144 41.2022 110.787 47.1186 108.866C53.0366 106.942 59.3931 110.182 61.3156 116.1L63.7328 123.538Z" fill="#FFCFD3"/>
<path d="M130.092 117.559C129.856 117.36 129.583 117.24 129.302 117.177C129.573 116.881 129.864 116.561 130.203 116.194C130.9 115.436 130.852 114.258 130.096 113.562C130.001 113.476 129.904 113.401 129.798 113.338C130.317 112.592 130.231 111.562 129.548 110.921C129.019 110.427 128.281 110.307 127.644 110.537C128.493 109.68 129.02 109.085 129.083 109.012C129.763 108.241 129.689 107.063 128.916 106.383C128.145 105.703 126.967 105.777 126.289 106.55C126.246 106.598 122.196 111.163 118.033 113.537C116.226 110.805 113.803 109.847 113.664 109.795C112.709 109.432 111.653 109.912 111.28 110.862C110.907 111.811 111.382 112.888 112.327 113.271C112.41 113.304 113.832 113.908 114.939 115.61C114.785 116.032 114.608 116.631 114.506 117.332C87.1012 154.425 50.7625 141.259 49.1163 140.634C45.8603 139.386 42.2056 141.003 40.9432 144.257C39.6776 147.518 41.2973 151.186 44.5583 152.448C45.0016 152.62 53.8977 156.004 66.5841 156.004C69.1353 156.004 71.842 155.868 74.6613 155.539C88.342 153.952 108.574 146.07 124.744 125.236C125.008 125.083 125.384 124.852 125.879 124.491C126.211 124.276 126.547 124.041 126.889 123.757L126.846 123.723C127.803 122.919 128.982 121.779 130.322 120.181C130.984 119.392 130.88 118.217 130.092 117.559Z" fill="#FFCFD3"/>
<path d="M79.6427 140.731L78.0991 141.064C74.3368 141.874 70.4406 142.288 66.5195 142.288C56.912 142.288 50.2396 139.864 49.5166 139.59C48.6579 139.26 47.7595 139.095 46.8496 139.095C43.7491 139.095 41.0242 140.96 39.9025 143.852C39.1828 145.706 39.0554 147.816 40.0315 149.548C43.668 156 53.6544 158.609 66.5857 158.609C69.3354 158.609 72.0951 158.451 74.7902 158.141C76.438 157.951 78.1686 157.666 79.9323 157.294L81.0159 157.01C81.0159 157.01 79.4657 152.308 79.1348 147.531C79.0091 145.714 79.6427 140.731 79.6427 140.731Z" fill="white"/>
<path d="M39.6346 129.041C43.5457 126.556 44.8974 121.9 44.4673 117.245C47.897 119.551 50.6103 118.145 52.7528 114.182C59.2516 123.288 69.1552 109.74 55.6498 104.834C44.8478 100.91 34.2592 111.593 37.0271 122.337L39.6346 129.041Z" fill="#00396A"/>
</svg>
