<svg width="1312" height="401" viewBox="0 0 1312 401" fill="none" xmlns="http://www.w3.org/2000/svg">
<g clip-path="url(#clip0_285_13136)">
<g clip-path="url(#clip1_285_13136)">
<g clip-path="url(#clip2_285_13136)">
<path d="M1292 0H0V400.457H1292V0Z" fill="#3D65FF"/>
<mask id="mask0_285_13136" style="mask-type:alpha" maskUnits="userSpaceOnUse" x="0" y="0" width="1312" height="401">
<path d="M1312 0.120117H0V400.12H1312V0.120117Z" fill="#3D65FF"/>
</mask>
<g mask="url(#mask0_285_13136)">
<path d="M303.158 439.493L-216.409 731.878C-304.013 781.177 -335.065 892.158 -285.766 979.761C-236.468 1067.36 -125.487 1098.42 -37.8832 1049.12L1103.55 406.782C1289.7 302.022 1355.69 66.1873 1250.93 -119.97L1218.84 -176.99C1131.81 -331.656 935.865 -386.479 781.199 -299.441C700.794 -254.193 643.716 -176.568 624.498 -86.3294L597.874 38.6835C561.729 208.4 454.38 354.393 303.158 439.493Z" fill="#80E0FF"/>
</g>
</g>
</g>
<path d="M489.348 664.289L-30.2192 956.674C-117.823 1005.97 -148.875 1116.96 -99.5766 1204.56C-50.2776 1292.16 60.7033 1323.21 148.307 1273.92L1289.74 631.578C1475.9 526.818 1541.88 290.983 1437.12 104.826L1405.04 47.807C1318 -106.86 1122.06 -161.683 967.389 -74.6447C886.983 -29.3968 829.905 48.2283 810.687 138.467L784.063 263.48C747.919 433.196 640.57 579.189 489.348 664.289Z" fill="#32CDD7"/>
</g>
<defs>
<clipPath id="clip0_285_13136">
<path d="M0 32C0 14.3269 14.3269 0 32 0H1280C1297.67 0 1312 14.3269 1312 32V369C1312 386.673 1297.67 401 1280 401H32C14.3269 401 0 386.673 0 369V32Z" fill="white"/>
</clipPath>
<clipPath id="clip1_285_13136">
<rect width="1292" height="401" fill="white"/>
</clipPath>
<clipPath id="clip2_285_13136">
<rect width="1312" height="401" fill="white"/>
</clipPath>
</defs>
</svg>
