<svg width="20" height="20" viewBox="0 0 20 20" fill="none" xmlns="http://www.w3.org/2000/svg">
<g clip-path="url(#clip0_442_5224)">
<path fill-rule="evenodd" clip-rule="evenodd" d="M8.65733 2.02773C7.50001 2.02773 6.42759 2.63854 5.69353 3.63615C5.56122 3.81597 5.35767 3.93457 5.13444 3.93785C4.64085 3.94511 4.32589 3.42752 4.63067 3.03921C5.67921 1.70333 7.23705 1.00391 8.60551 1.00002C10.1707 0.995575 11.9572 1.72286 13.0569 3.09588C13.3502 3.46217 13.055 3.95362 12.5857 3.95373C12.3787 3.95378 12.1867 3.85063 12.0583 3.68816C11.0883 2.46089 9.84337 2.02773 8.65733 2.02773Z" fill="#05093E" fill-opacity="0.3"/>
<path fill-rule="evenodd" clip-rule="evenodd" d="M2.17528 6.17004L0.823734 17.6598C0.739818 18.3732 1.29721 19 2.01552 19H16.1999C16.2006 19 16.2013 19 16.202 19H7.01414C6.53418 19 6.16224 18.5803 6.21994 18.1039L7.39654 8.38625C7.44518 7.98455 7.7861 7.68241 8.19074 7.68241H16.218L16.0401 6.17004C15.969 5.5657 15.4568 5.11023 14.8483 5.11023H3.36706C2.75855 5.11023 2.24637 5.5657 2.17528 6.17004Z" fill="#05093E" fill-opacity="0.3"/>
<path d="M15.8274 16H10.5599L11.0432 11.7113H15.344L15.8274 16Z" stroke="#05093E" stroke-opacity="0.3" stroke-width="6"/>
<path fill-rule="evenodd" clip-rule="evenodd" d="M14.5397 12.4238C14.8275 12.1338 15.0463 11.7185 15.1155 11.1573C15.1418 10.944 15.3127 10.7691 15.5276 10.7691C15.7424 10.7691 15.9187 10.9437 15.8991 11.1577C15.8239 11.9749 15.5114 12.6246 15.0566 13.0829C14.539 13.6044 13.8599 13.8557 13.1935 13.8557C12.5271 13.8557 11.8479 13.6044 11.3303 13.0829C10.8755 12.6246 10.5631 11.9749 10.4879 11.1577C10.4682 10.9437 10.6445 10.7691 10.8594 10.7691C11.0742 10.7691 11.2452 10.944 11.2714 11.1573C11.3406 11.7185 11.5595 12.1338 11.8472 12.4238C12.2049 12.7842 12.6928 12.9738 13.1935 12.9738C13.6941 12.9738 14.182 12.7841 14.5397 12.4238Z" fill="white"/>
</g>
<defs>
<clipPath id="clip0_442_5224">
<rect width="20" height="20" fill="white"/>
</clipPath>
</defs>
</svg>
