<svg width="20" height="20" viewBox="0 0 20 20" fill="none" xmlns="http://www.w3.org/2000/svg">
<g clip-path="url(#clip0_285_17218)">
<path fill-rule="evenodd" clip-rule="evenodd" d="M3.66667 2.08333C3.66667 1.20888 4.37553 0.5 5.25 0.5H9.47222C10.3467 0.5 11.0556 1.20888 11.0556 2.08333H12.6389C13.5134 2.08333 14.2222 2.79219 14.2222 3.66667V17.9167C14.2222 18.7911 13.5134 19.5 12.6389 19.5H2.08333C1.20888 19.5 0.5 18.7911 0.5 17.9167V3.66667C0.5 2.79219 1.20888 2.08333 2.08333 2.08333H3.66667ZM5.25 1.55556C4.95851 1.55556 4.72222 1.79185 4.72222 2.08333V3.13889C4.72222 3.43038 4.95851 3.66667 5.25 3.66667H9.47222C9.76371 3.66667 10 3.43038 10 3.13889V2.08333C10 1.79185 9.76371 1.55556 9.47222 1.55556H5.25ZM4.72222 6.83333V8.41667H3.13889V9.47222H4.72222V11.0556H5.77778V9.47222H7.36111V8.41667H5.77778V6.83333H4.72222ZM3.66667 12.6389C3.37517 12.6389 3.13889 12.8752 3.13889 13.1667C3.13889 13.4582 3.37517 13.6944 3.66667 13.6944H11.0556C11.347 13.6944 11.5833 13.4582 11.5833 13.1667C11.5833 12.8752 11.347 12.6389 11.0556 12.6389H3.66667ZM3.13889 15.8056C3.13889 15.5141 3.37517 15.2778 3.66667 15.2778H11.0556C11.347 15.2778 11.5833 15.5141 11.5833 15.8056C11.5833 16.097 11.347 16.3333 11.0556 16.3333H3.66667C3.37517 16.3333 3.13889 16.097 3.13889 15.8056Z" fill="#05093E" fill-opacity="0.3"/>
<path d="M16.3333 6.83333C16.3333 5.95886 17.0422 5.25 17.9167 5.25C18.7911 5.25 19.5 5.95886 19.5 6.83333V8.41667H16.3333V6.83333Z" fill="#05093E" fill-opacity="0.3"/>
<path d="M16.3333 17.3889V9.47222H19.5V17.3889L17.9167 19.5L16.3333 17.3889Z" fill="#05093E" fill-opacity="0.3"/>
</g>
<defs>
<clipPath id="clip0_285_17218">
<rect width="20" height="20" fill="white"/>
</clipPath>
</defs>
</svg>
