<svg width="3" height="4" viewBox="0 0 3 4" fill="none" xmlns="http://www.w3.org/2000/svg">
<path d="M1.49683 3.424C1.27283 3.424 1.06283 3.37267 0.866828 3.27C0.670828 3.158 0.512162 3.004 0.390828 2.808C0.278828 2.612 0.222828 2.388 0.222828 2.136C0.222828 1.89333 0.278828 1.67867 0.390828 1.492C0.512162 1.296 0.670828 1.142 0.866828 1.03C1.06283 0.918 1.27283 0.862 1.49683 0.862C1.73016 0.862 1.94016 0.918 2.12683 1.03C2.32283 1.142 2.47683 1.296 2.58883 1.492C2.70083 1.67867 2.75683 1.89333 2.75683 2.136C2.75683 2.388 2.70083 2.612 2.58883 2.808C2.47683 3.004 2.32283 3.158 2.12683 3.27C1.94016 3.37267 1.73016 3.424 1.49683 3.424Z" fill="#05093E" fill-opacity="0.3"/>
</svg>
