<svg width="20" height="20" viewBox="0 0 20 20" fill="none" xmlns="http://www.w3.org/2000/svg">
<path d="M13.825 7.91663H12.5V3.74996C12.5 3.29163 12.125 2.91663 11.6667 2.91663H8.33335C7.87502 2.91663 7.50002 3.29163 7.50002 3.74996V7.91663H6.17502C5.43335 7.91663 5.05835 8.81663 5.58335 9.34163L9.40835 13.1666C9.73335 13.4916 10.2584 13.4916 10.5834 13.1666L14.4084 9.34163C14.9334 8.81663 14.5667 7.91663 13.825 7.91663ZM4.16669 16.25C4.16669 16.7083 4.54169 17.0833 5.00002 17.0833H15C15.4584 17.0833 15.8334 16.7083 15.8334 16.25C15.8334 15.7916 15.4584 15.4166 15 15.4166H5.00002C4.54169 15.4166 4.16669 15.7916 4.16669 16.25Z" fill="#05093E" fill-opacity="0.3"/>
</svg>
