<svg width="20" height="20" viewBox="0 0 20 20" fill="none" xmlns="http://www.w3.org/2000/svg">
<path d="M14.3333 10H15.85C16.0224 10 16.1877 10.0672 16.3096 10.1867C16.4315 10.3063 16.5 10.4684 16.5 10.6375V17.8625C16.5 18.0316 16.4315 18.1937 16.3096 18.3133C16.1877 18.4328 16.0224 18.5 15.85 18.5H4.15C3.97761 18.5 3.81228 18.4328 3.69038 18.3133C3.56848 18.1937 3.5 18.0316 3.5 17.8625V10.6375C3.5 10.4684 3.56848 10.3063 3.69038 10.1867C3.81228 10.0672 3.97761 10 4.15 10H5.66667M14.3333 10V5.75C14.3333 4.33369 13.4667 1.5 10 1.5C6.53333 1.5 5.66667 4.33369 5.66667 5.75V10M14.3333 10H5.66667" stroke="#3D65FF" stroke-width="1.5" stroke-linecap="round" stroke-linejoin="round"/>
</svg>
