<svg width="20" height="20" viewBox="0 0 20 20" fill="none" xmlns="http://www.w3.org/2000/svg">
<path d="M3.07692 19C1.92987 19 1 18.0701 1 16.9231L0.999999 3.07692C0.999999 1.92987 1.92987 1 3.07692 1L16.9231 0.999999C18.0701 0.999999 19 1.92987 19 3.07692L19 16.9231C19 18.0701 18.0701 19 16.9231 19L3.07692 19ZM7.66431 9.51046C7.39395 9.78083 7.39395 10.2192 7.66431 10.4895L11.3566 14.1818C11.627 14.4522 12.0653 14.4522 12.3357 14.1818C12.6061 13.9115 12.6061 13.4731 12.3357 13.2028L9.82522 10.6923L15.5385 10.6923C15.9208 10.6923 16.2308 10.3824 16.2308 10C16.2308 9.61765 15.9208 9.30769 15.5385 9.30769L9.82522 9.30769L12.3357 6.79723C12.6061 6.52686 12.6061 6.08852 12.3357 5.81816C12.0653 5.54779 11.627 5.54779 11.3566 5.81816L7.66431 9.51046ZM4.69231 13.6923C4.69231 14.0747 5.00226 14.3846 5.38462 14.3846C5.76697 14.3846 6.07692 14.0747 6.07692 13.6923L6.07692 6.30769C6.07692 5.92534 5.76697 5.61538 5.38461 5.61538C5.00226 5.61538 4.69231 5.92534 4.69231 6.30769L4.69231 13.6923Z" fill="#05093E" fill-opacity="0.3"/>
</svg>
