<svg width="20" height="20" viewBox="0 0 20 20" fill="none" xmlns="http://www.w3.org/2000/svg">
<path d="M16.4 3.5H3.6C2.72 3.5 2 4.23125 2 5.125V14.875C2 15.7688 2.72 16.5 3.6 16.5H16.4C17.28 16.5 18 15.7688 18 14.875V5.125C18 4.23125 17.28 3.5 16.4 3.5ZM16.08 6.95312L10.848 10.2762C10.328 10.6094 9.672 10.6094 9.152 10.2762L3.92 6.95312C3.83978 6.90739 3.76954 6.8456 3.71351 6.77149C3.65749 6.69739 3.61685 6.61251 3.59406 6.52199C3.57127 6.43147 3.5668 6.3372 3.58093 6.24487C3.59505 6.15255 3.62747 6.0641 3.67623 5.98487C3.72498 5.90564 3.78906 5.83728 3.86458 5.78393C3.9401 5.73058 4.0255 5.69335 4.1156 5.67449C4.2057 5.65563 4.29863 5.65554 4.38876 5.67421C4.4789 5.69288 4.56437 5.72993 4.64 5.78312L10 9.1875L15.36 5.78312C15.4356 5.72993 15.5211 5.69288 15.6112 5.67421C15.7014 5.65554 15.7943 5.65563 15.8844 5.67449C15.9745 5.69335 16.0599 5.73058 16.1354 5.78393C16.2109 5.83728 16.275 5.90564 16.3238 5.98487C16.3725 6.0641 16.405 6.15255 16.4191 6.24487C16.4332 6.3372 16.4287 6.43147 16.4059 6.52199C16.3832 6.61251 16.3425 6.69739 16.2865 6.77149C16.2305 6.8456 16.1602 6.90739 16.08 6.95312Z" fill="#05093E" fill-opacity="0.3"/>
</svg>
