<svg width="20" height="20" viewBox="0 0 20 20" fill="none" xmlns="http://www.w3.org/2000/svg">
<path d="M5.20833 8.54163V5.83329C5.20833 3.18692 7.35366 1.04163 10 1.04163C12.6463 1.04163 14.7917 3.18692 14.7917 5.83329V8.54163H16.6667C17.4721 8.54163 18.125 9.19454 18.125 9.99996V17.5C18.125 18.3054 17.4721 18.9583 16.6667 18.9583H3.33333C2.52792 18.9583 1.875 18.3054 1.875 17.5V9.99996C1.875 9.19454 2.52792 8.54163 3.33333 8.54163H5.20833ZM6.45833 5.83329V8.54163H13.5417V5.83329C13.5417 3.87729 11.956 2.29163 10 2.29163C8.04401 2.29163 6.45833 3.87729 6.45833 5.83329ZM10 11.875C9.65482 11.875 9.375 12.1548 9.375 12.5V15C9.375 15.3451 9.65482 15.625 10 15.625C10.3452 15.625 10.625 15.3451 10.625 15V12.5C10.625 12.1548 10.3452 11.875 10 11.875Z" fill="#05093E" fill-opacity="0.3"/>
</svg>
