<svg width="17" height="16" viewBox="0 0 17 16" fill="none" xmlns="http://www.w3.org/2000/svg">
<path id="Vector" d="M1.14769 7.99927H15.7549C15.8471 7.99927 15.9356 7.96415 16.0008 7.90165C16.0661 7.83914 16.1027 7.75436 16.1027 7.66597V5.33285C16.1028 5.24528 16.0848 5.15856 16.0499 5.07764C16.015 4.99671 15.9638 4.92317 15.8992 4.86122L11.0302 0.194982C10.9655 0.133098 10.8888 0.084027 10.8043 0.0505713C10.7199 0.0171156 10.6294 -6.8651e-05 10.538 2.06113e-07H2.19106C1.8221 2.06113e-07 1.46825 0.140463 1.20736 0.390489C0.946463 0.640514 0.799895 0.979622 0.799895 1.33321V7.66597C0.799895 7.75436 0.836537 7.83914 0.90176 7.90165C0.966984 7.96415 1.05545 7.99927 1.14769 7.99927ZM10.538 1.66651L14.3637 5.33285H10.538V1.66651ZM16.7983 10.7099C16.7827 10.8812 16.7001 11.0406 16.5671 11.156C16.4341 11.2714 16.2604 11.3344 16.081 11.3323H14.0159V12.6655H15.3836C15.5631 12.6632 15.7369 12.7261 15.87 12.8416C16.0031 12.9571 16.0856 13.1165 16.101 13.288C16.1073 13.3791 16.094 13.4706 16.0618 13.5566C16.0297 13.6427 15.9795 13.7215 15.9143 13.7881C15.849 13.8548 15.7702 13.9079 15.6827 13.9441C15.5951 13.9803 15.5007 13.9989 15.4054 13.9987H14.0159V15.3094C14.0184 15.4815 13.9527 15.648 13.8322 15.7755C13.7117 15.9031 13.5453 15.9821 13.3664 15.9969C13.2713 16.0029 13.1759 15.9902 13.0861 15.9594C12.9963 15.9286 12.9141 15.8805 12.8445 15.818C12.775 15.7554 12.7196 15.6799 12.6818 15.596C12.644 15.5121 12.6246 15.4216 12.6248 15.3303V10.6657C12.6248 10.4889 12.6981 10.3193 12.8285 10.1943C12.959 10.0693 13.1359 9.99908 13.3204 9.99908H16.1027C16.198 9.99888 16.2924 10.0175 16.38 10.0537C16.4675 10.0899 16.5464 10.143 16.6116 10.2097C16.6768 10.2763 16.727 10.3551 16.7592 10.4412C16.7913 10.5272 16.8046 10.6187 16.7983 10.7099ZM2.88664 9.99908H1.49548C1.311 9.99908 1.13407 10.0693 1.00363 10.1943C0.873179 10.3193 0.799895 10.4889 0.799895 10.6657V15.3094C0.797034 15.4817 0.862475 15.6487 0.983016 15.7766C1.10356 15.9045 1.27022 15.9838 1.44939 15.9985C1.54454 16.0046 1.63997 15.9918 1.72975 15.9611C1.81954 15.9303 1.90176 15.8821 1.97131 15.8196C2.04087 15.7571 2.09627 15.6816 2.13407 15.5977C2.17187 15.5138 2.19127 15.4233 2.19106 15.3319V14.6653H2.83447C4.15955 14.6653 5.28118 13.6721 5.32031 12.403C5.3302 12.0908 5.27457 11.7799 5.15672 11.4886C5.03886 11.1974 4.86118 10.9318 4.63422 10.7076C4.40725 10.4834 4.13561 10.3052 3.83542 10.1835C3.53523 10.0617 3.21259 9.99905 2.88664 9.99908ZM2.85621 13.3321H2.19106V11.3323H2.88664C3.03257 11.3316 3.17703 11.3603 3.31067 11.4165C3.44431 11.4727 3.56417 11.5551 3.6625 11.6585C3.76083 11.7618 3.83544 11.8838 3.88152 12.0165C3.9276 12.1492 3.94412 12.2897 3.93001 12.4289C3.89966 12.6802 3.77299 12.9117 3.57459 13.0786C3.37618 13.2455 3.12017 13.3359 2.85621 13.3321ZM8.45129 9.99908H7.06013C6.87565 9.99908 6.69873 10.0693 6.56828 10.1943C6.43783 10.3193 6.36455 10.4889 6.36455 10.6657V15.3319C6.36455 15.5087 6.43783 15.6783 6.56828 15.8033C6.69873 15.9283 6.87565 15.9985 7.06013 15.9985H8.39217C10.1016 15.9985 11.5405 14.7087 11.5805 13.0713C11.5906 12.6714 11.5171 12.2736 11.3644 11.9013C11.2117 11.529 10.9828 11.1897 10.6912 10.9035C10.3997 10.6172 10.0513 10.3897 9.6666 10.2344C9.28193 10.0791 8.86872 9.99908 8.45129 9.99908ZM8.40869 14.6653H7.75571V11.3323H8.45129C8.6854 11.3321 8.91713 11.3773 9.1326 11.465C9.34807 11.5527 9.54283 11.6813 9.70521 11.8429C9.86759 12.0045 9.99426 12.1958 10.0776 12.4055C10.1609 12.6152 10.1993 12.8388 10.1902 13.063C10.1537 13.9646 9.35033 14.6653 8.40869 14.6653Z" fill="#3D65FF"/>
</svg>
