<svg width="20" height="20" viewBox="0 0 20 20" fill="none" xmlns="http://www.w3.org/2000/svg">
<path d="M11 20V18H13V20L12 19.25L11 20Z" fill="#05093E" fill-opacity="0.3"/>
<path fill-rule="evenodd" clip-rule="evenodd" d="M3 1.5V16.5C3 17.3284 3.67155 18 4.5 18H11V16.2325C10.4022 15.8867 10 15.2403 10 14.5C10 13.3954 10.8955 12.5 12 12.5C13.1046 12.5 14 13.3954 14 14.5C14 15.2403 13.5978 15.8867 13 16.2325V18H15.5C16.3285 18 17 17.3284 17 16.5V1.5C17 0.671575 16.3285 0 15.5 0H4.5C3.67155 0 3 0.671575 3 1.5ZM12 15.5C12.5523 15.5 13 15.0523 13 14.5C13 13.9477 12.5523 13.5 12 13.5C11.4477 13.5 11 13.9477 11 14.5C11 15.0523 11.4477 15.5 12 15.5ZM7 3.5C7 3.22385 7.22385 3 7.5 3H12.5C12.7761 3 13 3.22385 13 3.5C13 3.77615 12.7761 4 12.5 4H7.5C7.22385 4 7 3.77615 7 3.5ZM5.5 6C5.22385 6 5 6.22385 5 6.5C5 6.77615 5.22385 7 5.5 7H14.5C14.7761 7 15 6.77615 15 6.5C15 6.22385 14.7761 6 14.5 6H5.5ZM5 8.5C5 8.22385 5.22385 8 5.5 8H14.5C14.7761 8 15 8.22385 15 8.5C15 8.77615 14.7761 9 14.5 9H5.5C5.22385 9 5 8.77615 5 8.5ZM5.5 10C5.22385 10 5 10.2239 5 10.5C5 10.7761 5.22385 11 5.5 11H14.5C14.7761 11 15 10.7761 15 10.5C15 10.2239 14.7761 10 14.5 10H5.5Z" fill="#05093E" fill-opacity="0.3"/>
</svg>
