<svg width="20" height="20" viewBox="0 0 20 20" fill="none" xmlns="http://www.w3.org/2000/svg">
<path d="M16.1707 10C16.1707 9.816 16.1625 9.64 16.1461 9.456L17.6764 8.328C18.0055 8.088 18.096 7.64 17.8903 7.288L16.3518 4.704C16.2531 4.53455 16.0935 4.40651 15.9037 4.3445C15.7139 4.28248 15.5072 4.29085 15.3233 4.368L13.5543 5.096C13.2499 4.888 12.929 4.704 12.5917 4.552L12.3531 2.704C12.3037 2.304 11.95 2 11.5386 2H8.46966C8.05004 2 7.69626 2.304 7.64689 2.704L7.40829 4.552C7.07095 4.704 6.75007 4.888 6.44565 5.096L4.6767 4.368C4.29823 4.208 3.85394 4.352 3.64825 4.704L2.10967 7.296C1.90398 7.648 1.99449 8.088 2.32359 8.336L3.85394 9.464C3.81983 9.82324 3.81983 10.1848 3.85394 10.544L2.32359 11.672C1.99449 11.912 1.90398 12.36 2.10967 12.712L3.64825 15.296C3.85394 15.648 4.29823 15.792 4.6767 15.632L6.44565 14.904C6.75007 15.112 7.07095 15.296 7.40829 15.448L7.64689 17.296C7.69626 17.696 8.05004 18 8.46143 18H11.5303C11.9417 18 12.2955 17.696 12.3449 17.296L12.5835 15.448C12.9208 15.296 13.2417 15.112 13.5461 14.904L15.3151 15.632C15.6935 15.792 16.1378 15.648 16.3435 15.296L17.8821 12.712C18.0878 12.36 17.9973 11.92 17.6682 11.672L16.1378 10.544C16.1625 10.36 16.1707 10.184 16.1707 10ZM10.0329 12.8C8.44497 12.8 7.15323 11.544 7.15323 10C7.15323 8.456 8.44497 7.2 10.0329 7.2C11.6208 7.2 12.9126 8.456 12.9126 10C12.9126 11.544 11.6208 12.8 10.0329 12.8Z" fill="#05093E" fill-opacity="0.3"/>
</svg>
