<svg width="20" height="20" viewBox="0 0 20 20" fill="none" xmlns="http://www.w3.org/2000/svg">
<path d="M4.95833 0.833374C4.76008 0.833374 4.57149 0.918954 4.44094 1.06815L1.2326 4.73482C1.07526 4.91464 1.0284 5.15332 1.08649 5.36787C1.07072 5.45816 1.06249 5.55106 1.06249 5.64587V17.5625C1.06249 18.4485 1.7807 19.1667 2.66666 19.1667H17.3333C18.2193 19.1667 18.9375 18.4485 18.9375 17.5625V5.64587C18.9375 5.55107 18.9293 5.4582 18.9135 5.36791C18.9716 5.15335 18.9248 4.91466 18.7674 4.73482L15.5591 1.06815C15.4285 0.918954 15.2399 0.833374 15.0417 0.833374H4.95833ZM16.3339 4.04171H3.66613L5.2703 2.20837H14.7297L16.3339 4.04171ZM6.5395 10.233C6.5395 9.85332 6.8473 9.54551 7.227 9.54551H12.727C13.1067 9.54551 13.4145 9.85332 13.4145 10.233C13.4145 10.6127 13.1067 10.9205 12.727 10.9205H7.227C6.8473 10.9205 6.5395 10.6127 6.5395 10.233Z" fill="#05093E" fill-opacity="0.3"/>
</svg>
