<svg width="20" height="20" viewBox="0 0 20 20" fill="none" xmlns="http://www.w3.org/2000/svg">
<path d="M1.04102 2.91675C1.04102 1.88122 1.88048 1.04175 2.91602 1.04175H17.0827C18.1182 1.04175 18.9577 1.88122 18.9577 2.91675V17.0834C18.9577 18.119 18.1182 18.9584 17.0827 18.9584H2.91602C1.88049 18.9584 1.04102 18.119 1.04102 17.0834V2.91675ZM5.48 8.33864C6.76173 6.79667 8.25956 6.06413 9.99936 6.06413C11.7392 6.06413 13.237 6.79667 14.5187 8.33864C14.7394 8.60409 15.1334 8.64041 15.3989 8.41976C15.6643 8.19912 15.7006 7.80506 15.48 7.53961C13.991 5.74825 12.1555 4.81413 9.99936 4.81413C7.84325 4.81413 6.00775 5.74825 4.51873 7.53961C4.29808 7.80506 4.3344 8.19912 4.59985 8.41976C4.8653 8.64041 5.25935 8.60409 5.48 8.33864ZM9.99935 12.9167C10.6897 12.9167 11.2493 12.3571 11.2493 11.6667C11.2493 10.9764 10.6897 10.4167 9.99935 10.4167C9.95941 10.4167 9.91992 10.4186 9.88094 10.4223L8.42436 8.38646C8.22351 8.10573 7.83312 8.04098 7.55239 8.24183C7.27167 8.44268 7.20691 8.83308 7.40777 9.1138L8.86229 11.1468C8.78977 11.3051 8.74935 11.4812 8.74935 11.6667C8.74935 12.3571 9.30897 12.9167 9.99935 12.9167Z" fill="#05093E" fill-opacity="0.3"/>
</svg>
