<svg width="24" height="24" viewBox="0 0 24 24" fill="none" xmlns="http://www.w3.org/2000/svg">
<path d="M12.5498 21.0959C12.3332 21.0959 12.1416 21.0439 11.975 20.9399C11.8084 20.8359 11.6876 20.6919 11.6126 20.5079C11.5377 20.3239 11.521 20.1359 11.5627 19.9439C11.6043 19.7519 11.6918 19.5919 11.8251 19.4639L19.572 11.9999L11.8251 4.55995C11.7251 4.46395 11.6501 4.35595 11.6002 4.23595C11.5502 4.11595 11.5252 3.99195 11.5252 3.86395C11.5252 3.73595 11.5502 3.61595 11.6002 3.50395C11.6501 3.39195 11.7251 3.28795 11.8251 3.19195C11.925 3.09595 12.0375 3.02395 12.1624 2.97595C12.2874 2.92795 12.404 2.90395 12.5123 2.90395C12.6206 2.90395 12.758 2.93595 12.9246 2.99995C13.0412 3.04795 13.1495 3.11995 13.2495 3.21595L21.6961 11.3279C21.896 11.5199 21.996 11.7479 21.996 12.0119C21.996 12.2759 21.896 12.5039 21.6961 12.6959L13.2495 20.8079C13.0496 20.9999 12.8163 21.0959 12.5498 21.0959ZM20.9964 12.9599H3.0036C2.72038 12.9599 2.48297 12.8679 2.29138 12.6839C2.09979 12.4999 2.004 12.2759 2.004 12.0119C2.004 11.7479 2.10396 11.5199 2.30388 11.3279C2.5038 11.1359 2.73704 11.0399 3.0036 11.0399H20.9964C21.263 11.0399 21.4962 11.1359 21.6961 11.3279C21.896 11.5199 21.996 11.7479 21.996 12.0119C21.996 12.2759 21.9002 12.4999 21.7086 12.6839C21.517 12.8679 21.2796 12.9599 20.9964 12.9599Z" fill="#3D65FF"/>
</svg>
