<svg width="20" height="20" viewBox="0 0 20 20" fill="none" xmlns="http://www.w3.org/2000/svg">
<path d="M2.65053 2.98914C2.75297 2.13841 3.44962 1.5 4.27554 1.5H15.7245C16.5504 1.5 17.247 2.1384 17.3495 2.98915L18.9871 16.5891C19.1093 17.6038 18.3471 18.5 17.3621 18.5H2.63788C1.65283 18.5 0.890712 17.6038 1.01289 16.5891L2.65053 2.98914ZM5.47538 6.43398C5.12868 6.61393 4.98816 7.05157 5.1615 7.41146L5.78926 7.08564C5.1615 7.41146 5.16195 7.41238 5.16195 7.41238L5.16241 7.41334L5.16341 7.41539L5.1657 7.42005L5.17145 7.4315C5.17581 7.44007 5.18123 7.45049 5.18776 7.46263C5.20082 7.48691 5.21834 7.51813 5.2407 7.55526C5.28539 7.62949 5.34959 7.72764 5.43637 7.84143C5.61001 8.06913 5.87448 8.35995 6.25376 8.64629C7.02079 9.22537 8.21902 9.75706 10.0003 9.75706C11.7817 9.75706 12.9799 9.22537 13.7469 8.64629C14.1262 8.35995 14.3907 8.06913 14.5643 7.84143C14.6511 7.72764 14.7153 7.62949 14.76 7.55526C14.7823 7.51813 14.7999 7.48691 14.8129 7.46263C14.8194 7.45049 14.8249 7.44007 14.8292 7.4315L14.835 7.42005L14.8373 7.41539L14.8383 7.41334L14.8387 7.41238C14.8387 7.41238 14.8392 7.41146 14.2114 7.08564L14.8392 7.41146C15.0125 7.05157 14.872 6.61393 14.5253 6.43398C14.1813 6.25545 13.7637 6.39763 13.5878 6.75135L13.5873 6.75228C13.5851 6.75646 13.5793 6.76698 13.5697 6.78298C13.5504 6.815 13.5159 6.86863 13.4637 6.93698C13.3596 7.07358 13.1854 7.26847 12.9213 7.46784C12.4016 7.86019 11.4943 8.29992 10.0003 8.29992C8.50637 8.29992 7.59906 7.86019 7.07937 7.46784C6.81529 7.26847 6.6411 7.07358 6.53693 6.93698C6.48481 6.86863 6.45031 6.815 6.43103 6.78298C6.4214 6.76698 6.41561 6.75646 6.41337 6.75228L6.41287 6.75135C6.23702 6.39763 5.81935 6.25545 5.47538 6.43398Z" fill="#05093E" fill-opacity="0.3"/>
</svg>
