<svg width="20" height="20" viewBox="0 0 20 20" fill="none" xmlns="http://www.w3.org/2000/svg">
<g id="Vector">
<path d="M20 11.7812C20 10.6092 19.4638 9.52854 18.5663 8.64741C17.655 12.7882 13.3251 15.9375 8.12523 15.9375C7.99648 15.9375 7.87274 15.9161 7.74399 15.9126C9.03896 16.6702 10.6952 17.125 12.5001 17.125C13.0614 17.125 13.6076 17.0775 14.1339 16.9944L18.75 19.5V14.75H18.735C19.5338 13.9009 20 12.8797 20 11.7812Z" fill="#05093E" fill-opacity="0.3"/>
<path d="M8.12484 0.5C3.63743 0.5 0 3.42363 0 7.03127C0 8.30783 0.462491 9.49415 1.24998 10.5011V14.75L4.62366 12.9189C5.68489 13.3274 6.86987 13.5625 8.12484 13.5625C12.6123 13.5625 16.2497 10.6389 16.2497 7.03127C16.2497 3.42363 12.6123 0.5 8.12484 0.5Z" fill="#05093E" fill-opacity="0.5"/>
</g>
</svg>
