<svg width="20" height="20" viewBox="0 0 20 20" fill="none" xmlns="http://www.w3.org/2000/svg">
<path d="M2.49896 14.5511V17.0844C2.49896 17.3177 2.6823 17.5011 2.91563 17.5011H5.44896C5.5573 17.5011 5.66563 17.4594 5.74063 17.3761L14.4868 8.63795C14.6822 8.44271 14.6822 8.126 14.4869 7.93068L12.0692 5.51295C11.8739 5.31768 11.5573 5.31768 11.3621 5.51295L2.62396 14.2511C2.54063 14.3344 2.49896 14.4344 2.49896 14.5511ZM17.2573 5.86773C17.3345 5.79063 17.3958 5.69906 17.4377 5.59825C17.4795 5.49744 17.501 5.38937 17.501 5.28023C17.501 5.17109 17.4795 5.06302 17.4377 4.96221C17.3958 4.8614 17.3345 4.76982 17.2573 4.69273L15.3073 2.74273C15.2302 2.66547 15.1386 2.60418 15.0378 2.56237C14.937 2.52055 14.8289 2.49902 14.7198 2.49902C14.6107 2.49902 14.5026 2.52055 14.4018 2.56237C14.301 2.60418 14.2094 2.66547 14.1323 2.74273L12.9608 3.91417C12.7656 4.10944 12.7656 4.42602 12.9608 4.62128L15.3787 7.03917C15.574 7.23444 15.8906 7.23444 16.0858 7.03917L17.2573 5.86773Z" fill="#05093E" fill-opacity="0.3"/>
</svg>
