<svg width="18" height="14" viewBox="0 0 18 14" fill="none" xmlns="http://www.w3.org/2000/svg">
<path id="Vector" d="M2.54957 1.59968L1.95265 1.15L2.7 1.15L15.3 1.15L16.0473 1.15L15.4504 1.59968L9.15043 6.34568L9 6.459L8.84957 6.34568L2.54957 1.59968ZM17.4393 13.4208L17.6224 13.589L17.4393 13.4208C17.6361 13.2065 17.75 12.9115 17.75 12.6L17.75 1.4C17.75 1.08846 17.6361 0.793505 17.4393 0.579152C17.2431 0.365512 16.9818 0.25 16.7143 0.25L1.28572 0.250001C1.01823 0.250001 0.756908 0.365513 0.560711 0.579153C0.363855 0.793507 0.25 1.08846 0.25 1.4L0.250001 12.6C0.250001 12.9115 0.363857 13.2065 0.56071 13.4208C0.75691 13.6345 1.01823 13.75 1.28572 13.75L16.7143 13.75C16.9818 13.75 17.2431 13.6345 17.4393 13.4208ZM16.9643 12.6L16.9643 12.85L16.7143 12.85L1.28572 12.85L1.03572 12.85L1.03572 12.6L1.03572 2.037L1.03572 1.53558L1.43617 1.83734L8.78403 7.37434L8.78426 7.37452C8.84986 7.42407 8.92513 7.44885 9 7.44885C9.07487 7.44885 9.15014 7.42407 9.21574 7.37452L9.21598 7.37434L16.5638 1.83734L16.9643 1.53558L16.9643 2.037L16.9643 12.6Z" fill="#32CDD7" stroke="#32CDD7" stroke-width="0.5"/>
</svg>
