<svg width="20" height="20" viewBox="0 0 20 20" fill="none" xmlns="http://www.w3.org/2000/svg">
<path d="M17.7143 3H2.28571C1.94472 3 1.6177 3.1475 1.37658 3.41005C1.13546 3.6726 1 4.0287 1 4.4V15.6C1 15.9713 1.13546 16.3274 1.37658 16.5899C1.6177 16.8525 1.94472 17 2.28571 17H17.7143C18.0553 17 18.3823 16.8525 18.6234 16.5899C18.8645 16.3274 19 15.9713 19 15.6V4.4C19 4.0287 18.8645 3.6726 18.6234 3.41005C18.3823 3.1475 18.0553 3 17.7143 3ZM16.3 4.4L10 9.146L3.7 4.4H16.3ZM2.28571 15.6V5.037L9.63357 10.574C9.74118 10.6553 9.86903 10.6988 10 10.6988C10.131 10.6988 10.2588 10.6553 10.3664 10.574L17.7143 5.037V15.6H2.28571Z" fill="#3D65FF"/>
</svg>
