<svg width="20" height="20" viewBox="0 0 20 20" fill="none" xmlns="http://www.w3.org/2000/svg">
<path fill-rule="evenodd" clip-rule="evenodd" d="M7.85714 0C6.96952 0 6.25 0.671575 6.25 1.5H4.10714C3.21952 1.5 2.5 2.17158 2.5 3V18.5C2.5 19.3284 3.21952 20 4.10714 20H15.8929C16.7805 20 17.5 19.3284 17.5 18.5V3C17.5 2.17158 16.7805 1.5 15.8929 1.5H13.75C13.75 0.671575 13.0305 0 12.1429 0H7.85714ZM7.32143 1.5C7.32143 1.22386 7.56127 1 7.85714 1H12.1429C12.4387 1 12.6786 1.22386 12.6786 1.5V2.5C12.6786 2.77614 12.4387 3 12.1429 3H7.85714C7.56127 3 7.32143 2.77614 7.32143 2.5V1.5ZM7.32143 5.5V7H5.71429V8H7.32143V9.5H8.39286V8H10V7H8.39286V5.5H7.32143ZM6.25 11C5.95412 11 5.71429 11.2239 5.71429 11.5C5.71429 11.7761 5.95412 12 6.25 12H13.75C14.0459 12 14.2857 11.7761 14.2857 11.5C14.2857 11.2239 14.0459 11 13.75 11H6.25ZM5.71429 14C5.71429 13.7239 5.95412 13.5 6.25 13.5H13.75C14.0459 13.5 14.2857 13.7239 14.2857 14C14.2857 14.2761 14.0459 14.5 13.75 14.5H6.25C5.95412 14.5 5.71429 14.2761 5.71429 14ZM6.25 16C5.95412 16 5.71429 16.2239 5.71429 16.5C5.71429 16.7761 5.95412 17 6.25 17H13.75C14.0459 17 14.2857 16.7761 14.2857 16.5C14.2857 16.2239 14.0459 16 13.75 16H6.25Z" fill="#05093E" fill-opacity="0.3"/>
</svg>
