<svg width="48" height="49" viewBox="0 0 48 49" fill="none" xmlns="http://www.w3.org/2000/svg">
<path d="M35.25 9.46997C37.2812 9.46997 39 11.1887 39 13.22V40.72C39 42.8293 37.2812 44.47 35.25 44.47H12.75C10.6406 44.47 9 42.8293 9 40.72V13.22C9 11.1887 10.6406 9.46997 12.75 9.46997H19C19 6.7356 21.1875 4.46997 24 4.46997C26.7344 4.46997 29 6.7356 29 9.46997H35.25ZM16.5 37.595C17.5156 37.595 18.375 36.8137 18.375 35.72C18.375 34.7043 17.5156 33.845 16.5 33.845C15.4062 33.845 14.625 34.7043 14.625 35.72C14.625 36.8137 15.4062 37.595 16.5 37.595ZM16.5 30.095C17.5156 30.095 18.375 29.3137 18.375 28.22C18.375 27.2043 17.5156 26.345 16.5 26.345C15.4062 26.345 14.625 27.2043 14.625 28.22C14.625 29.3137 15.4062 30.095 16.5 30.095ZM16.5 22.595C17.5156 22.595 18.375 21.8137 18.375 20.72C18.375 19.7043 17.5156 18.845 16.5 18.845C15.4062 18.845 14.625 19.7043 14.625 20.72C14.625 21.8137 15.4062 22.595 16.5 22.595ZM24 7.59497C22.9062 7.59497 22.125 8.45435 22.125 9.46997C22.125 10.5637 22.9062 11.345 24 11.345C25.0156 11.345 25.875 10.5637 25.875 9.46997C25.875 8.45435 25.0156 7.59497 24 7.59497ZM34 36.345V35.095C34 34.7825 33.6875 34.47 33.375 34.47H22.125C21.7344 34.47 21.5 34.7825 21.5 35.095V36.345C21.5 36.7356 21.7344 36.97 22.125 36.97H33.375C33.6875 36.97 34 36.7356 34 36.345ZM34 28.845V27.595C34 27.2825 33.6875 26.97 33.375 26.97H22.125C21.7344 26.97 21.5 27.2825 21.5 27.595V28.845C21.5 29.2356 21.7344 29.47 22.125 29.47H33.375C33.6875 29.47 34 29.2356 34 28.845ZM34 21.345V20.095C34 19.7825 33.6875 19.47 33.375 19.47H22.125C21.7344 19.47 21.5 19.7825 21.5 20.095V21.345C21.5 21.7356 21.7344 21.97 22.125 21.97H33.375C33.6875 21.97 34 21.7356 34 21.345Z" fill="#3D65FF"/>
</svg>
