<svg width="20" height="20" viewBox="0 0 20 20" fill="none" xmlns="http://www.w3.org/2000/svg">
<path d="M2 9.27146C2 5.25556 5.25556 2 9.27146 2C13.2874 2 16.5429 5.25556 16.5429 9.27146C16.5429 13.2874 13.2874 16.5429 9.27146 16.5429C5.25556 16.5429 2 13.2874 2 9.27146ZM9.27146 3.17916C5.90679 3.17916 3.17916 5.90679 3.17916 9.27146C3.17916 12.6361 5.90679 15.3638 9.27146 15.3638C12.6361 15.3638 15.3638 12.6361 15.3638 9.27146C15.3638 5.90679 12.6361 3.17916 9.27146 3.17916Z" fill="#3D65FF"/>
<path d="M13.6584 13.6584C13.8886 13.4281 14.2619 13.4281 14.4922 13.6584L17.8273 16.9935C18.0576 17.2238 18.0576 17.5971 17.8273 17.8273C17.5971 18.0576 17.2238 18.0576 16.9935 17.8273L13.6584 14.4922C13.4281 14.2619 13.4281 13.8886 13.6584 13.6584Z" fill="#3D65FF"/>
</svg>
