<svg width="20" height="22" viewBox="0 0 20 22" fill="none" xmlns="http://www.w3.org/2000/svg">
<path d="M19.993 6.5381C19.9914 6.45865 19.9817 6.37964 19.964 6.30258C19.957 6.27507 19.943 6.24866 19.934 6.22114C19.913 6.15841 19.894 6.09678 19.864 6.03955C19.848 6.00984 19.826 5.98562 19.807 5.95701C19.775 5.90748 19.744 5.85686 19.705 5.81394C19.682 5.78972 19.652 5.76991 19.627 5.7468C19.588 5.71158 19.552 5.67306 19.507 5.64335C19.503 5.64005 19.498 5.64005 19.493 5.63674L19.485 5.63014L10.506 0.138341C10.3576 0.0477936 10.1908 0.000193081 10.0211 5.86161e-07C9.85147 -0.000191909 9.68454 0.04703 9.536 0.13724L0.515 5.62904C0.512 5.63234 0.509 5.63674 0.504 5.64005L0.494 5.64445C0.459 5.66646 0.433 5.69838 0.4 5.72479C0.364 5.7545 0.326 5.78092 0.294 5.81504C0.264 5.84915 0.241 5.88877 0.215 5.92729C0.188 5.96581 0.158 5.99993 0.136 6.04175C0.11 6.08908 0.0959999 6.143 0.0769999 6.19473C0.0629999 6.23105 0.045 6.26517 0.036 6.30479C0.0187295 6.38044 0.00900528 6.45793 0.00699997 6.5359C0.00599997 6.55461 0 6.57112 0 6.59093V15.3976C0 15.7971 0.197 16.1658 0.515 16.3595L9.493 21.848L9.494 21.8491L9.496 21.8502L9.516 21.8623C9.559 21.8887 9.606 21.903 9.651 21.9217C9.683 21.9361 9.714 21.9548 9.748 21.9647C9.91395 22.0118 10.088 22.0118 10.254 21.9647C10.287 21.9548 10.318 21.9361 10.351 21.9217C10.396 21.903 10.443 21.8898 10.486 21.8623L10.506 21.8502L10.508 21.8491L10.509 21.848L19.487 16.3595C19.803 16.1658 20 15.7971 20 15.3976V6.59093C20 6.57222 19.994 6.55681 19.993 6.5381ZM9.972 10.8545L3.058 6.59864L5.82 4.91698L12.654 9.21467L9.972 10.8545ZM10.02 2.35927L16.941 6.59313L14.697 7.96553L7.867 3.67004L10.02 2.35927ZM11 19.0306L11.002 12.7805L14 10.9337V14.2971L16 13.1965V9.70222L18 8.47069V14.7494L11 19.0306Z" fill="#3D65FF"/>
</svg>
