<svg width="559" height="370" viewBox="0 0 559 370" fill="none" xmlns="http://www.w3.org/2000/svg">
<g clip-path="url(#clip0_81_2404)">
<path d="M559 32C559 14.3269 544.673 0 527 0H32C14.3269 0 0 14.3269 0 32V338C0 355.673 14.3269 370 32 370H527C544.673 370 559 355.673 559 338V32Z" fill="#3D65FF"/>
<path d="M513.19 321.783H-798.81V699.334H513.19V321.783Z" fill="#3D65FF"/>
<path d="M-591.652 736.498L-1111.22 1012.47C-1198.82 1059.01 -1229.87 1163.76 -1180.58 1246.44C-1131.28 1329.13 -1020.3 1358.44 -932.693 1311.91L208.74 705.622C394.89 606.742 460.88 384.143 356.12 208.433L324.03 154.613C237 8.62741 41.0551 -43.1188 -113.611 39.0344C-194.016 81.743 -251.094 155.012 -270.312 240.186L-296.936 358.183C-333.081 518.374 -440.43 656.174 -591.652 736.498Z" fill="#80E0FF"/>
<path d="M-53.6516 948.678L-573.219 1224.65C-660.823 1271.18 -691.875 1375.94 -642.577 1458.63C-593.278 1541.31 -482.297 1570.62 -394.693 1524.09L746.736 917.803C932.896 818.922 998.876 596.323 894.116 420.613L862.036 366.794C774.996 220.808 579.056 169.062 424.389 251.215C343.983 293.923 286.905 367.192 267.687 452.366L241.063 570.363C204.919 730.555 97.5704 868.354 -53.6516 948.678Z" fill="#32CDD7"/>
</g>
<defs>
<clipPath id="clip0_81_2404">
<path d="M559 32C559 14.3269 544.673 0 527 0H32C14.3269 0 0 14.3269 0 32V338C0 355.673 14.3269 370 32 370H527C544.673 370 559 355.673 559 338V32Z" fill="white"/>
</clipPath>
</defs>
</svg>
