<svg width="510" height="454" viewBox="0 0 510 454" fill="none" xmlns="http://www.w3.org/2000/svg">
<g clip-path="url(#clip0_33_295)">
<path d="M0 32C0 14.3269 14.3269 0 32 0H478C495.673 0 510 14.3269 510 32V422C510 439.673 495.673 454 478 454H32C14.3269 454 0 439.673 0 422V32Z" fill="#3D65FF"/>
<path d="M11.1654 576.916C-95.5169 576.916 -182 494.082 -182 391.901C-182 289.72 -95.5169 206.886 11.1654 206.886C117.848 206.886 204.331 289.72 204.331 391.901C204.331 494.082 117.848 576.916 11.1654 576.916Z" fill="#80E0FF"/>
<path d="M443.735 638.348C277.643 638.348 143 509.386 143 350.303C143 191.22 277.643 62.2573 443.735 62.2573C609.826 62.2573 744.469 191.22 744.469 350.303C744.469 509.386 609.826 638.348 443.735 638.348Z" fill="#32CDD7"/>
</g>
<defs>
<clipPath id="clip0_33_295">
<path d="M0 32C0 14.3269 14.3269 0 32 0H478C495.673 0 510 14.3269 510 32V422C510 439.673 495.673 454 478 454H32C14.3269 454 0 439.673 0 422V32Z" fill="white"/>
</clipPath>
</defs>
</svg>
