<svg width="416" height="355" viewBox="0 0 416 355" fill="none" xmlns="http://www.w3.org/2000/svg">
<g clip-path="url(#clip0_150_488)">
<path d="M416 355L416 0L3.05176e-05 -1.74846e-05L1.43793e-05 355L416 355Z" fill="#3D65FF"/>
<path d="M108.516 553.661C183.504 552.164 245.473 490.743 246.927 416.475C248.382 342.206 188.77 283.214 113.782 284.712C38.7939 286.209 -23.1749 347.63 -24.629 421.898C-26.0831 496.167 33.528 555.159 108.516 553.661Z" fill="#80E0FF"/>
<path d="M209.939 311.663C174.122 395.424 214.547 495.726 300.232 535.693C385.917 575.66 484.414 540.158 520.232 456.397C556.05 372.636 515.625 272.334 429.94 232.367C344.255 192.4 245.757 227.902 209.939 311.663Z" fill="#32CDD7"/>
</g>
<defs>
<clipPath id="clip0_150_488">
<path d="M0 20C0 8.9543 8.95431 0 20 0H396C407.046 0 416 8.9543 416 20V335C416 346.046 407.046 355 396 355H20C8.95431 355 0 346.046 0 335V20Z" fill="white"/>
</clipPath>
</defs>
</svg>
