<svg width="274" height="28" viewBox="0 0 274 28" fill="none" xmlns="http://www.w3.org/2000/svg">
<path d="M20.3646 14.4067L28.2641 6.43002L36.067 14.3091C38.2483 16.5118 38.2483 20.083 36.067 22.2857V22.2857C33.8856 24.4884 30.3489 24.4884 28.1675 22.2857L20.3646 14.4067Z" fill="#32CDD7"/>
<path d="M20.3646 14.4067L12.4651 6.43002L4.66229 14.3091C2.4809 16.5118 2.4809 20.083 4.66229 22.2857V22.2857C6.84367 24.4884 10.3804 24.4884 12.5618 22.2857L20.3646 14.4067Z" fill="#3D65FF"/>
<circle cx="20.4816" cy="6.7886" r="2.22256" fill="#3D65FF"/>
<path d="M22.003 11.1868C22.003 12.0267 21.3221 12.7075 20.4823 12.7075C19.6424 12.7075 18.9616 12.0267 18.9616 11.1868C18.9616 10.347 19.6424 9.66614 20.4823 9.66614C21.3221 9.66614 22.003 10.347 22.003 11.1868Z" fill="#3D65FF"/>
<path d="M18.4885 3.63019C18.4885 4.47005 17.8077 5.15089 16.9678 5.15089C16.128 5.15089 15.4471 4.47005 15.4471 3.63019C15.4471 2.79034 16.128 2.1095 16.9678 2.1095C17.8077 2.1095 18.4885 2.79034 18.4885 3.63019Z" fill="#3D65FF"/>
<path d="M25.5116 6.55462C25.5116 7.00685 25.145 7.37345 24.6927 7.37345C24.2405 7.37345 23.8739 7.00685 23.8739 6.55462C23.8739 6.10238 24.2405 5.73578 24.6927 5.73578C25.145 5.73578 25.5116 6.10238 25.5116 6.55462Z" fill="#3D65FF"/>
<path d="M21.4818 2.54479C21.4818 2.99702 21.1152 3.36363 20.663 3.36363C20.2108 3.36363 19.8441 2.99702 19.8441 2.54479C19.8441 2.09256 20.2108 1.72595 20.663 1.72595C21.1152 1.72595 21.4818 2.09256 21.4818 2.54479Z" fill="#3D65FF"/>
<path d="M17.0893 6.67163C17.0893 7.02696 16.8012 7.315 16.4459 7.315C16.0906 7.315 15.8025 7.02696 15.8025 6.67163C15.8025 6.31631 16.0906 6.02826 16.4459 6.02826C16.8012 6.02826 17.0893 6.31631 17.0893 6.67163Z" fill="#3D65FF"/>
<path d="M14.4326 6.33061C14.4326 6.52442 14.2755 6.68154 14.0817 6.68154C13.8879 6.68154 13.7307 6.52442 13.7307 6.33061C13.7307 6.13679 13.8879 5.97968 14.0817 5.97968C14.2755 5.97968 14.4326 6.13679 14.4326 6.33061Z" fill="#3D65FF"/>
<path d="M179.45 22.4628V19.4659L179.165 18.8094V13.4435C179.165 12.492 178.87 11.7499 178.28 11.2172C177.709 10.6844 176.824 10.418 175.626 10.418C174.807 10.418 173.999 10.5512 173.2 10.8176C172.419 11.0649 171.753 11.4074 171.202 11.8451L169.603 8.73397C170.44 8.1441 171.449 7.68742 172.629 7.36394C173.808 7.04046 175.007 6.87872 176.225 6.87872C178.565 6.87872 180.383 7.43054 181.677 8.53418C182.97 9.63781 183.617 11.3599 183.617 13.7003V22.4628H179.45ZM174.769 22.6912C173.571 22.6912 172.543 22.4914 171.687 22.0918C170.831 21.6732 170.174 21.1118 169.717 20.4078C169.261 19.7037 169.032 18.9141 169.032 18.0388C169.032 17.1254 169.251 16.3262 169.689 15.6412C170.145 14.9562 170.859 14.4234 171.829 14.0428C172.8 13.6432 174.065 13.4435 175.626 13.4435H179.707V16.0408H176.111C175.064 16.0408 174.341 16.2121 173.942 16.5546C173.561 16.8971 173.371 17.3252 173.371 17.839C173.371 18.4098 173.59 18.8665 174.027 19.209C174.484 19.5325 175.102 19.6942 175.882 19.6942C176.625 19.6942 177.291 19.523 177.88 19.1805C178.47 18.8189 178.898 18.2956 179.165 17.6106L179.85 19.6657C179.526 20.6551 178.937 21.4068 178.08 21.9205C177.224 22.4343 176.12 22.6912 174.769 22.6912Z" fill="#32CDD7"/>
<path d="M159.476 6.87872C160.693 6.87872 161.769 7.12609 162.701 7.62082C163.652 8.09653 164.394 8.83863 164.927 9.84712C165.479 10.8366 165.755 12.1115 165.755 13.6718V22.4628H161.302V14.3568C161.302 13.12 161.045 12.2066 160.532 11.6167C160.018 11.0269 159.295 10.7319 158.362 10.7319C157.716 10.7319 157.135 10.8842 156.621 11.1886C156.108 11.474 155.708 11.9117 155.423 12.5016C155.137 13.0914 154.995 13.843 154.995 14.7564V22.4628H150.542V14.3568C150.542 13.12 150.285 12.2066 149.771 11.6167C149.277 11.0269 148.563 10.7319 147.631 10.7319C146.984 10.7319 146.403 10.8842 145.89 11.1886C145.376 11.474 144.976 11.9117 144.691 12.5016C144.405 13.0914 144.263 13.843 144.263 14.7564V22.4628H139.81V7.10706H144.063V11.3028L143.264 10.0755C143.796 9.02891 144.548 8.23924 145.518 7.70645C146.508 7.15463 147.631 6.87872 148.886 6.87872C150.295 6.87872 151.522 7.24026 152.568 7.96333C153.634 8.66737 154.338 9.75198 154.681 11.2172L153.111 10.789C153.624 9.59024 154.443 8.63883 155.565 7.93479C156.707 7.23074 158.01 6.87872 159.476 6.87872Z" fill="#32CDD7"/>
<path d="M127.316 22.4628V7.10706H131.569V11.4455L130.969 10.1896C131.426 9.10502 132.159 8.28681 133.167 7.73499C134.176 7.16415 135.403 6.87872 136.849 6.87872V10.9888C136.659 10.9698 136.488 10.9603 136.335 10.9603C136.183 10.9412 136.021 10.9317 135.85 10.9317C134.632 10.9317 133.643 11.2838 132.882 11.9878C132.14 12.6728 131.769 13.7479 131.769 15.2131V22.4628H127.316Z" fill="#32CDD7"/>
<path d="M118.834 22.4628V19.4659L118.548 18.8094V13.4435C118.548 12.492 118.253 11.7499 117.663 11.2172C117.093 10.6844 116.208 10.418 115.009 10.418C114.191 10.418 113.382 10.5512 112.583 10.8176C111.803 11.0649 111.137 11.4074 110.585 11.8451L108.987 8.73397C109.824 8.1441 110.832 7.68742 112.012 7.36394C113.192 7.04046 114.391 6.87872 115.608 6.87872C117.949 6.87872 119.766 7.43054 121.06 8.53418C122.354 9.63781 123.001 11.3599 123.001 13.7003V22.4628H118.834ZM114.153 22.6912C112.954 22.6912 111.926 22.4914 111.07 22.0918C110.214 21.6732 109.557 21.1118 109.101 20.4078C108.644 19.7037 108.416 18.9141 108.416 18.0388C108.416 17.1254 108.635 16.3262 109.072 15.6412C109.529 14.9562 110.242 14.4234 111.213 14.0428C112.183 13.6432 113.449 13.4435 115.009 13.4435H119.091V16.0408H115.494C114.448 16.0408 113.725 16.2121 113.325 16.5546C112.944 16.8971 112.754 17.3252 112.754 17.839C112.754 18.4098 112.973 18.8665 113.411 19.209C113.867 19.5325 114.486 19.6942 115.266 19.6942C116.008 19.6942 116.674 19.523 117.264 19.1805C117.854 18.8189 118.282 18.2956 118.548 17.6106L119.233 19.6657C118.91 20.6551 118.32 21.4068 117.464 21.9205C116.607 22.4343 115.504 22.6912 114.153 22.6912Z" fill="#32CDD7"/>
<path d="M98.9125 22.4628V6.76455C98.9125 5.03299 99.4263 3.65344 100.454 2.62592C101.481 1.57937 102.946 1.05609 104.849 1.05609C105.496 1.05609 106.115 1.12269 106.705 1.25589C107.313 1.38909 107.827 1.5984 108.246 1.88382L107.076 5.1091C106.828 4.93785 106.552 4.80465 106.248 4.70951C105.943 4.61437 105.62 4.5668 105.277 4.5668C104.63 4.5668 104.126 4.75708 103.765 5.13764C103.422 5.49918 103.251 6.051 103.251 6.7931V8.22021L103.365 10.1325V22.4628H98.9125ZM96.5435 10.8746V7.44957H107.19V10.8746H96.5435Z" fill="#32CDD7"/>
<path d="M86.6886 22.6912C85.0521 22.6912 83.5965 22.3487 82.3216 21.6636C81.0657 20.9786 80.0668 20.0462 79.3247 18.8665C78.6016 17.6677 78.2401 16.3072 78.2401 14.7849C78.2401 13.2437 78.6016 11.8831 79.3247 10.7034C80.0668 9.50461 81.0657 8.57223 82.3216 7.90624C83.5965 7.22123 85.0521 6.87872 86.6886 6.87872C88.306 6.87872 89.7521 7.22123 91.027 7.90624C92.3019 8.57223 93.3009 9.4951 94.0239 10.6748C94.747 11.8546 95.1085 13.2246 95.1085 14.7849C95.1085 16.3072 94.747 17.6677 94.0239 18.8665C93.3009 20.0462 92.3019 20.9786 91.027 21.6636C89.7521 22.3487 88.306 22.6912 86.6886 22.6912ZM86.6886 19.0377C87.4307 19.0377 88.0967 18.8665 88.6865 18.524C89.2764 18.1815 89.7426 17.6963 90.0851 17.0683C90.4276 16.4214 90.5989 15.6602 90.5989 14.7849C90.5989 13.8906 90.4276 13.1295 90.0851 12.5016C89.7426 11.8736 89.2764 11.3884 88.6865 11.0459C88.0967 10.7034 87.4307 10.5321 86.6886 10.5321C85.9465 10.5321 85.2805 10.7034 84.6906 11.0459C84.1007 11.3884 83.625 11.8736 83.2635 12.5016C82.921 13.1295 82.7497 13.8906 82.7497 14.7849C82.7497 15.6602 82.921 16.4214 83.2635 17.0683C83.625 17.6963 84.1007 18.1815 84.6906 18.524C85.2805 18.8665 85.9465 19.0377 86.6886 19.0377Z" fill="#32CDD7"/>
<path d="M67.0271 22.4628V7.10706H71.2799V11.4455L70.6805 10.1896C71.1372 9.10502 71.8698 8.28681 72.8783 7.73499C73.8868 7.16415 75.1141 6.87872 76.5602 6.87872V10.9888C76.3699 10.9698 76.1987 10.9603 76.0465 10.9603C75.8942 10.9412 75.7325 10.9317 75.5612 10.9317C74.3434 10.9317 73.354 11.2838 72.5928 11.9878C71.8507 12.6728 71.4797 13.7479 71.4797 15.2131V22.4628H67.0271Z" fill="#32CDD7"/>
<path d="M56.1117 22.6912C54.8178 22.6912 53.6856 22.4057 52.7152 21.8349C51.7448 21.264 50.9836 20.3983 50.4318 19.2375C49.899 18.0578 49.6326 16.5736 49.6326 14.7849C49.6326 12.9773 49.8895 11.4931 50.4033 10.3323C50.917 9.17162 51.6591 8.30584 52.6296 7.73499C53.6 7.16415 54.7607 6.87872 56.1117 6.87872C57.5579 6.87872 58.8518 7.21172 59.9935 7.8777C61.1542 8.52466 62.0676 9.43802 62.7335 10.6178C63.4186 11.7975 63.7611 13.1866 63.7611 14.7849C63.7611 16.4023 63.4186 17.8009 62.7335 18.9807C62.0676 20.1604 61.1542 21.0738 59.9935 21.7207C58.8518 22.3677 57.5579 22.6912 56.1117 22.6912ZM47.0353 28V7.10706H51.2881V10.2467L51.2025 14.8135L51.4879 19.3517V28H47.0353ZM55.3411 19.0377C56.0832 19.0377 56.7397 18.8665 57.3105 18.524C57.9004 18.1815 58.3666 17.6963 58.7091 17.0683C59.0706 16.4214 59.2514 15.6602 59.2514 14.7849C59.2514 13.8906 59.0706 13.1295 58.7091 12.5016C58.3666 11.8736 57.9004 11.3884 57.3105 11.0459C56.7397 10.7034 56.0832 10.5321 55.3411 10.5321C54.599 10.5321 53.933 10.7034 53.3431 11.0459C52.7533 11.3884 52.2871 11.8736 51.9446 12.5016C51.602 13.1295 51.4308 13.8906 51.4308 14.7849C51.4308 15.6602 51.602 16.4214 51.9446 17.0683C52.2871 17.6963 52.7533 18.1815 53.3431 18.524C53.933 18.8665 54.599 19.0377 55.3411 19.0377Z" fill="#32CDD7"/>
<path d="M269.663 22.6911C267.856 22.6911 266.448 22.2345 265.439 21.3211C264.431 20.3887 263.926 19.0092 263.926 17.1825V3.71051H268.379V17.1254C268.379 17.7724 268.55 18.2766 268.893 18.6381C269.235 18.9806 269.701 19.1519 270.291 19.1519C270.995 19.1519 271.595 18.9616 272.089 18.581L273.288 21.7207C272.832 22.0442 272.28 22.2915 271.633 22.4628C271.005 22.615 270.348 22.6911 269.663 22.6911ZM261.557 10.8746V7.44955H272.204V10.8746H261.557Z" fill="#3D65FF"/>
<path d="M253.719 22.6912C252.063 22.6912 250.588 22.3582 249.295 21.6922C248.001 21.0072 246.983 20.0653 246.241 18.8665C245.517 17.6677 245.156 16.3072 245.156 14.7849C245.156 13.2437 245.517 11.8831 246.241 10.7034C246.983 9.50461 248.001 8.57223 249.295 7.90624C250.588 7.22123 252.063 6.87872 253.719 6.87872C255.336 6.87872 256.744 7.22123 257.943 7.90624C259.142 8.57223 260.026 9.53316 260.597 10.789L257.144 12.6443C256.744 11.9212 256.24 11.3884 255.631 11.0459C255.041 10.7034 254.394 10.5321 253.69 10.5321C252.929 10.5321 252.244 10.7034 251.635 11.0459C251.026 11.3884 250.541 11.8736 250.179 12.5016C249.837 13.1295 249.666 13.8906 249.666 14.7849C249.666 15.6793 249.837 16.4404 250.179 17.0683C250.541 17.6963 251.026 18.1815 251.635 18.524C252.244 18.8665 252.929 19.0377 253.69 19.0377C254.394 19.0377 255.041 18.876 255.631 18.5525C256.24 18.21 256.744 17.6677 257.144 16.9256L260.597 18.8094C260.026 20.0462 259.142 21.0072 257.943 21.6922C256.744 22.3582 255.336 22.6912 253.719 22.6912Z" fill="#3D65FF"/>
<path d="M235.912 22.6912C234.162 22.6912 232.62 22.3487 231.288 21.6636C229.975 20.9786 228.957 20.0462 228.234 18.8665C227.511 17.6677 227.15 16.3072 227.15 14.7849C227.15 13.2437 227.502 11.8831 228.206 10.7034C228.929 9.50461 229.909 8.57223 231.146 7.90624C232.382 7.22123 233.781 6.87872 235.341 6.87872C236.845 6.87872 238.196 7.2022 239.394 7.84916C240.612 8.47709 241.573 9.39044 242.277 10.5892C242.981 11.769 243.333 13.1866 243.333 14.842C243.333 15.0133 243.324 15.2131 243.305 15.4414C243.286 15.6507 243.267 15.8505 243.248 16.0408H230.775V13.4435H240.907L239.195 14.2141C239.195 13.4149 239.033 12.7204 238.709 12.1305C238.386 11.5406 237.939 11.084 237.368 10.7605C236.797 10.418 236.131 10.2467 235.37 10.2467C234.609 10.2467 233.933 10.418 233.343 10.7605C232.773 11.084 232.325 11.5501 232.002 12.159C231.678 12.7489 231.517 13.453 231.517 14.2712V14.9562C231.517 15.7934 231.697 16.5355 232.059 17.1825C232.44 17.8104 232.963 18.2956 233.629 18.6382C234.314 18.9616 235.113 19.1234 236.026 19.1234C236.845 19.1234 237.558 18.9997 238.167 18.7523C238.795 18.505 239.366 18.1339 239.88 17.6392L242.249 20.208C241.545 21.0072 240.66 21.6256 239.594 22.0632C238.529 22.4818 237.301 22.6912 235.912 22.6912Z" fill="#3D65FF"/>
<path d="M216.222 22.4628V7.10706H220.475V11.4455L219.876 10.1896C220.332 9.10502 221.065 8.28681 222.074 7.73499C223.082 7.16415 224.309 6.87872 225.755 6.87872V10.9888C225.565 10.9698 225.394 10.9603 225.242 10.9603C225.089 10.9412 224.928 10.9317 224.757 10.9317C223.539 10.9317 222.549 11.2838 221.788 11.9878C221.046 12.6728 220.675 13.7479 220.675 15.2131V22.4628H216.222Z" fill="#3D65FF"/>
<path d="M207.637 22.4628V7.10703H212.09V22.4628H207.637ZM209.864 4.96636C209.045 4.96636 208.379 4.72851 207.866 4.2528C207.352 3.7771 207.095 3.18722 207.095 2.48318C207.095 1.77914 207.352 1.18926 207.866 0.713559C208.379 0.237853 209.045 0 209.864 0C210.682 0 211.348 0.228339 211.862 0.685017C212.375 1.12267 212.632 1.69351 212.632 2.39755C212.632 3.13965 212.375 3.75807 211.862 4.2528C211.367 4.72851 210.701 4.96636 209.864 4.96636Z" fill="#3D65FF"/>
<path d="M194.468 22.6912C193.022 22.6912 191.719 22.3677 190.558 21.7207C189.397 21.0547 188.475 20.1319 187.789 18.9521C187.124 17.7724 186.791 16.3833 186.791 14.7849C186.791 13.1675 187.124 11.769 187.789 10.5892C188.475 9.40947 189.397 8.49611 190.558 7.84915C191.719 7.2022 193.022 6.87872 194.468 6.87872C195.762 6.87872 196.894 7.16414 197.865 7.73498C198.835 8.30583 199.587 9.17161 200.12 10.3323C200.653 11.4931 200.919 12.9773 200.919 14.7849C200.919 16.5736 200.662 18.0578 200.148 19.2375C199.635 20.3983 198.892 21.264 197.922 21.8349C196.971 22.4057 195.819 22.6912 194.468 22.6912ZM195.239 19.0377C195.962 19.0377 196.619 18.8665 197.208 18.524C197.798 18.1815 198.265 17.6962 198.607 17.0683C198.969 16.4214 199.149 15.6602 199.149 14.7849C199.149 13.8906 198.969 13.1295 198.607 12.5016C198.265 11.8736 197.798 11.3884 197.208 11.0459C196.619 10.7034 195.962 10.5321 195.239 10.5321C194.497 10.5321 193.831 10.7034 193.241 11.0459C192.651 11.3884 192.175 11.8736 191.814 12.5016C191.471 13.1295 191.3 13.8906 191.3 14.7849C191.3 15.6602 191.471 16.4214 191.814 17.0683C192.175 17.6962 192.651 18.1815 193.241 18.524C193.831 18.8665 194.497 19.0377 195.239 19.0377ZM199.263 22.4628V19.3232L199.349 14.7564L199.064 10.2182V1.28442H203.516V22.4628H199.263Z" fill="#3D65FF"/>
</svg>
