<svg width="707" height="610" viewBox="0 0 707 610" fill="none" xmlns="http://www.w3.org/2000/svg">
<path opacity="0.7" d="M65.3959 369.457C65.3959 372.207 81.5212 374.437 101.413 374.437C121.304 374.437 137.429 372.207 137.429 369.457C137.429 366.707 121.304 364.477 101.413 364.477C81.5212 364.477 65.3959 366.707 65.3959 369.457Z" fill="url(#paint0_linear_376_5446)"/>
<path opacity="0.7" d="M188.531 605.011C188.531 607.762 172.406 609.991 152.515 609.991C132.623 609.991 116.498 607.762 116.498 605.011C116.498 602.261 132.623 600.031 152.515 600.031C172.406 600.033 188.531 602.263 188.531 605.011Z" fill="url(#paint1_linear_376_5446)"/>
<path d="M99.2526 155.217H165.831V240.207H99.2526V155.217Z" fill="#3D65FF"/>
<path d="M102.493 155.217H169.071V240.207H102.493V155.217Z" fill="#3D65FF"/>
<path d="M155.167 164.297L154.104 163.847C153.715 163.686 153.374 163.557 153.062 163.446C152.259 164.077 152.39 164.168 152.18 164.908L160.889 168.886C160.889 168.896 160.889 168.896 160.889 168.906L157.132 170.619C155.258 171.48 153.614 172.242 152.19 172.864C152.402 173.636 152.231 173.695 153.072 174.356C153.542 174.197 153.963 174.015 154.334 173.846C156.819 172.714 160.026 171.27 163.985 169.447V168.856C163.985 168.785 163.854 168.696 163.574 168.575C163.683 168.616 163.786 168.646 163.885 168.686C163.885 168.646 163.885 168.606 163.885 168.555C163.885 168.434 163.866 168.305 163.715 168.214L155.167 164.297Z" fill="white"/>
<path d="M155.167 221.031L154.104 220.58C153.715 220.42 153.374 220.289 153.062 220.178C152.259 220.81 152.39 220.9 152.18 221.641L160.889 225.618C160.889 225.628 160.889 225.628 160.889 225.638L157.132 227.351C155.258 228.212 153.614 228.975 152.19 229.596C152.402 230.368 152.231 230.427 153.072 231.088C153.542 230.929 153.963 230.748 154.334 230.578C156.819 229.446 160.026 228.002 163.985 226.179V225.588C163.985 225.518 163.854 225.429 163.574 225.308C163.683 225.348 163.786 225.378 163.885 225.418C163.885 225.378 163.885 225.338 163.885 225.287C163.885 225.167 163.866 225.037 163.715 224.947L155.167 221.031Z" fill="white"/>
<path d="M109.317 166.767H143.178V170.332H109.317V166.767Z" fill="white"/>
<path d="M109.315 179.242H135.615V182.807H109.315V179.242Z" fill="white"/>
<path d="M109.315 189.934H123.733V193.499H109.315V189.934Z" fill="white"/>
<path d="M109.317 223.499H143.178V227.064H109.317V223.499Z" fill="white"/>
<path d="M109.315 211.024H135.615V214.589H109.315V211.024Z" fill="white"/>
<path d="M109.315 200.331H123.733V203.895H109.315V200.331Z" fill="white"/>
<path d="M147.487 219.424L151.013 232.125L148.48 232.328L144.955 219.626L147.487 219.424Z" fill="white"/>
<path d="M124.638 248.869L123.31 260.166L115.353 280.824L122.629 283.063L128.226 261.516L128.958 249.368L124.638 248.869Z" fill="#F4F4F4"/>
<path d="M107.635 303.494L111.191 339.446L110.006 371.051H122.253L122.911 368.697L114.516 367.578L118.994 339.595L123.033 304.792L107.635 303.494Z" fill="#241084"/>
<path d="M103.588 303.093L100.803 333.719L82.0546 358.623L84.2928 370.377H89.889L86.5309 367.858L85.9718 360.303L103.882 340.154L120.113 304.055L103.588 303.093Z" fill="#3D65FF"/>
<path d="M137.265 253.686L133.354 254.979C131.762 259.585 129.113 263.754 125.619 267.149L118.3 274.259L109.29 280.344L102.596 305.172L123.535 307.148L124.227 279.79L132.001 270.072C135.198 266.076 137.36 261.356 138.299 256.326L137.265 253.686Z" fill="white"/>
<path d="M132.945 256.344L138.095 258.173L141.417 240.728L140.418 239.247L132.945 256.344Z" fill="#FFCFD3"/>
<path d="M131.783 256.012L138.262 259.168C138.262 259.168 139.592 258.005 139.426 257.342C139.259 256.677 138.927 256.178 138.428 255.846C137.93 255.513 132.946 253.686 132.946 253.686L131.783 256.012Z" fill="#3D65FF"/>
<path d="M128.958 249.368L129.29 240.065H125.635L124.637 248.869L128.958 249.368Z" fill="#FFCFD3"/>
<path d="M137.308 239.883C137.357 239.85 139.649 238.59 139.697 238.428C139.746 238.265 141.366 234.353 141.366 234.353L143.697 234.682L143.032 241.106L139.82 241.881L137.308 239.883Z" fill="#FFCFD3"/>
<path d="M103.702 269.439C105.264 273.017 110.322 276.697 113.9 275.136C117.478 273.574 118.221 267.364 116.659 263.786C115.098 260.208 110.932 258.572 107.354 260.134C103.776 261.695 102.141 265.861 103.702 269.439Z" fill="#FFCFD3"/>
<path d="M114.37 261.603C114.989 261.163 115.634 260.757 116.297 260.386C116.774 260.12 117.524 259.958 117.736 260.46C117.84 260.708 117.731 260.99 117.624 261.237C117.261 262.065 116.865 262.934 116.124 263.452C115.5 263.886 114.668 264.011 113.945 263.774C113.293 263.561 112.654 263.064 112.587 262.39C113.243 262.265 113.822 261.992 114.37 261.603Z" fill="#FFCFD3"/>
<path d="M113.105 275.388C109.611 276.162 105.152 272.76 103.703 269.441C102.141 265.863 103.777 261.697 107.355 260.135C107.571 260.041 107.793 259.996 108.013 259.924C108.421 260.359 108.753 260.872 108.901 261.364C109.475 263.275 109.041 265.532 107.832 267.12C107.832 267.12 111.878 274.75 113.105 275.388Z" fill="#241084"/>
<path d="M107.36 268.265C106.84 268.536 106.44 269.006 106.189 269.535C105.376 271.239 107.305 272.913 108.954 272.691C109.486 272.619 109.992 272.406 110.453 272.134C110.855 271.899 111.246 271.596 111.425 271.167C111.598 270.752 111.543 270.265 111.355 269.857C111.167 269.449 110.856 269.108 110.52 268.809C109.751 268.128 108.301 267.775 107.36 268.265Z" fill="#FFCFD3"/>
<path d="M111.095 262.708C112.338 263.534 113.849 263.443 114.474 262.506C115.097 261.569 114.596 260.139 113.354 259.313C112.111 258.487 110.6 258.577 109.976 259.514C109.353 260.451 109.853 261.882 111.095 262.708Z" fill="white"/>
<path opacity="0.7" d="M98.3958 460.559L185.22 462.236H548.862L380.676 475.675C392.629 477.458 399.945 479.844 399.945 482.466C399.945 487.987 367.578 492.462 327.651 492.462C295.189 492.462 267.725 489.503 258.59 485.43L170.592 492.462L98.3958 460.559Z" fill="url(#paint2_linear_376_5446)"/>
<path d="M185.218 89.4951H539.769V462.234H185.218V89.4951Z" fill="#3D65FF"/>
<path d="M194.311 89.4951H548.861V462.234H194.311V89.4951Z" fill="white"/>
<path d="M194.311 89.4951H548.861V118.527H194.311V89.4951Z" fill="#80E0FF"/>
<g opacity="0.2">
<path d="M440.38 374.23C440.838 374.104 441.298 374.042 441.755 374.022C441.854 374.017 441.952 374.032 442.051 374.032C442.422 374.032 442.786 374.057 443.144 374.121C443.214 374.134 443.281 374.155 443.352 374.17C443.748 374.254 444.131 374.375 444.5 374.531C444.526 374.542 444.551 374.554 444.578 374.566C446.262 375.306 447.622 376.745 448.146 378.658C449.067 382.024 447.613 387.426 444.247 388.347C442.684 388.775 440.985 388.154 439.519 387.038L439.515 387.036C438.96 386.611 438.439 386.119 437.971 385.58C437.952 385.56 437.937 385.538 437.919 385.518C437.715 385.28 437.524 385.035 437.343 384.783C437.316 384.744 437.286 384.707 437.26 384.669C437.072 384.398 436.896 384.125 436.74 383.846C436.72 383.809 436.703 383.774 436.683 383.737C436.554 383.5 436.438 383.263 436.332 383.025C436.3 382.953 436.27 382.882 436.24 382.81C436.129 382.536 436.028 382.264 435.956 381.996C435.726 381.154 435.677 380.305 435.785 379.492C436.11 377.051 437.855 374.922 440.38 374.23Z" fill="#3D65FF"/>
<path d="M460.048 353.922L460.292 353.958L455.901 391.522L452.486 426.647L449.586 462.236H444.504L443.162 426.249L439.835 426.108L437.694 462.236H431.854L429.557 425.67L430.046 392.985L420.778 354.444L421.154 354.391C420.922 353.971 420.778 353.496 420.778 352.982V352.979H399.165V289.624H481.219V352.979H460.602C460.476 353.328 460.288 353.647 460.048 353.922ZM455.104 352.977H426.631V352.98C426.631 354.208 425.873 355.255 424.801 355.69L436.874 390.056L449.071 389.081L456.618 354.649C455.911 354.32 455.365 353.717 455.104 352.977Z" fill="#3D65FF"/>
</g>
<path opacity="0.2" d="M328.599 462.236H326.897L324.793 449.573H291.711L289.606 462.236H287.903L290.009 449.573H285.557L287.663 462.236H285.96L283.855 449.573H250.775L248.671 462.236H246.969L265.367 351.541H261.826V346.504H312.197V351.541H310.199L328.599 462.236ZM312.885 377.936H303.619L300.92 394.167H315.582L312.885 377.936ZM296.243 412.075L298.941 395.846H276.63L279.328 412.075H296.243ZM279.605 413.754L282.304 429.983H293.266L295.964 413.754H279.605ZM299.22 394.167L301.918 377.936H273.653L276.351 394.167H299.22ZM315.862 395.846H300.642L297.944 412.075H318.559L315.862 395.846ZM318.839 413.754H297.665L294.967 429.983H321.535L318.839 413.754ZM324.512 447.894L321.814 431.662H294.688L291.99 447.894H324.512ZM285.28 447.894H290.289L292.987 431.662H282.582L285.28 447.894ZM251.055 447.894H283.578L280.88 431.662H253.753L251.055 447.894ZM254.032 429.983H280.601L277.904 413.754H256.73L254.032 429.983ZM257.009 412.075H277.626L274.928 395.846H259.707L257.009 412.075ZM259.986 394.167H274.649L271.951 377.936H262.684L259.986 394.167ZM267.07 351.54L262.961 376.257H271.67L267.562 351.54H267.07ZM269.264 351.54L273.373 376.257H302.197L306.305 351.54H269.264ZM308.006 351.54L303.897 376.257H312.605L308.496 351.54H308.006Z" fill="#3D65FF"/>
<path d="M0.189133 64.5449H66.7673V233.493H0.189133V64.5449Z" fill="#80E0FF"/>
<path d="M3.42912 64.5449H70.0073V233.493H3.42912V64.5449Z" fill="#32CDD7"/>
<path d="M54.3324 73.0459L53.2696 72.5943C52.8801 72.4348 52.5393 72.3038 52.227 72.193C51.4261 72.8243 51.5554 72.915 51.3455 73.6554L60.0545 77.633C60.0545 77.6431 60.0545 77.6431 60.0545 77.6532L56.2969 79.3674C54.4231 80.2288 52.7793 80.9911 51.3555 81.6123C51.5671 82.3846 51.3958 82.4434 52.237 83.105C52.7071 82.9438 53.1286 82.7641 53.4997 82.5945C55.9846 81.4629 59.1915 80.0189 63.1506 78.1955V77.6045C63.1506 77.534 63.0197 77.445 62.7393 77.3241C62.8484 77.3644 62.9508 77.3946 63.0499 77.4349C63.0499 77.3946 63.0499 77.3543 63.0499 77.3039C63.0499 77.183 63.0315 77.0538 62.8803 76.9631L54.3324 73.0459Z" fill="white"/>
<path d="M54.3324 129.78L53.2696 129.328C52.8801 129.167 52.5393 129.038 52.227 128.927C51.4261 129.558 51.5554 129.649 51.3455 130.39L60.0545 134.367C60.0545 134.377 60.0545 134.377 60.0545 134.387L56.2969 136.102C54.4231 136.963 52.7793 137.725 51.3555 138.346C51.5671 139.119 51.3958 139.178 52.237 139.839C52.7071 139.678 53.1286 139.498 53.4997 139.329C55.9846 138.197 59.1915 136.753 63.1506 134.93V134.339C63.1506 134.268 63.0197 134.177 62.7393 134.058C62.8484 134.099 62.9508 134.129 63.0499 134.169C63.0499 134.129 63.0499 134.088 63.0499 134.038C63.0499 133.917 63.0315 133.788 62.8803 133.697L54.3324 129.78Z" fill="white"/>
<path d="M8.48126 75.514H42.342V79.0786H8.48126V75.514Z" fill="white"/>
<path d="M8.47986 87.991H34.78V91.5555H8.47986V87.991Z" fill="white"/>
<path d="M8.48122 98.6827H22.8989V102.247H8.48122V98.6827Z" fill="white"/>
<path d="M8.48126 132.248H42.342V135.813H8.48126V132.248Z" fill="white"/>
<path d="M8.47986 119.773H34.78V123.338H8.47986V119.773Z" fill="white"/>
<path d="M8.48122 109.079H22.8989V112.644H8.48122V109.079Z" fill="white"/>
<path d="M46.6518 128.171L50.1777 140.873L47.6458 141.076L44.1198 128.375L46.6518 128.171Z" fill="white"/>
<path d="M54.3324 150.14L53.2696 149.688C52.8801 149.527 52.5393 149.397 52.227 149.287C51.4261 149.918 51.5554 150.009 51.3455 150.749L60.0545 154.727C60.0545 154.737 60.0545 154.737 60.0545 154.747L56.2969 156.461C54.4231 157.322 52.7793 158.085 51.3555 158.706C51.5671 159.478 51.3958 159.537 52.237 160.199C52.7071 160.037 53.1286 159.858 53.4997 159.688C55.9846 158.557 59.1915 157.113 63.1506 155.289V154.698C63.1506 154.628 63.0197 154.537 62.7393 154.418C62.8484 154.458 62.9508 154.488 63.0499 154.529C63.0499 154.488 63.0499 154.448 63.0499 154.398C63.0499 154.277 63.0315 154.147 62.8803 154.057L54.3324 150.14Z" fill="white"/>
<path d="M54.3324 206.872L53.2696 206.42C52.8801 206.259 52.5393 206.13 52.227 206.019C51.4261 206.65 51.5554 206.741 51.3455 207.482L60.0545 211.459C60.0545 211.469 60.0545 211.469 60.0545 211.479L56.2969 213.194C54.4231 214.055 52.7793 214.817 51.3555 215.438C51.5671 216.211 51.3958 216.27 52.237 216.931C52.7071 216.772 53.1286 216.59 53.4997 216.421C55.9846 215.289 59.1915 213.845 63.1506 212.022V211.431C63.1506 211.36 63.0197 211.269 62.7393 211.15C62.8484 211.191 62.9508 211.221 63.0499 211.261C63.0499 211.221 63.0499 211.18 63.0499 211.13C63.0499 211.009 63.0315 210.88 62.8803 210.789L54.3324 206.872Z" fill="white"/>
<path d="M8.48126 152.608H42.342V156.172H8.48126V152.608Z" fill="white"/>
<path d="M8.47986 165.083H34.78V168.647H8.47986V165.083Z" fill="white"/>
<path d="M8.48122 175.776H22.8989V179.341H8.48122V175.776Z" fill="white"/>
<path d="M8.48126 209.34H42.342V212.905H8.48126V209.34Z" fill="white"/>
<path d="M8.47986 196.865H34.78V200.43H8.47986V196.865Z" fill="white"/>
<path d="M8.48122 186.171H22.8989V189.736H8.48122V186.171Z" fill="white"/>
<path d="M46.6518 205.265L50.1777 217.965L47.6458 218.168L44.1198 205.468L46.6518 205.265Z" fill="white"/>
<path d="M424.351 306.413H506.406V369.767H424.351V306.413Z" fill="#80E0FF"/>
<path d="M306.178 348.448L307.834 348.724L285.534 482.863L283.878 482.588L306.178 348.448Z" fill="#241084"/>
<path d="M347.119 348.456L348.775 348.731L326.475 482.871L324.819 482.596L347.119 348.456Z" fill="#241084"/>
<path d="M301.921 376.256H343.221V377.935H301.921V376.256Z" fill="#241084"/>
<path d="M298.995 394.167H340.298V395.846H298.995V394.167Z" fill="#241084"/>
<path d="M296.073 412.075H337.374V413.754H296.073V412.075Z" fill="#241084"/>
<path d="M293.149 429.983H334.449V431.662H293.149V429.983Z" fill="#241084"/>
<path d="M290.226 447.893H331.526V449.572H290.226V447.893Z" fill="#241084"/>
<path d="M287.301 465.802H328.604V467.481H287.301V465.802Z" fill="#241084"/>
<path d="M350.03 348.468L372.344 482.594L370.688 482.87L348.374 348.744L350.03 348.468Z" fill="#3D65FF"/>
<path d="M309.103 348.458L331.417 482.584L329.761 482.86L307.447 348.734L309.103 348.458Z" fill="#3D65FF"/>
<path d="M313.001 376.256H354.302V377.935H313.001V376.256Z" fill="#3D65FF"/>
<path d="M315.925 394.167H357.225V395.846H315.925V394.167Z" fill="#3D65FF"/>
<path d="M318.851 412.075H360.151V413.754H318.851V412.075Z" fill="#3D65FF"/>
<path d="M321.774 429.983H363.074V431.662H321.774V429.983Z" fill="#3D65FF"/>
<path d="M324.699 447.893H365.999V449.572H324.699V447.893Z" fill="#3D65FF"/>
<path d="M327.622 465.802H368.922V467.481H327.622V465.802Z" fill="#3D65FF"/>
<path d="M302.156 346.503H352.526V351.54H302.156V346.503Z" fill="#80E0FF"/>
<path d="M168.993 548.616L172.408 513.491L176.798 475.928L173.383 475.44L165.577 511.052L153.381 512.029L140.698 475.928L137.283 476.415L146.552 514.955L146.064 547.641L168.993 548.616Z" fill="white"/>
<path d="M164.653 500.628C165.574 503.995 164.12 509.396 160.754 510.318C157.387 511.24 153.385 507.333 152.463 503.966C151.541 500.6 153.522 497.124 156.889 496.202C160.254 495.281 163.731 497.262 164.653 500.628Z" fill="#FFCFD3"/>
<path d="M160.153 498.684C160.841 498.496 161.805 498.022 162.173 497.374C162.208 497.314 162.223 497.255 162.243 497.196C160.747 496.117 158.808 495.675 156.889 496.201C153.523 497.122 151.541 500.6 152.463 503.964C153.121 506.369 155.351 509.038 157.799 510.037C157.755 509.359 157.589 508.687 157.416 508.026C156.718 505.365 155.942 502.724 155.087 500.108C156.808 499.768 158.504 499.29 160.153 498.684Z" fill="#2B159B"/>
<path d="M156.218 503.832C155.761 503.499 155.138 503.348 154.618 503.57C154.497 503.622 154.384 503.692 154.292 503.785C154.04 504.035 153.968 504.419 153.998 504.774C154.082 505.751 154.886 506.57 155.823 506.861C156.089 506.943 156.372 506.988 156.646 506.948C156.921 506.906 157.19 506.77 157.349 506.542C157.937 505.701 156.874 504.31 156.218 503.832Z" fill="#FFCFD3"/>
<path d="M146.064 547.641L149.449 601.516H153.177L156.342 548.077L159.669 548.22L161.704 602.834L164.581 602.768L168.993 548.616L169.641 541.946L146.145 542.251L146.064 547.641Z" fill="#3D65FF"/>
<path d="M149.45 601.515L141.254 602.419L141.552 603.69H153.553L153.177 601.515H149.45Z" fill="#3D65FF"/>
<path d="M161.703 602.833V604.365L172.961 604.79V603.382L164.58 602.768L161.703 602.833Z" fill="#3D65FF"/>
<path d="M158.614 505.195C160.664 505.418 162.294 503.35 164.339 503.091C164.467 503.075 164.603 503.068 164.72 503.122C164.871 503.192 164.959 503.352 165.036 503.501C165.296 504.006 165.555 504.512 165.813 505.017C166.079 505.533 166.346 506.058 166.461 506.626C166.601 507.306 166.514 508.011 166.399 508.696C166.309 509.238 166.196 509.786 165.953 510.279C165.518 511.161 164.682 511.805 163.758 512.145C162.835 512.482 161.827 512.534 160.847 512.447C160.179 512.388 159.505 512.26 158.906 511.96C157.579 511.292 156.77 509.72 156.999 508.251C157.056 507.888 157.168 507.527 157.128 507.161C157.089 506.805 156.91 506.481 156.733 506.169C156.532 505.813 155.178 504.04 156.24 504.03C156.56 504.027 157.027 504.577 157.309 504.74C157.712 504.972 158.149 505.145 158.614 505.195Z" fill="#2B159B"/>
<path d="M145.069 488.371H140.158L137.282 476.415L140.697 475.928L145.069 488.371Z" fill="url(#paint3_linear_376_5446)"/>
<path d="M173.383 475.44L176.798 475.928L175.344 488.371H170.549L173.383 475.44Z" fill="url(#paint4_linear_376_5446)"/>
<path d="M171.432 473.976C171.432 475.592 172.743 476.902 174.359 476.902C175.976 476.902 177.285 475.592 177.285 473.976C177.285 472.359 175.976 471.049 174.359 471.049C172.742 471.049 171.432 472.36 171.432 473.976Z" fill="#FFCFD3"/>
<path d="M137.284 474.951C137.284 476.568 138.595 477.878 140.21 477.878C141.826 477.878 143.137 476.566 143.137 474.951C143.137 473.336 141.827 472.025 140.21 472.025C138.594 472.025 137.284 473.336 137.284 474.951Z" fill="#FFCFD3"/>
<path d="M477.674 443.436L481.089 408.311L485.48 370.748L482.065 370.259L474.259 405.873L462.062 406.848L449.379 370.748L445.964 371.235L455.232 409.775L454.745 442.46L477.674 443.436Z" fill="#32CDD7"/>
<path d="M480.114 368.797C480.114 370.414 481.425 371.723 483.04 371.723C484.655 371.723 485.967 370.414 485.967 368.797C485.967 367.18 484.655 365.87 483.04 365.87C481.425 365.87 480.114 367.18 480.114 368.797Z" fill="#FFCFD3"/>
<path d="M445.964 369.772C445.964 371.389 447.274 372.699 448.891 372.699C450.507 372.699 451.817 371.387 451.817 369.772C451.817 368.157 450.507 366.846 448.891 366.846C447.274 366.844 445.964 368.155 445.964 369.772Z" fill="#FFCFD3"/>
<path d="M462.529 401.571C462.502 401.534 462.473 401.497 462.446 401.458C462.258 401.188 462.082 400.915 461.924 400.636C461.904 400.599 461.887 400.564 461.867 400.527C461.738 400.29 461.622 400.053 461.516 399.815C461.484 399.743 461.454 399.672 461.426 399.602C461.315 399.328 461.214 399.056 461.14 398.785C460.91 397.944 460.861 397.095 460.969 396.282C461.039 395.748 461.202 395.241 461.402 394.749C461.807 393.755 462.441 392.864 463.289 392.184C463.484 392.027 463.704 391.903 463.917 391.771C464.07 391.675 464.209 391.562 464.371 391.48C464.745 391.29 465.145 391.134 465.566 391.02H465.569C466.028 390.896 466.486 390.834 466.939 390.812C467.04 390.807 467.136 390.822 467.237 390.822C467.606 390.822 467.97 390.847 468.328 390.911C468.399 390.924 468.466 390.944 468.536 390.96C468.933 391.044 469.314 391.164 469.685 391.321C469.71 391.332 469.735 391.344 469.76 391.354C471.444 392.095 472.806 393.534 473.33 395.446C474.252 398.812 472.798 404.214 469.431 405.136C467.868 405.564 466.171 404.944 464.705 403.826L464.7 403.821C464.144 403.398 463.623 402.904 463.157 402.365C463.138 402.345 463.121 402.323 463.105 402.303C462.901 402.068 462.71 401.823 462.529 401.571Z" fill="#241084"/>
<path d="M454.745 442.46L458.13 496.337H461.858L465.023 442.898L468.351 443.04L470.386 497.653L473.262 497.588L477.674 443.436L478.322 436.765L454.826 437.071L454.745 442.46Z" fill="#3D65FF"/>
<path d="M458.131 496.337L449.935 497.238L450.232 498.509H462.232L461.858 496.337H458.131Z" fill="#3D65FF"/>
<path d="M470.385 497.653V499.184L481.643 499.609V498.202L473.261 497.587L470.385 497.653Z" fill="#3D65FF"/>
<path d="M227.804 474.195H86.7676L86.7676 390.244H227.804V474.195Z" fill="white"/>
<path d="M157.227 463.18H94.3096L94.3096 400.85H157.227V463.18Z" fill="#80E0FF"/>
<path d="M219.818 406.731H164.872V401.439H219.818V406.731Z" fill="#3D65FF"/>
<path d="M219.818 419.667H164.872V414.375H219.818V419.667Z" fill="#3D65FF"/>
<path d="M219.818 432.603H164.872V427.311H219.818V432.603Z" fill="#3D65FF"/>
<path d="M219.818 445.541H164.872V440.248H219.818V445.541Z" fill="#3D65FF"/>
<path d="M219.818 458.476H164.872V453.184H219.818V458.476Z" fill="#3D65FF"/>
<path opacity="0.7" d="M607.757 475.619C565.535 475.619 531.306 470.887 531.306 465.05C531.306 459.213 565.535 454.48 607.757 454.48C649.98 454.48 684.208 459.213 684.208 465.05C684.208 470.887 649.98 475.619 607.757 475.619Z" fill="url(#paint5_linear_376_5446)"/>
<g opacity="0.2">
<path d="M329.198 239.627C328.573 240.123 327.903 240.617 327.138 240.807C327.141 241.015 327.17 241.217 327.155 241.428C326.862 245.322 323.303 250.466 319.411 250.174C319.13 250.152 318.858 250.097 318.59 250.023H318.588C317.535 249.733 316.587 249.058 315.783 248.154C315.759 248.127 315.732 248.102 315.709 248.074C315.581 247.926 315.458 247.771 315.339 247.614C315.301 247.562 315.259 247.511 315.222 247.459C315.114 247.311 315.012 247.159 314.911 247.004C314.866 246.934 314.819 246.863 314.773 246.791C314.683 246.645 314.597 246.494 314.513 246.343C314.464 246.255 314.417 246.17 314.372 246.081C314.297 245.935 314.224 245.789 314.154 245.639C314.107 245.538 314.06 245.436 314.016 245.333C313.954 245.191 313.895 245.05 313.838 244.905C313.793 244.789 313.751 244.675 313.709 244.559C313.66 244.423 313.613 244.287 313.57 244.15C313.529 244.022 313.492 243.896 313.457 243.769C313.42 243.639 313.385 243.512 313.351 243.382C313.318 243.245 313.289 243.107 313.261 242.969C313.235 242.849 313.209 242.729 313.188 242.61C313.163 242.461 313.145 242.315 313.125 242.169C313.111 242.061 313.093 241.952 313.083 241.844C313.066 241.68 313.059 241.519 313.052 241.358C313.049 241.27 313.039 241.181 313.039 241.094C313.037 240.997 313.044 240.903 313.046 240.807C312.527 241.037 311.956 241.17 311.352 241.17C309.033 241.17 307.154 239.291 307.154 236.972C307.154 234.653 309.033 232.774 311.352 232.774C313.227 232.774 314.797 234.014 315.336 235.713C315.393 235.661 315.438 235.595 315.497 235.545C315.84 235.249 316.211 234.987 316.605 234.762C317.393 234.312 318.273 234.01 319.204 233.891C319.669 233.832 320.15 233.817 320.635 233.854C323.454 234.066 325.744 235.914 326.691 238.389C327.267 238.329 327.845 238.268 328.424 238.256C328.97 238.245 329.71 238.451 329.661 238.995C329.638 239.26 329.409 239.46 329.198 239.627Z" fill="#3D65FF"/>
<path d="M257.72 295.867L280.234 296.891L295.708 271.662L295.381 271.447L312.901 252.625L316.735 252.211L340.101 240.642L348.517 232.988L350.911 235.607L346.045 182.963L416.087 176.49C415.817 175.856 415.667 175.157 415.667 174.423C415.667 171.791 417.597 169.626 420.113 169.222V63.049H421.792V169.222C424.309 169.626 426.239 171.791 426.239 174.423C426.239 174.816 426.188 175.196 426.108 175.563L486.63 169.971L493.325 242.419L352.741 255.411L351.64 243.492C346.943 247.86 340.874 252.81 337.781 254.155L326.367 259.113L313.224 282.524L313.311 282.579L313.099 282.744L312.97 282.975L312.88 282.917L312.456 283.247L308.768 315.025L304.29 343.009L312.685 344.129L312.027 346.483H299.78L300.965 314.877L298.887 293.85L283.648 305.756L258.647 300.024L256.226 306.366L254.267 305.526L257.72 295.867ZM351.007 236.651L347.58 240.145C348.846 239.229 350.028 238.337 351.087 237.513L351.007 236.651Z" fill="#3D65FF"/>
</g>
<path d="M526.934 242.418L386.343 255.407L379.65 182.956L520.24 169.967L526.934 242.418Z" fill="#32CDD7"/>
<path d="M382.099 232.989L373.686 240.644L345.95 254.375L358.15 257.478L376.51 244.887L385.033 236.2L382.099 232.989Z" fill="#32CDD7"/>
<path d="M346.64 240.37C346.348 244.262 349.1 249.882 352.992 250.172C356.884 250.464 360.444 245.32 360.736 241.428C361.028 237.536 358.11 234.143 354.216 233.851C350.326 233.558 346.932 236.478 346.64 240.37Z" fill="#FFCFD3"/>
<path d="M388.032 231.565C388.064 231.569 389.234 230.963 389.234 230.963L390.366 232.818L396.112 229.594L398.019 231.717L389.914 237.838L388.15 235.622L389.068 234.371L388.692 232.998L388.032 231.565Z" fill="#FFCFD3"/>
<path d="M330.992 278.929L334.548 314.88L333.363 346.484H345.609L346.268 344.13L337.872 343.012L342.35 315.028L346.39 280.227L330.992 278.929Z" fill="#241084"/>
<path d="M388.037 234.715C384.478 238.043 371.766 247.222 367.09 248.591L357.298 251.457L346.488 252.625L328.968 271.447L346.555 282.979L359.952 259.115L371.366 254.157C376.059 252.118 387.628 241.767 390.808 237.759L388.037 234.715Z" fill="#80E0FF"/>
<path d="M359.733 238.429C360.487 238.33 361.246 238.272 362.007 238.255C362.552 238.243 363.293 238.449 363.244 238.993C363.221 239.262 362.992 239.46 362.781 239.628C362.074 240.191 361.317 240.773 360.42 240.884C359.664 240.978 358.872 240.698 358.343 240.152C357.866 239.66 357.532 238.921 357.789 238.295C358.429 238.486 359.067 238.517 359.733 238.429Z" fill="#FFCFD3"/>
<path d="M623.929 433.965H594.827C594.16 433.965 593.556 433.57 593.289 432.957C593.022 432.346 593.143 431.634 593.596 431.144L621.58 400.923L624.045 403.203L598.672 430.605H623.929V433.965Z" fill="#3D65FF"/>
<path d="M352.172 250.023C348.721 249.074 346.369 243.983 346.639 240.37C346.931 236.478 350.325 233.558 354.217 233.851C354.452 233.869 354.67 233.931 354.897 233.971C355.054 234.547 355.108 235.157 355.009 235.659C354.625 237.617 353.184 239.408 351.374 240.249C351.374 240.249 351.386 248.886 352.172 250.023Z" fill="#241084"/>
<path d="M350.421 241.042C349.835 241.038 349.261 241.265 348.791 241.616C347.275 242.743 348.2 245.125 349.76 245.699C350.263 245.886 350.809 245.933 351.346 245.907C351.811 245.887 352.298 245.803 352.658 245.508C353.005 245.221 353.183 244.766 353.207 244.317C353.23 243.867 353.116 243.423 352.958 243.001C352.601 242.039 351.482 241.047 350.421 241.042Z" fill="#FFCFD3"/>
<path d="M291.305 295.867L313.819 296.891L329.509 271.306L346.894 282.582L317.229 305.76L292.228 300.027L289.807 306.369L287.848 305.53L291.305 295.867Z" fill="#3D65FF"/>
<path d="M344.935 241.168C342.617 241.168 340.737 239.288 340.737 236.97C340.737 234.652 342.617 232.773 344.935 232.773C347.253 232.773 349.132 234.652 349.132 236.97C349.132 239.288 347.253 241.168 344.935 241.168Z" fill="#241084"/>
<path d="M625.429 87.1193H592.578V447.553H625.429V87.1193ZM595.936 90.4773H622.071V444.195H595.936V90.4773Z" fill="#3D65FF"/>
<path d="M629.927 459.866H588.081V429.88H629.927V459.866Z" fill="#EFF6FF"/>
<path d="M623.929 309.867H594.827C594.16 309.867 593.556 309.472 593.289 308.859C593.022 308.248 593.143 307.536 593.596 307.046L621.58 276.825L624.045 279.105L598.672 306.507H623.929V309.867Z" fill="#3D65FF"/>
<path d="M623.931 340.89H594.828C594.162 340.89 593.557 340.495 593.29 339.882C593.023 339.271 593.144 338.559 593.598 338.069L621.58 307.85L624.045 310.13L598.672 337.532H623.931V340.89Z" fill="#3D65FF"/>
<path d="M623.929 371.915H594.827C594.16 371.915 593.556 371.52 593.289 370.907C593.022 370.296 593.143 369.584 593.596 369.094L621.58 338.873L624.045 341.153L598.672 368.555H623.929V371.915Z" fill="#3D65FF"/>
<path d="M623.929 402.94H594.827C594.16 402.94 593.556 402.545 593.289 401.932C593.022 401.321 593.143 400.609 593.596 400.119L621.58 369.898L624.045 372.178L598.672 399.58H623.929V402.94Z" fill="#3D65FF"/>
<path d="M623.929 279.587H594.827C594.16 279.587 593.556 279.192 593.289 278.58C593.022 277.968 593.143 277.257 593.596 276.766L621.58 246.544L624.045 248.824L598.672 276.227H623.929V279.587Z" fill="#3D65FF"/>
<path d="M623.929 249.308H594.827C594.16 249.308 593.556 248.913 593.289 248.3C593.022 247.689 593.143 246.977 593.596 246.487L621.58 216.265L624.045 218.545L598.672 245.948H623.929V249.308Z" fill="#3D65FF"/>
<path d="M623.929 219.028H594.827C594.16 219.028 593.556 218.634 593.289 218.021C593.022 217.41 593.143 216.698 593.596 216.207L621.58 185.985L624.045 188.265L598.672 215.668H623.929V219.028Z" fill="#3D65FF"/>
<path d="M623.929 188.749H594.827C594.16 188.749 593.556 188.354 593.289 187.741C593.022 187.13 593.143 186.418 593.596 185.928L621.58 155.706L624.045 157.986L598.672 185.389H623.929V188.749Z" fill="#3D65FF"/>
<path d="M623.929 158.469H594.827C594.16 158.469 593.556 158.075 593.289 157.462C593.022 156.851 593.143 156.139 593.596 155.649L621.58 125.426L624.045 127.706L598.672 155.11H623.929V158.469Z" fill="#3D65FF"/>
<path d="M623.929 128.188H594.827C594.16 128.188 593.556 127.794 593.289 127.181C593.022 126.57 593.143 125.858 593.596 125.367L621.58 95.145L624.045 97.4251L598.672 124.828H623.929V128.188Z" fill="#3D65FF"/>
<path d="M623.929 97.9104H594.827C594.16 97.9104 593.556 97.5158 593.289 96.903C593.022 96.2918 593.143 95.5799 593.596 95.0897L621.58 64.8673L624.045 67.1474L598.672 94.5507H623.929V97.9104Z" fill="#3D65FF"/>
<path d="M625.376 98.5122H572.119V53.6152L625.376 53.6152V98.5122Z" fill="#80E0FF"/>
<path d="M705.408 79.4036H652.152V53.6155L705.408 53.6155V79.4036Z" fill="#80E0FF"/>
<path d="M704.524 56.8936H441.477C440.55 56.8936 439.798 56.1414 439.798 55.2145C439.798 54.2877 440.55 53.5355 441.477 53.5355H704.524C705.45 53.5355 706.203 54.2877 706.203 55.2145C706.203 56.1414 705.45 56.8936 704.524 56.8936Z" fill="#3D65FF"/>
<path d="M453.696 63.0505H455.375V172.187H453.696V63.0505Z" fill="#3D65FF"/>
<path d="M644.2 467.701H573.809V454.506H644.2V467.701Z" fill="#3D65FF"/>
<path d="M598.942 56.4538C598.727 56.4538 598.512 56.3715 598.349 56.2086L584.323 42.1821H455.733L442.546 55.3691C442.219 55.6965 441.687 55.6965 441.359 55.3691C441.032 55.0417 441.032 54.5095 441.359 54.1821L455.037 40.5048H585.018L599.535 55.0216C599.862 55.349 599.862 55.8812 599.535 56.2086C599.372 56.3732 599.157 56.4538 598.942 56.4538Z" fill="#3D65FF"/>
<path d="M705.645 56.4536C705.343 56.4536 705.051 56.2891 704.901 56.0037L690.865 29.1897H656.824L643.626 55.1558C643.414 55.5688 642.909 55.73 642.497 55.5234C642.084 55.3136 641.92 54.8082 642.13 54.3952L655.795 27.5107H691.881L706.387 55.2246C706.602 55.6359 706.444 56.143 706.033 56.3579C705.909 56.4234 705.776 56.4536 705.645 56.4536Z" fill="#3D65FF"/>
<path d="M460.692 63.0506C460.692 66.4506 457.935 69.2075 454.535 69.2075C451.135 69.2075 448.378 66.4506 448.378 63.0506C448.378 59.6506 451.135 56.8936 454.535 56.8936C457.935 56.8936 460.692 59.6506 460.692 63.0506Z" fill="white"/>
<path d="M490.936 42.1703C490.577 42.1703 490.242 41.9369 490.133 41.576C489.997 41.1327 490.247 40.6626 490.691 40.5282L614.994 2.62605C615.183 2.56897 615.385 2.57904 615.564 2.65627L674.48 27.5209C674.906 27.7005 675.108 28.1925 674.926 28.6206C674.747 29.0488 674.253 29.2486 673.826 29.0673L615.192 4.32187L491.179 42.1351C491.099 42.1586 491.016 42.1703 490.936 42.1703Z" fill="#3D65FF"/>
<path d="M595.681 56.5662C595.483 56.5662 595.282 56.5309 595.085 56.4553C594.219 56.1263 593.784 55.1558 594.113 54.2894L613.686 2.78715C613.951 2.08868 614.639 1.64878 615.393 1.7109C616.139 1.77303 616.755 2.3187 616.901 3.05243L627.019 53.2837C627.202 54.192 626.612 55.0769 625.704 55.2616C624.797 55.4395 623.911 54.8552 623.726 53.9469L614.757 9.41928L597.25 55.4849C596.998 56.1531 596.358 56.5662 595.681 56.5662Z" fill="#3D65FF"/>
<path d="M618.639 3.38322C618.639 5.25197 617.125 6.76645 615.256 6.76645C613.387 6.76645 611.873 5.25197 611.873 3.38322C611.873 1.51447 613.387 0 615.256 0C617.125 0 618.639 1.51447 618.639 3.38322Z" fill="#BCCCFD"/>
<path d="M473.238 56.6148C473.053 56.6148 472.867 56.5543 472.711 56.4284L456.224 43.102V55.562C456.224 56.0254 455.848 56.4015 455.385 56.4015C454.921 56.4015 454.545 56.0254 454.545 55.562V41.3441C454.545 41.02 454.732 40.7262 455.024 40.5868C455.314 40.4458 455.662 40.4861 455.914 40.6926L473.768 55.1238C474.129 55.4143 474.185 55.9432 473.893 56.3042C473.725 56.5073 473.483 56.6148 473.238 56.6148Z" fill="#3D65FF"/>
<path d="M489.181 56.6148C488.996 56.6148 488.81 56.5543 488.654 56.4284L472.166 43.102V55.562C472.166 56.0254 471.79 56.4015 471.326 56.4015C470.863 56.4015 470.487 56.0254 470.487 55.562V41.3441C470.487 41.02 470.673 40.7262 470.965 40.5868C471.254 40.4458 471.602 40.4861 471.855 40.6926L489.71 55.1238C490.071 55.4143 490.126 55.9432 489.834 56.3042C489.67 56.5073 489.426 56.6148 489.181 56.6148Z" fill="#3D65FF"/>
<path d="M505.124 56.6148C504.939 56.6148 504.753 56.5543 504.597 56.4284L488.109 43.102V55.562C488.109 56.0254 487.733 56.4015 487.269 56.4015C486.806 56.4015 486.43 56.0254 486.43 55.562V41.3441C486.43 41.02 486.616 40.7262 486.908 40.5868C487.197 40.4458 487.545 40.4861 487.798 40.6926L505.653 55.1238C506.014 55.4143 506.069 55.9432 505.777 56.3042C505.611 56.5073 505.369 56.6148 505.124 56.6148Z" fill="#3D65FF"/>
<path d="M521.065 56.6148C520.881 56.6148 520.694 56.5543 520.538 56.4284L504.052 43.102V55.562C504.052 56.0254 503.676 56.4015 503.212 56.4015C502.749 56.4015 502.373 56.0254 502.373 55.562V41.3441C502.373 41.02 502.559 40.7262 502.851 40.5868C503.142 40.4458 503.488 40.4861 503.741 40.6926L521.596 55.1238C521.957 55.4143 522.012 55.9432 521.72 56.3042C521.552 56.5073 521.31 56.6148 521.065 56.6148Z" fill="#3D65FF"/>
<path d="M537.011 56.6148C536.826 56.6148 536.64 56.5543 536.484 56.4284L519.996 43.102V55.562C519.996 56.0254 519.62 56.4015 519.156 56.4015C518.693 56.4015 518.317 56.0254 518.317 55.562V41.3441C518.317 41.02 518.503 40.7262 518.795 40.5868C519.086 40.4458 519.432 40.4861 519.685 40.6926L537.54 55.1238C537.901 55.4143 537.956 55.9432 537.664 56.3042C537.498 56.5073 537.256 56.6148 537.011 56.6148Z" fill="#3D65FF"/>
<path d="M552.953 56.6148C552.769 56.6148 552.582 56.5543 552.426 56.4284L535.938 43.102V55.562C535.938 56.0254 535.562 56.4015 535.099 56.4015C534.635 56.4015 534.259 56.0254 534.259 55.562V41.3441C534.259 41.02 534.446 40.7262 534.738 40.5868C535.026 40.4458 535.374 40.4861 535.628 40.6926L553.482 55.1238C553.843 55.4143 553.899 55.9432 553.607 56.3042C553.442 56.5073 553.199 56.6148 552.953 56.6148Z" fill="#3D65FF"/>
<path d="M568.896 56.6148C568.712 56.6148 568.525 56.5543 568.369 56.4284L551.881 43.102V55.562C551.881 56.0254 551.505 56.4015 551.042 56.4015C550.578 56.4015 550.202 56.0254 550.202 55.562V41.3441C550.202 41.02 550.388 40.7262 550.681 40.5868C550.969 40.4458 551.317 40.4861 551.57 40.6926L569.425 55.1238C569.786 55.4143 569.842 55.9432 569.549 56.3042C569.385 56.5073 569.141 56.6148 568.896 56.6148Z" fill="#3D65FF"/>
<path d="M584.839 56.6148C584.654 56.6148 584.468 56.5543 584.312 56.4284L567.824 43.102V55.562C567.824 56.0254 567.448 56.4015 566.984 56.4015C566.521 56.4015 566.145 56.0254 566.145 55.562V41.3441C566.145 41.02 566.331 40.7262 566.623 40.5868C566.914 40.4458 567.261 40.4861 567.513 40.6926L585.368 55.1238C585.729 55.4143 585.784 55.9432 585.492 56.3042C585.326 56.5073 585.084 56.6148 584.839 56.6148Z" fill="#3D65FF"/>
<path d="M679.092 56.6148C678.854 56.6148 678.617 56.5141 678.451 56.3176L657.037 31.0467V55.5621C657.037 56.0255 656.661 56.4016 656.197 56.4016C655.734 56.4016 655.358 56.0255 655.358 55.5621V28.7565C655.358 28.4039 655.578 28.0899 655.908 27.969C656.241 27.8465 656.61 27.9438 656.839 28.2142L679.73 55.2313C680.031 55.5839 679.985 56.1144 679.633 56.4133C679.477 56.5493 679.282 56.6148 679.092 56.6148Z" fill="#3D65FF"/>
<path d="M695.56 56.615C695.288 56.615 695.021 56.4823 694.86 56.2389L678.544 31.5505V55.5622C678.544 56.0256 678.168 56.4017 677.705 56.4017C677.242 56.4017 676.865 56.0256 676.865 55.5622V28.7566C676.865 28.3856 677.109 28.0582 677.463 27.9524C677.822 27.8483 678.202 27.986 678.405 28.2932L696.26 55.3104C696.515 55.6965 696.409 56.217 696.023 56.4739C695.88 56.5696 695.719 56.615 695.56 56.615Z" fill="#3D65FF"/>
<path d="M459.823 174.425C459.823 177.345 457.455 179.711 454.537 179.711C451.617 179.711 449.251 177.343 449.251 174.425C449.251 171.505 451.619 169.14 454.537 169.14C457.455 169.14 459.823 171.505 459.823 174.425Z" fill="#3D65FF"/>
<path d="M23.6184 308.587L24.9666 289.974L22.8846 276.273L15.8126 235.899L19.2277 235.411L27.0335 271.024L39.2299 272L51.9132 235.899L55.3284 236.386L46.0601 274.926L42.8062 289.658L43.189 307.612L23.6184 308.587Z" fill="white"/>
<path d="M40.6702 261.733C40.6702 265.223 37.841 270.049 34.3503 270.049C30.8596 270.049 28.0305 265.223 28.0305 261.733C28.0305 258.242 30.8596 255.413 34.3503 255.413C37.841 255.413 40.6702 258.242 40.6702 261.733Z" fill="#FFCFD3"/>
<path opacity="0.7" d="M1.93468 362.67C1.93468 365.421 18.06 367.65 37.9513 367.65C57.8427 367.65 73.968 365.421 73.968 362.67C73.968 359.92 57.8427 357.69 37.9513 357.69C18.06 357.69 1.93468 359.92 1.93468 362.67Z" fill="url(#paint6_linear_376_5446)"/>
<path d="M31.6903 262.596C31.3377 262.154 30.7752 261.844 30.216 261.921C30.0868 261.939 29.9575 261.978 29.845 262.042C29.5361 262.218 29.3648 262.567 29.301 262.916C29.1247 263.88 29.6838 264.884 30.5099 265.411C30.745 265.561 31.0052 265.68 31.2805 265.712C31.5576 265.744 31.8514 265.683 32.0664 265.505C32.8555 264.852 32.1956 263.23 31.6903 262.596Z" fill="#FFCFD3"/>
<path d="M31.6965 262.243C31.5538 262.312 31.3875 262.377 31.2398 262.32C31.092 262.263 31.0148 262.104 30.9174 261.978C30.538 261.482 29.7068 261.484 29.2636 261.922C28.8203 262.361 28.7767 263.111 29.0839 263.655C29.3912 264.199 29.9906 264.537 30.6068 264.629C31.0131 266.078 31.1793 267.592 31.1004 269.095C30.0947 269.169 29.0906 269.243 28.0849 269.317C27.8901 269.33 27.6735 269.34 27.5191 269.219C27.373 269.107 27.3243 268.914 27.284 268.734C26.9096 267.01 26.7199 265.247 26.7249 263.482C26.7283 261.764 26.9331 259.981 27.8213 258.509C28.8824 256.746 33.2412 253.846 35.3668 255.472C37.7074 257.266 33.3167 261.466 31.6965 262.243Z" fill="#241084"/>
<path d="M37.0246 259.669C37.9799 261.115 39.3567 262.355 41.0341 262.794C41.5176 260.92 41.0979 258.833 39.9259 257.293C39.2677 256.427 36.8835 254.311 35.6141 254.808C34.2995 255.322 36.3781 258.69 37.0246 259.669Z" fill="#241084"/>
<path d="M24.3312 295.385L42.9885 294.514L57.3408 358.8L64.0015 354.745L55.8935 364.591L36.7829 311.601L37.0717 335.635L24.113 352.804L23.2869 359.002L22.9427 361.636L20.634 361.362L20.2143 351.918L30.2448 335.608L23.166 308.606L24.3312 295.385Z" fill="#80E0FF"/>
<path d="M23.1538 253.317L19.1124 254.734L15.8132 235.899L19.2283 235.411L23.1538 253.317Z" fill="#FFCFD3"/>
<path d="M46.6764 250.806L51.4112 252.674L55.3284 236.386L51.9132 235.899L46.6764 250.806Z" fill="#FFCFD3"/>
<path d="M30.8494 271.33L34.3501 277.546L36.1147 271.75L30.8494 271.33Z" fill="#FFCFD3"/>
<path d="M56.8552 233.948C56.8552 235.565 55.5439 236.875 53.9287 236.875C52.3135 236.875 51.0022 235.563 51.0022 233.948C51.0022 232.331 52.3118 231.022 53.9287 231.022C55.5456 231.022 56.8552 232.331 56.8552 233.948Z" fill="#FFCFD3"/>
<path d="M20.1101 234.496C20.1101 236.113 18.8005 237.422 17.1836 237.422C15.5667 237.422 14.257 236.111 14.257 234.496C14.257 232.879 15.5667 231.569 17.1836 231.569C18.8005 231.569 20.1101 232.879 20.1101 234.496Z" fill="#FFCFD3"/>
<path d="M42.0377 326.173L37.5311 313.678L37.1097 309.709L42.9879 294.514L49.2222 322.438C46.5542 323.863 43.9501 325.201 42.0377 326.173Z" fill="url(#paint7_linear_376_5446)"/>
<path d="M236.705 112.194H324.618C327.639 112.194 330.112 109.722 330.112 106.7V102.815C330.112 99.7942 327.64 97.321 324.618 97.321H236.705C233.684 97.321 231.211 99.7926 231.211 102.815V106.7C231.211 109.721 233.682 112.194 236.705 112.194Z" fill="white"/>
<path d="M682.593 548.38L477.496 558.383L410.632 529.781L437.485 528.977L682.593 548.38Z" fill="url(#paint8_linear_376_5446)"/>
<path d="M647.676 598.626L442.577 608.631L375.715 580.029L402.568 579.223L647.676 598.626Z" fill="url(#paint9_linear_376_5446)"/>
<path opacity="0.7" d="M425.047 499.233C425.047 501.983 441.173 504.213 461.064 504.213C480.955 504.213 497.081 501.983 497.081 499.233C497.081 496.483 480.955 494.253 461.064 494.253C441.173 494.253 425.047 496.484 425.047 499.233Z" fill="url(#paint10_linear_376_5446)"/>
<path opacity="0.7" d="M386.513 579.826C386.513 582.576 370.387 584.806 350.496 584.806C330.605 584.806 314.479 582.576 314.479 579.826C314.479 577.076 330.605 574.846 350.496 574.846C370.387 574.846 386.513 577.077 386.513 579.826Z" fill="url(#paint11_linear_376_5446)"/>
<path d="M682.525 543.343L682.592 548.38L481.128 551.058L437.484 528.977L437.417 523.94L682.525 543.343Z" fill="#3D65FF"/>
<path d="M481.128 551.058L682.592 548.38L638.95 526.297L437.484 528.977L481.128 551.058Z" fill="#3D65FF"/>
<path d="M481.062 546.021L682.526 543.343L638.883 521.26L437.417 523.94L481.062 546.021Z" fill="white"/>
<path d="M527.855 526.616L638.555 525.145L635.256 523.475L524.556 524.947L527.855 526.616Z" fill="#32CDD7"/>
<path d="M536.107 530.792L646.806 529.32L643.507 527.649L532.808 529.122L536.107 530.792Z" fill="#32CDD7"/>
<path d="M544.028 534.798L654.727 533.326L651.428 531.657L540.728 533.129L544.028 534.798Z" fill="#32CDD7"/>
<path d="M551.618 538.638L662.317 537.167L659.016 535.497L548.318 536.969L551.618 538.638Z" fill="#32CDD7"/>
<path d="M481.211 542.831L552.81 541.879L519.478 525.015L447.879 525.967L481.211 542.831Z" fill="#32CDD7"/>
<path d="M648.282 592.548L648.347 597.583L446.883 600.263L403.239 578.181L403.173 573.145L648.282 592.548Z" fill="#3D65FF"/>
<path d="M446.883 600.263L648.347 597.583L604.704 575.503L403.239 578.181L446.883 600.263Z" fill="#3D65FF"/>
<path d="M446.817 595.226L648.282 592.548L604.638 570.465L403.174 573.145L446.817 595.226Z" fill="white"/>
<path d="M493.612 575.822L604.31 574.349L601.011 572.68L490.311 574.151L493.612 575.822Z" fill="#3D65FF"/>
<path d="M501.862 579.996L612.561 578.523L609.262 576.854L498.562 578.327L501.862 579.996Z" fill="#3D65FF"/>
<path d="M509.784 584.004L620.482 582.531L617.182 580.862L506.483 582.333L509.784 584.004Z" fill="#3D65FF"/>
<path d="M517.372 587.843L628.072 586.371L624.772 584.702L514.073 586.174L517.372 587.843Z" fill="#3D65FF"/>
<path d="M446.966 592.036L518.565 591.084L485.234 574.22L413.634 575.172L446.966 592.036Z" fill="#3D65FF"/>
<path d="M205.853 139.866H331.779V153.298H205.853V139.866Z" fill="#32CDD7"/>
<path d="M205.853 165.051H331.779V221.488H205.853V165.051Z" fill="#32CDD7"/>
<path d="M359.979 518.446L354.186 527.513L348.552 544.887L331.481 572.309L334.092 573.021L354.421 550.287L364.343 531.102L359.979 518.446Z" fill="#80E0FF"/>
<path d="M395.106 530.689L416.81 566.867L413.988 567.876L387.783 534.415L395.106 530.689Z" fill="#2B159B"/>
<path d="M362.67 534.338L356.723 545.838L353.714 528.967L354.186 527.513L357.911 521.683L358.642 521.542C358.642 521.542 360.202 527.001 360.591 528.169C360.771 528.71 361.701 531.46 362.67 534.338Z" fill="url(#paint12_linear_376_5446)"/>
<path d="M404.081 522.758C400.229 523.391 395.417 527.388 396.05 531.24C396.683 535.092 402.521 537.34 406.373 536.705C410.225 536.072 412.834 532.436 412.201 528.584C411.569 524.734 407.933 522.123 404.081 522.758Z" fill="#FFCFD3"/>
<path d="M409.053 535.023C409.327 535.731 409.563 536.457 409.758 537.19C409.897 537.718 409.872 538.485 409.332 538.567C409.065 538.608 408.818 538.433 408.606 538.267C407.893 537.711 407.147 537.113 406.83 536.269C406.561 535.557 406.647 534.721 407.053 534.078C407.419 533.498 408.059 533 408.727 533.102C408.69 533.769 408.811 534.397 409.053 535.023Z" fill="#FFCFD3"/>
<path d="M396.004 530.407C396.113 526.829 400.507 523.345 404.081 522.758C407.933 522.125 411.57 524.734 412.203 528.585C412.241 528.817 412.231 529.046 412.246 529.276C411.724 529.564 411.145 529.759 410.633 529.783C408.64 529.87 406.558 528.893 405.315 527.331C405.315 527.331 396.924 529.375 396.004 530.407Z" fill="#2B159B"/>
<path d="M404.322 526.589C404.187 526.018 403.831 525.515 403.38 525.14C401.927 523.933 399.83 525.392 399.641 527.044C399.578 527.578 399.662 528.12 399.812 528.636C399.941 529.083 400.138 529.536 400.51 529.815C400.871 530.085 401.355 530.15 401.796 530.068C402.238 529.986 402.644 529.769 403.017 529.517C403.865 528.942 404.565 527.622 404.322 526.589Z" fill="#FFCFD3"/>
<path d="M396.767 549.192L410.288 572.677L407.204 572.913L389.886 555.359L387.514 532.823C387.514 532.823 387.514 525.945 390.598 526.418C393.683 526.893 395.105 530.688 395.105 530.688L396.767 549.192Z" fill="#3D65FF"/>
<path d="M396.393 526.64C382.426 519.725 366.525 517.573 366.525 517.573L358.913 532.456L393.207 538.043L396.393 526.64Z" fill="#3D65FF"/>
<path d="M366.525 517.575L364.395 517.501C358.646 517.303 353.879 521.915 353.887 527.669L365.222 548.175L363.157 577.658H366.241L372.971 549.819L366.525 517.575Z" fill="#80E0FF"/>
<path d="M416.303 573.192C414.393 573.192 412.844 571.57 412.844 569.569C412.844 567.568 414.393 565.946 416.303 565.946C418.213 565.946 419.762 567.568 419.762 569.569C419.762 571.57 418.213 573.192 416.303 573.192Z" fill="#FFCFD3"/>
<path d="M404.986 573.197C404.986 575.198 406.534 576.82 408.444 576.82C410.355 576.82 411.903 575.198 411.903 573.197C411.903 571.196 410.355 569.574 408.444 569.574C406.534 569.574 404.986 571.196 404.986 573.197Z" fill="#FFCFD3"/>
<path d="M363.158 577.658L362.591 580.586L377.408 580.916C377.408 580.916 376.586 578.775 376.09 578.939C375.597 579.104 366.241 577.657 366.241 577.657L363.158 577.658Z" fill="#3D65FF"/>
<path d="M331.48 572.309L330.026 575.587L343.399 575.919L343.07 574.272L334.09 573.021L331.48 572.309Z" fill="#3D65FF"/>
<defs>
<linearGradient id="paint0_linear_376_5446" x1="137.429" y1="369.457" x2="65.396" y2="369.457" gradientUnits="userSpaceOnUse">
<stop stop-color="#2688C4" stop-opacity="0.8"/>
<stop offset="0.9896" stop-color="#2688C4" stop-opacity="0"/>
</linearGradient>
<linearGradient id="paint1_linear_376_5446" x1="116.498" y1="605.012" x2="188.531" y2="605.012" gradientUnits="userSpaceOnUse">
<stop stop-color="#2688C4" stop-opacity="0.8"/>
<stop offset="0.9896" stop-color="#2688C4" stop-opacity="0"/>
</linearGradient>
<linearGradient id="paint2_linear_376_5446" x1="419.448" y1="471.14" x2="102.113" y2="479.536" gradientUnits="userSpaceOnUse">
<stop stop-color="#2688C4" stop-opacity="0.8"/>
<stop offset="0.9896" stop-color="#2688C4" stop-opacity="0"/>
</linearGradient>
<linearGradient id="paint3_linear_376_5446" x1="141.175" y1="445.258" x2="141.175" y2="497.043" gradientUnits="userSpaceOnUse">
<stop stop-color="#2688C4" stop-opacity="0.8"/>
<stop offset="0.9896" stop-color="#2688C4" stop-opacity="0"/>
</linearGradient>
<linearGradient id="paint4_linear_376_5446" x1="173.673" y1="445.258" x2="173.673" y2="497.043" gradientUnits="userSpaceOnUse">
<stop stop-color="#2688C4" stop-opacity="0.8"/>
<stop offset="0.9896" stop-color="#2688C4" stop-opacity="0"/>
</linearGradient>
<linearGradient id="paint5_linear_376_5446" x1="497.568" y1="465.049" x2="685.134" y2="465.049" gradientUnits="userSpaceOnUse">
<stop stop-color="#2688C4" stop-opacity="0.8"/>
<stop offset="0.9896" stop-color="#2688C4" stop-opacity="0"/>
</linearGradient>
<linearGradient id="paint6_linear_376_5446" x1="73.9673" y1="362.671" x2="1.93468" y2="362.671" gradientUnits="userSpaceOnUse">
<stop stop-color="#2688C4" stop-opacity="0.8"/>
<stop offset="0.9896" stop-color="#2688C4" stop-opacity="0"/>
</linearGradient>
<linearGradient id="paint7_linear_376_5446" x1="31.3799" y1="296.313" x2="49.6521" y2="319.341" gradientUnits="userSpaceOnUse">
<stop stop-color="#2688C4" stop-opacity="0.8"/>
<stop offset="0.9896" stop-color="#2688C4" stop-opacity="0"/>
</linearGradient>
<linearGradient id="paint8_linear_376_5446" x1="604.227" y1="539.799" x2="412.969" y2="544.858" gradientUnits="userSpaceOnUse">
<stop stop-color="#2688C4" stop-opacity="0.8"/>
<stop offset="0.9896" stop-color="#2688C4" stop-opacity="0"/>
</linearGradient>
<linearGradient id="paint9_linear_376_5446" x1="569.31" y1="590.045" x2="378.052" y2="595.105" gradientUnits="userSpaceOnUse">
<stop stop-color="#2688C4" stop-opacity="0.8"/>
<stop offset="0.9896" stop-color="#2688C4" stop-opacity="0"/>
</linearGradient>
<linearGradient id="paint10_linear_376_5446" x1="497.08" y1="499.234" x2="425.047" y2="499.234" gradientUnits="userSpaceOnUse">
<stop stop-color="#2688C4" stop-opacity="0.8"/>
<stop offset="0.9896" stop-color="#2688C4" stop-opacity="0"/>
</linearGradient>
<linearGradient id="paint11_linear_376_5446" x1="314.479" y1="579.827" x2="386.512" y2="579.827" gradientUnits="userSpaceOnUse">
<stop stop-color="#2688C4" stop-opacity="0.8"/>
<stop offset="0.9896" stop-color="#2688C4" stop-opacity="0"/>
</linearGradient>
<linearGradient id="paint12_linear_376_5446" x1="362.669" y1="533.689" x2="353.714" y2="533.689" gradientUnits="userSpaceOnUse">
<stop stop-color="#2688C4" stop-opacity="0.8"/>
<stop offset="0.9896" stop-color="#2688C4" stop-opacity="0"/>
</linearGradient>
</defs>
</svg>
