<svg width="24" height="18" viewBox="0 0 24 18" fill="none" xmlns="http://www.w3.org/2000/svg">
<g id="Vector">
<path d="M13.9915 3.50345C14.6228 3.45612 15.2719 3.4866 15.905 3.48708L17.0154 3.48829C18.9014 3.49246 19.6272 4.13045 20.2876 5.86781L20.6727 6.90849C20.9485 7.67643 21.0638 7.94024 21.7426 8.41906L22.5671 8.97649C23.9898 9.92509 24.0015 10.545 23.9999 12.2404L23.9985 12.9181C23.9937 14.1312 23.0496 15.1482 21.8818 15.3234C21.8492 15.6062 21.8063 15.8945 21.7171 16.1652C20.8043 18.9376 16.6557 18.3829 16.5351 15.3001C16.3468 15.2734 16.1548 15.2801 15.965 15.2796L12.4573 15.2791C12.4814 15.183 12.4864 15.0775 12.4984 14.9821L13.6866 5.45365L13.9915 3.50345ZM16.3048 5.63717C16.0362 5.73469 15.7626 5.93664 15.6356 6.20452L15.6153 6.24737C15.464 6.56438 15.5447 7.3348 15.5445 7.7002L15.545 8.40031C15.5473 9.59614 16.2005 9.50496 17.1849 9.50634L18.9883 9.51035C19.8661 9.37147 19.75 8.72826 19.528 8.07347L19.252 7.26269C19.1239 6.87394 19.0346 6.43828 18.8491 6.07446C18.5435 5.47531 17.9268 5.63088 17.3715 5.63051C17.0195 5.6303 16.6545 5.60864 16.3048 5.63717Z" fill="#7C7E99"/>
<path d="M2.5615 15.3034L2.5361 15.302C2.18281 15.3062 1.84639 15.2804 1.51722 15.1368L1.3635 15.0678C-0.649071 14.0935 0.0849397 11.7524 0.354499 10.0134L1.48307 1.91353C1.62329 1.11797 2.20775 0.397466 2.96384 0.137032L3.17691 0.069097C3.33658 0.0250397 3.50189 0.00713158 3.66664 0L10.3416 0.00353864C10.9086 0.0038556 11.4728 -0.0103546 12.037 0.0560483C13.3802 0.214105 14.1955 1.50698 14.0018 2.83245C13.9702 3.04825 13.7898 3.43478 13.9915 3.50345L13.6866 5.45365L12.4984 14.9821C12.4864 15.0775 12.4813 15.183 12.4572 15.2757L8.09974 15.2764L8.01876 15.8036C7.54663 17.5919 5.6526 18.5517 4.03374 17.6649C3.97744 17.6341 3.91566 17.6046 3.86894 17.5595C3.81291 17.5498 3.70192 17.452 3.65417 17.4143C2.95934 16.8646 2.66918 16.1699 2.5615 15.3034Z" fill="#ACAEBE"/>
<path d="M5.15497 8.57454L8.77745 8.57517C9.21451 8.57549 9.83622 8.50422 10.0539 9.0074C10.1036 9.12214 10.1166 9.28796 10.0737 9.40661L10.0576 9.44945C9.89376 9.8737 9.55455 9.94005 9.16696 9.94047L8.53805 9.9391L4.67984 9.93968C4.2359 9.9401 3.64368 9.92695 3.61781 9.29673C3.5925 8.67998 4.17459 8.57918 4.64729 8.57644L5.15497 8.57454Z" fill="#FEFEFE"/>
<path d="M10.3626 5.70098L11.0342 5.69496C11.1553 5.6938 11.3036 5.679 11.4214 5.70991C11.8018 5.80985 12.0487 6.25936 11.9305 6.64509L11.9217 6.67188C11.6266 7.6058 10.5722 7.10801 9.87517 7.08873L5.40937 7.08414L4.60154 7.0845C4.45848 7.08435 4.30237 7.09745 4.16174 7.07003C3.58338 6.95719 3.38403 6.12375 3.93558 5.81429L3.97434 5.79316C4.24065 5.6304 4.66632 5.70156 4.96372 5.70156L10.3626 5.70098Z" fill="#FEFEFE"/>
<path d="M2.5615 15.3034L2.56156 15.1806C2.56259 13.6097 3.84116 12.2597 5.39462 12.2657C6.99197 12.272 8.1106 13.7042 8.10072 15.2754L8.01876 15.8036C7.54663 17.5919 5.6526 18.5517 4.03374 17.6649C3.97744 17.6341 3.91566 17.6046 3.86894 17.5595C3.81291 17.5498 3.70192 17.452 3.65417 17.4143C2.95934 16.8646 2.66918 16.1699 2.5615 15.3034Z" fill="#7C7E99"/>
</g>
</svg>
