<svg width="20" height="20" viewBox="0 0 20 20" fill="none" xmlns="http://www.w3.org/2000/svg">
<path d="M2.26693 17.7331C1.91102 17.3772 1.91102 16.8001 2.26693 16.4442L16.4442 2.26693C16.8001 1.91102 17.3772 1.91102 17.7331 2.26693C18.089 2.62283 18.089 3.19987 17.7331 3.55577L3.55577 17.7331C3.19987 18.089 2.62283 18.089 2.26693 17.7331Z" fill="white"/>
<path d="M2.26693 2.26693C2.62283 1.91102 3.19987 1.91102 3.55577 2.26693L17.7331 16.4442C18.089 16.8001 18.089 17.3772 17.7331 17.7331C17.3772 18.089 16.8001 18.089 16.4442 17.7331L2.26693 3.55577C1.91102 3.19987 1.91102 2.62283 2.26693 2.26693Z" fill="white"/>
</svg>
