<svg width="48" height="49" viewBox="0 0 48 49" fill="none" xmlns="http://www.w3.org/2000/svg">
<path d="M12.1608 21.97C13.1764 21.97 14.0358 22.8293 14.0358 23.845V42.595C14.0358 43.6887 13.1764 44.47 12.1608 44.47H5.91077C4.81702 44.47 4.03577 43.6887 4.03577 42.595V23.845C4.03577 22.8293 4.81702 21.97 5.91077 21.97H12.1608ZM9.03577 41.345C10.0514 41.345 10.9108 40.5637 10.9108 39.47C10.9108 38.4543 10.0514 37.595 9.03577 37.595C7.94202 37.595 7.16077 38.4543 7.16077 39.47C7.16077 40.5637 7.94202 41.345 9.03577 41.345ZM34.0358 10.8762C34.0358 14.1575 32.0045 16.0325 31.3795 18.22H39.3483C41.9264 18.22 43.9576 20.4075 43.9576 22.8293C44.0358 24.2356 43.4108 25.72 42.4733 26.6575C43.2545 28.4543 43.0983 31.0325 41.7701 32.8293C42.3951 34.8606 41.7701 37.3606 40.442 38.6887C40.8326 40.095 40.6764 41.2668 39.9733 42.2043C38.4108 44.47 34.4264 44.47 31.067 44.47H30.8326C27.0826 44.47 24.0358 43.1418 21.5358 42.0481C20.2858 41.5012 18.6451 40.7981 17.3951 40.7981C16.9264 40.72 16.5358 40.3293 16.5358 39.8606V23.1418C16.5358 22.9075 16.6139 22.6731 16.7701 22.4387C19.8951 19.3918 21.2233 16.1887 23.7233 13.6106C24.8951 12.4387 25.2858 10.72 25.7545 9.00122C26.067 7.59497 26.7701 4.46997 28.4108 4.46997C30.2858 4.46997 34.0358 5.09497 34.0358 10.8762Z" fill="#3D65FF"/>
</svg>
