<svg width="20" height="20" viewBox="0 0 20 20" fill="none" xmlns="http://www.w3.org/2000/svg">
<path d="M11.2453 2.0031C6.73084 1.87868 3.0324 5.51353 3.0324 10.0015H1.44482C1.04571 10.0015 0.850585 10.4814 1.1344 10.7569L3.6089 13.2453C3.78628 13.4231 4.06122 13.4231 4.23861 13.2453L6.71311 10.7569C6.77439 10.6943 6.8158 10.6149 6.83212 10.5287C6.84843 10.4425 6.83891 10.3534 6.80476 10.2726C6.77062 10.1918 6.71337 10.123 6.64024 10.0747C6.56711 10.0265 6.48137 10.001 6.39382 10.0015H4.80623C4.80623 6.53555 7.62663 3.7361 11.1033 3.78053C14.4027 3.82497 17.1787 6.60664 17.2231 9.91266C17.2674 13.3875 14.4736 16.2225 11.0147 16.2225C9.58672 16.2225 8.26521 15.7337 7.21865 14.9072C7.04877 14.7731 6.83563 14.7063 6.61977 14.7194C6.40391 14.7325 6.20039 14.8247 6.04792 14.9783C5.67541 15.3516 5.70202 15.9826 6.11887 16.3025C7.51233 17.4067 9.23813 18.0051 11.0147 18C15.4936 18 19.1211 14.294 18.9969 9.77047C18.8816 5.6024 15.4049 2.11863 11.2453 2.0031ZM10.7929 6.44668C10.4293 6.44668 10.1277 6.74884 10.1277 7.11321V10.3837C10.1277 10.6947 10.2962 10.988 10.5623 11.148L13.3295 12.7921C13.6488 12.9787 14.0568 12.8721 14.243 12.561C14.4293 12.2411 14.3229 11.8323 14.0124 11.6457L11.4581 10.126V7.10432C11.4581 6.74884 11.1566 6.44668 10.7929 6.44668Z" fill="#05093E" fill-opacity="0.3"/>
</svg>
