<svg width="20" height="20" viewBox="0 0 20 20" fill="none" xmlns="http://www.w3.org/2000/svg">
<path d="M10 11.3571C9.32575 11.3571 8.66663 11.1582 8.10601 10.7853C7.54539 10.4125 7.10844 9.88264 6.85041 9.26268C6.59239 8.64271 6.52488 7.96052 6.65642 7.30237C6.78796 6.64422 7.11264 6.03967 7.58941 5.56517C8.06618 5.09067 8.67362 4.76754 9.33492 4.63662C9.99622 4.50571 10.6817 4.5729 11.3046 4.82969C11.9275 5.08649 12.46 5.52136 12.8346 6.07932C13.2091 6.63727 13.4091 7.29324 13.4091 7.96429C13.408 8.8638 13.0485 9.72616 12.4094 10.3622C11.7703 10.9983 10.9038 11.3561 10 11.3571ZM10 5.92857C9.59545 5.92857 9.19998 6.04796 8.86361 6.27165C8.52723 6.49534 8.26506 6.81327 8.11025 7.18525C7.95543 7.55723 7.91493 7.96654 7.99385 8.36143C8.07277 8.75632 8.26758 9.11905 8.55365 9.40375C8.83971 9.68845 9.20417 9.88234 9.60095 9.96088C9.99773 10.0394 10.409 9.99912 10.7828 9.84504C11.1565 9.69096 11.476 9.43004 11.7007 9.09527C11.9255 8.7605 12.0455 8.36691 12.0455 7.96429C12.0449 7.42455 11.8292 6.90707 11.4458 6.52541C11.0623 6.14376 10.5423 5.92911 10 5.92857Z" fill="#3D65FF"/>
<path d="M10.7612 18.6065C10.3619 19.0752 9.63806 19.0752 9.23879 18.6065L4.24819 12.7489C4.16826 12.6475 4.08917 12.5455 4.01091 12.4429C3.0289 11.1545 2.49818 9.58138 2.5 7.96429C2.5 5.98463 3.29018 4.08606 4.6967 2.68624C6.10322 1.28641 8.01088 0.5 10 0.5C11.9891 0.5 13.8968 1.28641 15.3033 2.68624C16.7098 4.08606 17.5 5.98463 17.5 7.96429C17.5016 9.58025 16.9714 11.1523 15.9904 12.44C15.99 12.4405 15.9897 12.4412 15.9894 12.4418C15.9892 12.4425 15.9889 12.4431 15.9885 12.4437C15.976 12.46 15.7835 12.7114 15.7539 12.7462L10.7612 18.6065ZM5.09978 11.6252C5.09978 11.6252 5.25864 11.8342 5.29478 11.879L9.23878 16.5083C9.63805 16.977 10.3619 16.977 10.7612 16.5083L14.7114 11.8715C14.7414 11.8342 14.9016 11.6231 14.9016 11.6231C15.7042 10.5708 16.138 9.28549 16.1364 7.96429C16.1364 6.34457 15.4899 4.79119 14.3391 3.64588C13.1883 2.50057 11.6275 1.85714 10 1.85714C8.37254 1.85714 6.81173 2.50057 5.66094 3.64588C4.51015 4.79119 3.86364 6.34457 3.86364 7.96429C3.86196 9.28635 4.29622 10.5724 5.09978 11.6252Z" fill="#3D65FF"/>
</svg>
