<svg width="20" height="20" viewBox="0 0 20 20" fill="none" xmlns="http://www.w3.org/2000/svg">
<path d="M2.34788 9.99927H16.9551C17.0473 9.99927 17.1358 9.96415 17.201 9.90165C17.2662 9.83914 17.3029 9.75436 17.3029 9.66597V7.33285C17.303 7.24528 17.285 7.15856 17.2501 7.07764C17.2152 6.99671 17.164 6.92317 17.0994 6.86122L12.2304 2.19498C12.1657 2.1331 12.089 2.08403 12.0045 2.05057C11.9201 2.01712 11.8296 1.99993 11.7382 2H3.39125C3.02229 2 2.66845 2.14046 2.40755 2.39049C2.14666 2.64051 2.00009 2.97962 2.00009 3.33321V9.66597C2.00009 9.75436 2.03673 9.83914 2.10196 9.90165C2.16718 9.96415 2.25564 9.99927 2.34788 9.99927ZM11.7382 3.66651L15.5639 7.33285H11.7382V3.66651ZM17.9985 12.7099C17.9829 12.8812 17.9003 13.0406 17.7673 13.156C17.6343 13.2714 17.4606 13.3344 17.2812 13.3323H15.2161V14.6655H16.5838C16.7633 14.6632 16.9371 14.7261 17.0702 14.8416C17.2033 14.9571 17.2858 15.1165 17.3012 15.288C17.3075 15.3791 17.2942 15.4706 17.262 15.5566C17.2299 15.6427 17.1797 15.7215 17.1145 15.7881C17.0492 15.8548 16.9704 15.9079 16.8828 15.9441C16.7953 15.9803 16.7009 15.9989 16.6056 15.9987H15.2161V17.3094C15.2186 17.4815 15.1529 17.648 15.0324 17.7755C14.9119 17.9031 14.7455 17.9821 14.5666 17.9969C14.4715 18.0029 14.3761 17.9902 14.2863 17.9594C14.1965 17.9286 14.1143 17.8805 14.0447 17.818C13.9752 17.7554 13.9198 17.6799 13.882 17.596C13.8442 17.5121 13.8248 17.4216 13.825 17.3303V12.6657C13.825 12.4889 13.8983 12.3193 14.0287 12.1943C14.1592 12.0693 14.3361 11.9991 14.5206 11.9991H17.3029C17.3982 11.9989 17.4926 12.0175 17.5802 12.0537C17.6677 12.0899 17.7465 12.143 17.8118 12.2097C17.877 12.2763 17.9272 12.3551 17.9594 12.4412C17.9915 12.5272 18.0048 12.6187 17.9985 12.7099ZM4.08684 11.9991H2.69567C2.51119 11.9991 2.33427 12.0693 2.20382 12.1943C2.07337 12.3193 2.00009 12.4889 2.00009 12.6657V17.3094C1.99723 17.4817 2.06267 17.6487 2.18321 17.7766C2.30375 17.9045 2.47042 17.9838 2.64959 17.9985C2.74474 18.0046 2.84016 17.9918 2.92995 17.9611C3.01973 17.9303 3.10196 17.8821 3.17151 17.8196C3.24106 17.7571 3.29646 17.6816 3.33426 17.5977C3.37206 17.5138 3.39146 17.4233 3.39125 17.3319V16.6653H4.03467C5.35975 16.6653 6.48138 15.6721 6.5205 14.403C6.5304 14.0908 6.47477 13.7799 6.35691 13.4886C6.23906 13.1974 6.06138 12.9318 5.83441 12.7076C5.60744 12.4834 5.33581 12.3052 5.03562 12.1835C4.73542 12.0617 4.41279 11.9991 4.08684 11.9991ZM4.0564 15.3321H3.39125V13.3323H4.08684C4.23277 13.3316 4.37722 13.3603 4.51087 13.4165C4.64451 13.4727 4.76436 13.5551 4.86269 13.6585C4.96102 13.7618 5.03564 13.8838 5.08172 14.0165C5.1278 14.1492 5.14432 14.2897 5.13021 14.4289C5.09985 14.6802 4.97319 14.9117 4.77478 15.0786C4.57638 15.2455 4.32037 15.3359 4.0564 15.3321ZM9.65149 11.9991H8.26033C8.07585 11.9991 7.89892 12.0693 7.76848 12.1943C7.63803 12.3193 7.56474 12.4889 7.56474 12.6657V17.3319C7.56474 17.5087 7.63803 17.6783 7.76848 17.8033C7.89892 17.9283 8.07585 17.9985 8.26033 17.9985H9.59237C11.3018 17.9985 12.7407 16.7087 12.7807 15.0713C12.7908 14.6714 12.7173 14.2736 12.5646 13.9013C12.4119 13.529 12.183 13.1897 11.8914 12.9035C11.5999 12.6172 11.2515 12.3897 10.8668 12.2344C10.4821 12.0791 10.0689 11.9991 9.65149 11.9991ZM9.60889 16.6653H8.95591V13.3323H9.65149C9.8856 13.3321 10.1173 13.3773 10.3328 13.465C10.5483 13.5527 10.743 13.6813 10.9054 13.8429C11.0678 14.0045 11.1945 14.1958 11.2778 14.4055C11.3611 14.6152 11.3995 14.8388 11.3904 15.063C11.3539 15.9646 10.5505 16.6653 9.60889 16.6653Z" fill="#3D65FF"/>
</svg>
