<svg width="18" height="18" viewBox="0 0 18 18" fill="none" xmlns="http://www.w3.org/2000/svg">
<g id="64504db916d762dfc7e36481_phone-icon-font-v2-doctr-x-webflow-template.svg fill" clip-path="url(#clip0_881_47)">
<path id="Vector" d="M8.9449 12.4265C7.4639 11.7093 6.26943 10.5118 5.55611 9.02895C5.50426 8.91957 5.48184 8.7986 5.4911 8.67793C5.50024 8.55725 5.54061 8.44105 5.60841 8.34075L7.06325 6.16292C7.12848 6.06669 7.16829 5.9554 7.179 5.83966C7.18959 5.72391 7.17075 5.60728 7.12414 5.50079L5.37312 1.42374C5.31514 1.28446 5.213 1.16805 5.08231 1.09245C4.95162 1.01696 4.79975 0.986404 4.65011 1.00558C3.64151 1.13482 2.71455 1.62713 2.04271 2.39039C1.37088 3.15366 1.00022 4.13549 0.999999 5.15233C0.999999 8.29453 2.24822 11.308 4.47002 13.5299C6.69193 15.7518 9.70547 17 12.8477 17C13.8645 16.9998 14.8464 16.629 15.6096 15.9572C16.3729 15.2854 16.8652 14.3584 16.9944 13.3499C17.0136 13.2002 16.9831 13.0483 16.9075 12.9177C16.832 12.787 16.7156 12.6848 16.5762 12.6268L12.4905 10.8758C12.3857 10.8303 12.2712 10.8112 12.1573 10.8203C12.0434 10.8294 11.9334 10.8664 11.8371 10.9281L9.6244 12.3829C9.52433 12.4477 9.40929 12.4857 9.29033 12.4933C9.17137 12.5009 9.05244 12.4779 8.9449 12.4265Z" stroke="#32CDD7" stroke-width="1.5" stroke-linecap="round" stroke-linejoin="round"/>
</g>
<defs>
<clipPath id="clip0_881_47">
<rect width="18" height="18" fill="white" transform="matrix(-4.37114e-08 -1 -1 4.37114e-08 18 18)"/>
</clipPath>
</defs>
</svg>
