<svg width="20" height="20" viewBox="0 0 20 20" fill="none" xmlns="http://www.w3.org/2000/svg">
<g clip-path="url(#clip0_285_11846)">
<path d="M6.57355 10.0551C7.2907 11.5361 8.48824 12.7306 9.97105 13.4439C10.0804 13.4957 10.2014 13.5182 10.3221 13.5089C10.4427 13.4998 10.559 13.4594 10.6593 13.3916L12.8371 11.9367C12.9333 11.8715 13.0446 11.8317 13.1603 11.821C13.2761 11.8104 13.3927 11.8293 13.4992 11.8759L17.5763 13.6269C17.7155 13.6849 17.832 13.787 17.9076 13.9177C17.983 14.0484 18.0136 14.2002 17.9944 14.3499C17.8652 15.3585 17.3729 16.2855 16.6096 16.9573C15.8463 17.6291 14.8645 17.9998 13.8477 18C10.7055 18 7.69197 16.7518 5.4701 14.53C3.24824 12.3081 2 9.29453 2 6.15232C2.00023 5.1355 2.37095 4.1536 3.0428 3.39036C3.71464 2.62712 4.64156 2.13483 5.65013 2.00561C5.79983 1.98638 5.95169 2.0169 6.08235 2.09245C6.213 2.16801 6.3152 2.28443 6.37318 2.42377L8.12421 6.50949C8.16973 6.61433 8.18879 6.72876 8.17967 6.8427C8.17056 6.95664 8.13356 7.06659 8.07193 7.16286L6.6171 9.3756C6.55234 9.47567 6.51433 9.59071 6.5067 9.70967C6.49907 9.82863 6.52209 9.94756 6.57355 10.0551Z" stroke="#3D65FF" stroke-width="1.5" stroke-linecap="round" stroke-linejoin="round"/>
</g>
<defs>
<clipPath id="clip0_285_11846">
<rect width="18" height="18" fill="white" transform="translate(1 1)"/>
</clipPath>
</defs>
</svg>
