<svg width="23" height="23" viewBox="0 0 23 23" fill="none" xmlns="http://www.w3.org/2000/svg">
<path d="M1 10.5438C1 5.27292 5.27292 1 10.5438 1C15.8147 1 20.0876 5.27292 20.0876 10.5438C20.0876 15.8147 15.8147 20.0876 10.5438 20.0876C5.27292 20.0876 1 15.8147 1 10.5438ZM10.5438 2.54764C6.12766 2.54764 2.54764 6.12766 2.54764 10.5438C2.54764 14.9599 6.12766 18.5399 10.5438 18.5399C14.9599 18.5399 18.5399 14.9599 18.5399 10.5438C18.5399 6.12766 14.9599 2.54764 10.5438 2.54764Z" fill="#3D65FF"/>
<path d="M16.3016 16.3016C16.6038 15.9994 17.0938 15.9994 17.396 16.3016L21.7734 20.679C22.0755 20.9812 22.0755 21.4712 21.7734 21.7734C21.4712 22.0755 20.9812 22.0755 20.679 21.7734L16.3016 17.396C15.9994 17.0938 15.9994 16.6038 16.3016 16.3016Z" fill="#3D65FF"/>
</svg>
