<svg width="28" height="28" viewBox="0 0 28 28" fill="none" xmlns="http://www.w3.org/2000/svg">
<g id="Vector">
<path d="M11.3334 27.5C12.622 27.5 13.6667 26.4554 13.6667 25.1667C13.6667 23.878 12.622 22.8334 11.3334 22.8334C10.0447 22.8334 9.00005 23.878 9.00005 25.1667C9.00005 26.4554 10.0447 27.5 11.3334 27.5Z" fill="white"/>
<path d="M22.6667 27.5C23.9554 27.5 25 26.4554 25 25.1667C25 23.878 23.9554 22.8334 22.6667 22.8334C21.378 22.8334 20.3334 23.878 20.3334 25.1667C20.3334 26.4554 21.378 27.5 22.6667 27.5Z" fill="white"/>
<path d="M0.167995 0.945345C0.474347 0.485816 1.09522 0.361642 1.55475 0.667995L7.55475 4.66799C7.76791 4.8101 7.9184 5.0286 7.97518 5.27842L11.1316 19.1667H22.9185L25.6636 9.83338H14.3334C13.7811 9.83338 13.3334 9.38566 13.3334 8.83338C13.3334 8.28109 13.7811 7.83338 14.3334 7.83338H27C27.3152 7.83338 27.6119 7.98195 27.8007 8.23428C27.9895 8.48662 28.0483 8.8132 27.9594 9.11555L24.6261 20.4489C24.5009 20.8745 24.1103 21.1667 23.6667 21.1667H10.3334C9.86648 21.1667 9.46172 20.8436 9.35825 20.3883L6.11334 6.11076L0.445345 2.3321C-0.0141836 2.02574 -0.138358 1.40487 0.167995 0.945345Z" fill="white"/>
<path d="M13.3334 14.8334C13.3334 14.2811 13.7811 13.8334 14.3334 13.8334H25C25.5523 13.8334 26 14.2811 26 14.8334C26 15.3857 25.5523 15.8334 25 15.8334H14.3334C13.7811 15.8334 13.3334 15.3857 13.3334 14.8334Z" fill="white"/>
</g>
</svg>
