<svg width="20" height="20" viewBox="0 0 20 20" fill="none" xmlns="http://www.w3.org/2000/svg">
<g clip-path="url(#clip0_285_11844)">
<g clip-path="url(#clip1_285_11844)">
<path fill-rule="evenodd" clip-rule="evenodd" d="M4.73696 12.3377C6.07852 11.8691 7.85018 11.7291 9.66417 11.7291C11.4894 11.7291 13.2619 11.8742 14.602 12.3489C15.277 12.588 15.8944 12.9285 16.3484 13.4241C16.8178 13.9367 17.0783 14.5794 17.0783 15.3333C17.0783 16.0887 16.8154 16.7311 16.3431 17.2418C15.8867 17.7352 15.267 18.0724 14.5913 18.3083C13.2498 18.7768 11.4781 18.9166 9.66417 18.9166C7.83934 18.9166 6.06681 18.7714 4.72669 18.2968C4.05161 18.0577 3.43415 17.7172 2.98011 17.2216C2.51061 16.709 2.25 16.0663 2.25 15.3124C2.25 14.5571 2.51296 13.9148 2.98526 13.4042C3.44159 12.9108 4.06129 12.5737 4.73696 12.3377ZM4.08643 14.4227C3.87078 14.6559 3.75 14.9344 3.75 15.3124C3.75 15.6922 3.87075 15.9732 4.08619 16.2084C4.3171 16.4605 4.68818 16.6918 5.22748 16.8828C6.31611 17.2684 7.87566 17.4166 9.66417 17.4166C11.4444 17.4166 13.0048 17.2735 14.0968 16.8922C14.6379 16.7032 15.0103 16.4737 15.2419 16.2233C15.4575 15.9902 15.5783 15.7116 15.5783 15.3333C15.5783 14.9534 15.4576 14.6724 15.2422 14.4372C15.0114 14.1852 14.6404 13.9538 14.1012 13.7628C13.0126 13.3773 11.4531 13.2291 9.66417 13.2291C7.88399 13.2291 6.32356 13.3724 5.23158 13.7538C4.69048 13.9428 4.31804 14.1723 4.08643 14.4227Z" fill="#3D65FF"/>
<path fill-rule="evenodd" clip-rule="evenodd" d="M4.50417 5.91C4.50417 3.04829 6.80245 0.75 9.66417 0.75C12.5268 0.75 14.8242 3.04838 14.8242 5.91C14.8242 8.77162 12.5268 11.07 9.66417 11.07C6.80245 11.07 4.50417 8.77171 4.50417 5.91ZM9.66417 2.25C7.63088 2.25 6.00417 3.87671 6.00417 5.91C6.00417 7.94329 7.63088 9.57 9.66417 9.57C11.6982 9.57 13.3242 7.94338 13.3242 5.91C13.3242 3.87662 11.6982 2.25 9.66417 2.25Z" fill="#3D65FF"/>
</g>
</g>
<defs>
<clipPath id="clip0_285_11844">
<rect width="16" height="19" fill="white" transform="translate(2 0.5)"/>
</clipPath>
<clipPath id="clip1_285_11844">
<rect width="16" height="19" fill="white" transform="translate(2 0.5)"/>
</clipPath>
</defs>
</svg>
