<svg width="20" height="20" viewBox="0 0 20 20" fill="none" xmlns="http://www.w3.org/2000/svg">
<path d="M6.58333 5.41667C6.58333 3.46066 8.16899 1.875 10.125 1.875C12.081 1.875 13.6667 3.46066 13.6667 5.41667C13.6667 7.37268 12.081 8.95833 10.125 8.95833C8.16899 8.95833 6.58333 7.37268 6.58333 5.41667ZM9.18084 11.0417H11.0692C11.9793 11.0417 12.7005 11.0417 13.2819 11.0892C13.8764 11.1377 14.3794 11.2391 14.8387 11.4731C15.5835 11.8526 16.1891 12.4582 16.5686 13.203C16.8026 13.6623 16.9039 14.1653 16.9525 14.7598C17 15.3411 17 16.0624 17 16.9725V17.5C17 17.8452 16.7202 18.125 16.375 18.125H3.875C3.52982 18.125 3.25 17.8452 3.25 17.5V16.9725C3.25 16.0624 3.24999 15.3411 3.29749 14.7598C3.34606 14.1653 3.4474 13.6623 3.68143 13.203C4.06093 12.4582 4.66647 11.8526 5.41129 11.4731C5.8706 11.2391 6.37363 11.1377 6.96812 11.0892C7.54947 11.0417 8.27072 11.0417 9.18084 11.0417Z" fill="#05093E" fill-opacity="0.3"/>
</svg>
